{
.appVersion = "3075";
DisplayStrings = (
Currant,
z,
"/eng.isol/eng",
"a/a.init/a.isol/a.high \012b/b.init/b.fina/b.isol/b.high/b.high.fina \012c/c.init/c.fina/c.isol/c.high/c.high.fina \012d/d.init/d.isol/d.high \012รฐ/eth.init/eth.isol/eth.high \012e/e.init/e.fina/e.isol/e.high/e.high.fina \012f/f.init/f.isol/f.high \012g/g.init/g.fina/g.isol/g.high/g.high.fina \012h/h.init/h.isol/h.high \012i/i.init/i.isol/i.high \012/idotless/idotless.init/idotless.isol/idotless.high \012j/j.init/j.fina/j.isol/j.high/j.high.fina \012/jdotless/jdotless.init/jdotless.fina/jdotless.isol/jdotless.high/jdotless.high.fina \012k/k.init/k.isol/k.high \012l/l.init/l.isol/l.high \012m/m.init/m.isol/m.high \012n/n.init/n.isol/n.high \012o/o.init/o.fina/o.isol/o.high/o.high.fina \012p/p.init/p.fina/p.isol/p.high/p.high.fina \012q/q.init/q.fina/q.isol/q.high/q.high.fina \012r/r.init/r.isol/r.high \012s/s.init/s.fina/s.isol/s.high/s.high.fina \012ร/germandbls.init/germandbls.fina/germandbls.isol/germandbls.high \012t/t.init/t.fina/t.isol/t.high/t.high.fina \012u/u.init/u.isol/u.high \012v/v.init/v.fina/v.isol/v.high/v.high.fina \012w/w.init/w.fina/w.isol/w.high/w.high.fina \012x/x.init/x.fina/x.isol/x.high/x.high.fina \012y/y.init/y.fina/y.isol/y.high/y.high.fina \012z/z.init/z.fina/z.isol/z.high/z.high.fina \012",
ooo
);
classes = (
{
automatic = 1;

glyphs = (
{
glyphname = A;
lastChange = "2021-04-29 02:47:43 +0000";
layers = (
{
anchors = (
{
name = bottom;
position = "{746, -240}";
},
{
name = ogonek;
position = "{1010, -240}";
},
{
name = top;
position = "{746, 1400}";
}
);
layerId = m003;
paths = (
{
closed = 0;
nodes = (
"448 -240 LINE SMOOTH",
"528 1280 LINE SMOOTH",
"532 1360 OFFCURVE",
"566 1400 OFFCURVE",
"646 1400 CURVE SMOOTH",
"890 1400 LINE SMOOTH",
"970 1400 OFFCURVE",
"1010 1360 OFFCURVE",
"1010 1280 CURVE SMOOTH",
"1010 120 LINE SMOOTH",
"1010 52 OFFCURVE",
"1062 0 OFFCURVE",
"1128 0 CURVE SMOOTH {name = instroke_raise;}",
"1278 0 LINE"
);
},
{
closed = 0;
nodes = (
"248 398 LINE",
"1010 398 LINE"
);
},
{
closed = 0;
nodes = (
"790 1400 LINE",
"68 1400 LINE"
);
},
{
closed = 0;
nodes = (
"1010 -240 LINE",
"1010 280 LINE SMOOTH"
);
}
);
width = 1278;
},
{
anchors = (
{
name = bottom;
position = "{746, -240}";
},
{
name = ogonek;
position = "{1010, -240}";
},
{
name = top;
position = "{746, 1400}";
}
);
layerId = m002;
paths = (
{
closed = 0;
nodes = (
"448 -240 LINE SMOOTH",
"528 1280 LINE SMOOTH",
"532 1360 OFFCURVE",
"566 1400 OFFCURVE",
"646 1400 CURVE SMOOTH",
"890 1400 LINE SMOOTH",
"970 1400 OFFCURVE",
"1010 1360 OFFCURVE",
"1010 1280 CURVE SMOOTH",
"1010 120 LINE SMOOTH",
"1010 52 OFFCURVE",
"1062 0 OFFCURVE",
"1128 0 CURVE SMOOTH {name = instroke_raise;}",
"1278 0 LINE"
);
},
{
closed = 0;
nodes = (
"248 398 LINE",
"1010 398 LINE"
);
},
{
closed = 0;
nodes = (
"790 1400 LINE",
"68 1400 LINE"
);
},
{
closed = 0;
nodes = (
"1010 -240 LINE",
"1010 280 LINE SMOOTH"
);
}
);
width = 1278;
},
{
anchors = (
{
name = bottom;
position = "{746, -240}";
},
{
name = ogonek;
position = "{1010, -240}";
},
{
name = top;
position = "{746, 1400}";
}
);
layerId = m004;
paths = (
{
closed = 0;
nodes = (
"448 -240 LINE SMOOTH",
"528 1280 LINE SMOOTH",
"532 1360 OFFCURVE",
"566 1400 OFFCURVE",
"646 1400 CURVE SMOOTH",
"890 1400 LINE SMOOTH",
"970 1400 OFFCURVE",
"1010 1360 OFFCURVE",
"1010 1280 CURVE SMOOTH",
"1010 120 LINE SMOOTH",
"1010 52 OFFCURVE",
"1062 0 OFFCURVE",
"1128 0 CURVE SMOOTH {name = instroke_raise;}",
"1278 0 LINE"
);
},
{
closed = 0;
nodes = (
"248 398 LINE",
"1010 398 LINE"
);
},
{
closed = 0;
nodes = (
"790 1400 LINE",
"68 1400 LINE"
);
},
{
closed = 0;
nodes = (
"1010 -240 LINE",
"1010 280 LINE SMOOTH"
);
}
);
width = 1278;
},
{
anchors = (
{
name = bottom;
position = "{746, -240}";
},
{
name = ogonek;
position = "{1010, -240}";
},
{
name = top;
position = "{746, 1400}";
}
);
layerId = m005;
paths = (
{
closed = 0;
nodes = (
"448 -240 LINE SMOOTH",
"528 1280 LINE SMOOTH",
"532 1360 OFFCURVE",
"566 1400 OFFCURVE",
"646 1400 CURVE SMOOTH",
"890 1400 LINE SMOOTH",
"970 1400 OFFCURVE",
"1010 1360 OFFCURVE",
"1010 1280 CURVE SMOOTH",
"1010 120 LINE SMOOTH",
"1010 52 OFFCURVE",
"1062 0 OFFCURVE",
"1128 0 CURVE SMOOTH {name = instroke_raise;}",
"1278 0 LINE"
);
},
{
closed = 0;
nodes = (
"248 398 LINE",
"1010 398 LINE"
);
},
{
closed = 0;
nodes = (
"790 1400 LINE",
"68 1400 LINE"
);
},
{
closed = 0;
nodes = (
"1010 -240 LINE",
"1010 280 LINE SMOOTH"
);
}
);
width = 1278;
},
{
anchors = (
{
name = bottom;
position = "{746, -240}";
},
{
name = ogonek;
position = "{1010, -240}";
},
{
name = top;
position = "{746, 1400}";
}
);
layerId = m006;
paths = (
{
closed = 0;
nodes = (
"448 -240 LINE SMOOTH",
"528 1280 LINE SMOOTH",
"532 1360 OFFCURVE",
"566 1400 OFFCURVE",
"646 1400 CURVE SMOOTH",
"890 1400 LINE SMOOTH",
"970 1400 OFFCURVE",
"1010 1360 OFFCURVE",
"1010 1280 CURVE SMOOTH",
"1010 120 LINE SMOOTH",
"1010 52 OFFCURVE",
"1062 0 OFFCURVE",
"1128 0 CURVE SMOOTH {name = instroke_raise;}",
"1278 0 LINE"
);
},
{
closed = 0;
nodes = (
"248 398 LINE",
"1010 398 LINE"
);
},
{
closed = 0;
nodes = (
"790 1400 LINE",
"68 1400 LINE"
);
},
{
closed = 0;
nodes = (
"1010 -240 LINE",
"1010 280 LINE SMOOTH"
);
}
);
width = 1278;
},
{
anchors = (
{
name = bottom;
position = "{746, -240}";
},
{
name = ogonek;
position = "{1010, -240}";
},
{
name = top;
position = "{746, 1400}";
}
);
layerId = m007;
paths = (
{
closed = 0;
nodes = (
"448 -240 LINE SMOOTH",
"528 1280 LINE SMOOTH",
"532 1360 OFFCURVE",
"566 1400 OFFCURVE",
"646 1400 CURVE SMOOTH",
"890 1400 LINE SMOOTH",
"970 1400 OFFCURVE",
"1010 1360 OFFCURVE",
"1010 1280 CURVE SMOOTH",
"1010 120 LINE SMOOTH",
"1010 52 OFFCURVE",
"1062 0 OFFCURVE",
"1128 0 CURVE SMOOTH {name = instroke_raise;}",
"1278 0 LINE"
);
},
{
closed = 0;
nodes = (
"248 398 LINE",
"1010 398 LINE"
);
},
{
closed = 0;
nodes = (
"790 1400 LINE",
"68 1400 LINE"
);
},
{
closed = 0;
nodes = (
"1010 -240 LINE",
"1010 280 LINE SMOOTH"
);
}
);
width = 1278;
},
{
anchors = (
{
name = bottom;
position = "{746, -240}";
},
{
name = ogonek;
position = "{1010, -240}";
},
{
name = top;
position = "{746, 1400}";
}
);
layerId = m008;
paths = (
{
closed = 0;
nodes = (
"448 -240 LINE SMOOTH",
"528 1280 LINE SMOOTH",
"532 1360 OFFCURVE",
"566 1400 OFFCURVE",
"646 1400 CURVE SMOOTH",
"890 1400 LINE SMOOTH",
"970 1400 OFFCURVE",
"1010 1360 OFFCURVE",
"1010 1280 CURVE SMOOTH",
"1010 120 LINE SMOOTH",
"1010 52 OFFCURVE",
"1062 0 OFFCURVE",
"1128 0 CURVE SMOOTH {name = instroke_raise;}",
"1278 0 LINE"
);
},
{
closed = 0;
nodes = (
"248 398 LINE",
"1010 398 LINE"
);
},
{
closed = 0;
nodes = (
"790 1400 LINE",
"68 1400 LINE"
);
},
{
closed = 0;
nodes = (
"1010 -240 LINE",
"1010 280 LINE SMOOTH"
);
}
);
width = 1278;
}
);
leftKerningGroup = A;
rightKerningGroup = H;
unicode = 0041;
},
{
glyphname = AE;
lastChange = "2021-04-29 02:47:43 +0000";
layers = (
{
anchors = (
{
name = bottom;
position = "{600, 0}";
},
{
name = ogonek;
position = "{1010, -240}";
},
{
name = top;
position = "{600, 1400}";
}
);
layerId = m003;
paths = (
{
closed = 0;
nodes = (
"448 -240 LINE",
"528 1280 LINE SMOOTH",
"532 1360 OFFCURVE",
"566 1400 OFFCURVE",
"646 1400 CURVE SMOOTH",
"890 1400 LINE",
"1010 1400 LINE"
);
},
{
closed = 0;
nodes = (
"248 398 LINE",
"1010 398 LINE"
);
},
{
closed = 0;
nodes = (
"790 1400 LINE",
"68 1400 LINE"
);
},
{
closed = 0;
nodes = (
"1390 460 LINE",
"1130 460 LINE",
"1010 460 LINE",
"1010 -240 LINE",
"1130 -240 LINE",
"1470 -240 LINE",
"1592 -240 OFFCURVE",
"1660 -172 OFFCURVE",
"1660 -50 CURVE",
"1660 220 LINE"
);
},
{
closed = 0;
nodes = (
"1660 120 LINE",
"1660 44 OFFCURVE",
"1702 0 OFFCURVE",
"1778 0 CURVE SMOOTH {name = instroke_raise;}",
"1888 0 LINE"
);
},
{
closed = 0;
nodes = (
"1500 860 LINE",
"1540 1280 LINE SMOOTH",
"1548 1356 OFFCURVE",
"1506 1400 OFFCURVE",
"1420 1400 CURVE SMOOTH",
"1130 1400 LINE",
"1010 1400 LINE",
"1010 460 LINE",
"1130 460 LINE"
);
}
);
width = 1888;
},
{
anchors = (
{
name = bottom;
position = "{600, 0}";
},
{
name = ogonek;
position = "{1010, -240}";
},
{
name = top;
position = "{600, 1400}";
}
);
layerId = m002;
paths = (
{
closed = 0;
nodes = (
"448 -240 LINE",
"528 1280 LINE SMOOTH",
"532 1360 OFFCURVE",
"566 1400 OFFCURVE",
"646 1400 CURVE SMOOTH",
"890 1400 LINE",
"1010 1400 LINE"
);
},
{
closed = 0;
nodes = (
"248 398 LINE",
"1010 398 LINE"
);
},
{
closed = 0;
nodes = (
"790 1400 LINE",
"68 1400 LINE"
);
},
{
closed = 0;
nodes = (
"1390 460 LINE",
"1130 460 LINE",
"1010 460 LINE",
"1010 -240 LINE",
"1130 -240 LINE",
"1470 -240 LINE",
"1592 -240 OFFCURVE",
"1660 -172 OFFCURVE",
"1660 -50 CURVE",
"1660 220 LINE"
);
},
{
closed = 0;
nodes = (
"1660 120 LINE",
"1660 44 OFFCURVE",
"1702 0 OFFCURVE",
"1778 0 CURVE SMOOTH {name = instroke_raise;}",
"1888 0 LINE"
);
},
{
closed = 0;
nodes = (
"1500 860 LINE",
"1540 1280 LINE SMOOTH",
"1548 1356 OFFCURVE",
"1506 1400 OFFCURVE",
"1420 1400 CURVE SMOOTH",
"1130 1400 LINE",
"1010 1400 LINE",
"1010 460 LINE",
"1130 460 LINE"
);
}
);
width = 1888;
},
{
anchors = (
{
name = bottom;
position = "{600, 0}";
},
{
name = ogonek;
position = "{1010, -240}";
},
{
name = top;
position = "{600, 1400}";
}
);
layerId = m004;
paths = (
{
closed = 0;
nodes = (
"448 -240 LINE",
"528 1280 LINE SMOOTH",
"532 1360 OFFCURVE",
"566 1400 OFFCURVE",
"646 1400 CURVE SMOOTH",
"890 1400 LINE",
"1010 1400 LINE"
);
},
{
closed = 0;
nodes = (
"248 398 LINE",
"1010 398 LINE"
);
},
{
closed = 0;
nodes = (
"790 1400 LINE",
"68 1400 LINE"
);
},
{
closed = 0;
nodes = (
"1390 460 LINE",
"1130 460 LINE",
"1010 460 LINE",
"1010 -240 LINE",
"1130 -240 LINE",
"1470 -240 LINE",
"1592 -240 OFFCURVE",
"1660 -172 OFFCURVE",
"1660 -50 CURVE",
"1660 220 LINE"
);
},
{
closed = 0;
nodes = (
"1660 120 LINE",
"1660 44 OFFCURVE",
"1702 0 OFFCURVE",
"1778 0 CURVE SMOOTH {name = instroke_raise;}",
"1888 0 LINE"
);
},
{
closed = 0;
nodes = (
"1500 860 LINE",
"1540 1280 LINE SMOOTH",
"1548 1356 OFFCURVE",
"1506 1400 OFFCURVE",
"1420 1400 CURVE SMOOTH",
"1130 1400 LINE",
"1010 1400 LINE",
"1010 460 LINE",
"1130 460 LINE"
);
}
);
width = 1888;
},
{
anchors = (
{
name = bottom;
position = "{600, 0}";
},
{
name = ogonek;
position = "{1010, -240}";
},
{
name = top;
position = "{600, 1400}";
}
);
layerId = m005;
paths = (
{
closed = 0;
nodes = (
"448 -240 LINE",
"528 1280 LINE SMOOTH",
"532 1360 OFFCURVE",
"566 1400 OFFCURVE",
"646 1400 CURVE SMOOTH",
"890 1400 LINE",
"1010 1400 LINE"
);
},
{
closed = 0;
nodes = (
"248 398 LINE",
"1010 398 LINE"
);
},
{
closed = 0;
nodes = (
"790 1400 LINE",
"68 1400 LINE"
);
},
{
closed = 0;
nodes = (
"1390 460 LINE",
"1130 460 LINE",
"1010 460 LINE",
"1010 -240 LINE",
"1130 -240 LINE",
"1470 -240 LINE",
"1592 -240 OFFCURVE",
"1660 -172 OFFCURVE",
"1660 -50 CURVE",
"1660 220 LINE"
);
},
{
closed = 0;
nodes = (
"1660 120 LINE",
"1660 44 OFFCURVE",
"1702 0 OFFCURVE",
"1778 0 CURVE SMOOTH {name = instroke_raise;}",
"1888 0 LINE"
);
},
{
closed = 0;
nodes = (
"1500 860 LINE",
"1540 1280 LINE SMOOTH",
"1548 1356 OFFCURVE",
"1506 1400 OFFCURVE",
"1420 1400 CURVE SMOOTH",
"1130 1400 LINE",
"1010 1400 LINE",
"1010 460 LINE",
"1130 460 LINE"
);
}
);
width = 1888;
},
{
anchors = (
{
name = bottom;
position = "{600, 0}";
},
{
name = ogonek;
position = "{1010, -240}";
},
{
name = top;
position = "{600, 1400}";
}
);
layerId = m006;
paths = (
{
closed = 0;
nodes = (
"448 -240 LINE",
"528 1280 LINE SMOOTH",
"532 1360 OFFCURVE",
"566 1400 OFFCURVE",
"646 1400 CURVE SMOOTH",
"890 1400 LINE",
"1010 1400 LINE"
);
},
{
closed = 0;
nodes = (
"248 398 LINE",
"1010 398 LINE"
);
},
{
closed = 0;
nodes = (
"790 1400 LINE",
"68 1400 LINE"
);
},
{
closed = 0;
nodes = (
"1390 460 LINE",
"1130 460 LINE",
"1010 460 LINE",
"1010 -240 LINE",
"1130 -240 LINE",
"1470 -240 LINE",
"1592 -240 OFFCURVE",
"1660 -172 OFFCURVE",
"1660 -50 CURVE",
"1660 220 LINE"
);
},
{
closed = 0;
nodes = (
"1660 120 LINE",
"1660 44 OFFCURVE",
"1702 0 OFFCURVE",
"1778 0 CURVE SMOOTH {name = instroke_raise;}",
"1888 0 LINE"
);
},
{
closed = 0;
nodes = (
"1500 860 LINE",
"1540 1280 LINE SMOOTH",
"1548 1356 OFFCURVE",
"1506 1400 OFFCURVE",
"1420 1400 CURVE SMOOTH",
"1130 1400 LINE",
"1010 1400 LINE",
"1010 460 LINE",
"1130 460 LINE"
);
}
);
width = 1888;
},
{
anchors = (
{
name = bottom;
position = "{600, 0}";
},
{
name = ogonek;
position = "{1010, -240}";
},
{
name = top;
position = "{600, 1400}";
}
);
layerId = m007;
paths = (
{
closed = 0;
nodes = (
"448 -240 LINE",
"528 1280 LINE SMOOTH",
"532 1360 OFFCURVE",
"566 1400 OFFCURVE",
"646 1400 CURVE SMOOTH",
"890 1400 LINE",
"1010 1400 LINE"
);
},
{
closed = 0;
nodes = (
"248 398 LINE",
"1010 398 LINE"
);
},
{
closed = 0;
nodes = (
"790 1400 LINE",
"68 1400 LINE"
);
},
{
closed = 0;
nodes = (
"1390 460 LINE",
"1130 460 LINE",
"1010 460 LINE",
"1010 -240 LINE",
"1130 -240 LINE",
"1470 -240 LINE",
"1592 -240 OFFCURVE",
"1660 -172 OFFCURVE",
"1660 -50 CURVE",
"1660 220 LINE"
);
},
{
closed = 0;
nodes = (
"1660 120 LINE",
"1660 44 OFFCURVE",
"1702 0 OFFCURVE",
"1778 0 CURVE SMOOTH {name = instroke_raise;}",
"1888 0 LINE"
);
},
{
closed = 0;
nodes = (
"1500 860 LINE",
"1540 1280 LINE SMOOTH",
"1548 1356 OFFCURVE",
"1506 1400 OFFCURVE",
"1420 1400 CURVE SMOOTH",
"1130 1400 LINE",
"1010 1400 LINE",
"1010 460 LINE",
"1130 460 LINE"
);
}
);
width = 1888;
},
{
anchors = (
{
name = bottom;
position = "{600, 0}";
},
{
name = ogonek;
position = "{1010, -240}";
},
{
name = top;
position = "{600, 1400}";
}
);
layerId = m008;
paths = (
{
closed = 0;
nodes = (
"448 -240 LINE",
"528 1280 LINE SMOOTH",
"532 1360 OFFCURVE",
"566 1400 OFFCURVE",
"646 1400 CURVE SMOOTH",
"890 1400 LINE",
"1010 1400 LINE"
);
},
{
closed = 0;
nodes = (
"248 398 LINE",
"1010 398 LINE"
);
},
{
closed = 0;
nodes = (
"790 1400 LINE",
"68 1400 LINE"
);
},
{
closed = 0;
nodes = (
"1390 460 LINE",
"1130 460 LINE",
"1010 460 LINE",
"1010 -240 LINE",
"1130 -240 LINE",
"1470 -240 LINE",
"1592 -240 OFFCURVE",
"1660 -172 OFFCURVE",
"1660 -50 CURVE",
"1660 220 LINE"
);
},
{
closed = 0;
nodes = (
"1660 120 LINE",
"1660 44 OFFCURVE",
"1702 0 OFFCURVE",
"1778 0 CURVE SMOOTH {name = instroke_raise;}",
"1888 0 LINE"
);
},
{
closed = 0;
nodes = (
"1500 860 LINE",
"1540 1280 LINE SMOOTH",
"1548 1356 OFFCURVE",
"1506 1400 OFFCURVE",
"1420 1400 CURVE SMOOTH",
"1130 1400 LINE",
"1010 1400 LINE",
"1010 460 LINE",
"1130 460 LINE"
);
}
);
width = 1888;
}
);
leftKerningGroup = A;
rightKerningGroup = E;
unicode = 00C6;
},
{
glyphname = B;
lastChange = "2021-04-29 02:47:43 +0000";
layers = (
{
anchors = (
{
name = bottom;
position = "{634, -220}";
},
{
name = top;
position = "{634, 1400}";
}
);
layerId = m003;
paths = (
{
closed = 0;
nodes = (
"100 1400 LINE",
"780 1400 LINE",
"860 1400 OFFCURVE",
"908 1366 OFFCURVE",
"900 1280 CURVE SMOOTH",
"828 412 LINE",
"100 412 LINE",
"880 412 LINE",
"960 412 OFFCURVE",
"1000 372 OFFCURVE",
"1000 292 CURVE",
"1000 -120 LINE",
"1000 -200 OFFCURVE",
"960 -240 OFFCURVE",
"880 -240 CURVE SMOOTH",
"400 -240 LINE",
"400 1400 LINE"
);
},
{
closed = 0;
nodes = (
"1000 120 LINE SMOOTH",
"1000 52 OFFCURVE",
"1052 0 OFFCURVE",
"1118 0 CURVE SMOOTH {name = instroke_raise;}",
"1228 0 LINE"
);
}
);
width = 1228;
},
{
anchors = (
{
name = bottom;
position = "{634, -220}";
},
{
name = top;
position = "{634, 1400}";
}
);
layerId = m002;
paths = (
{
closed = 0;
nodes = (
"100 1400 LINE",
"780 1400 LINE",
"860 1400 OFFCURVE",
"908 1366 OFFCURVE",
"900 1280 CURVE SMOOTH",
"828 412 LINE",
"100 412 LINE",
"880 412 LINE",
"960 412 OFFCURVE",
"1000 372 OFFCURVE",
"1000 292 CURVE",
"1000 -120 LINE",
"1000 -200 OFFCURVE",
"960 -240 OFFCURVE",
"880 -240 CURVE SMOOTH",
"400 -240 LINE",
"400 1400 LINE"
);
},
{
closed = 0;
nodes = (
"1000 120 LINE SMOOTH",
"1000 52 OFFCURVE",
"1052 0 OFFCURVE",
"1118 0 CURVE SMOOTH {name = instroke_raise;}",
"1228 0 LINE"
);
}
);
width = 1228;
},
{
anchors = (
{
name = bottom;
position = "{634, -220}";
},
{
name = top;
position = "{634, 1400}";
}
);
layerId = m004;
paths = (
{
closed = 0;
nodes = (
"100 1400 LINE",
"780 1400 LINE",
"860 1400 OFFCURVE",
"908 1366 OFFCURVE",
"900 1280 CURVE SMOOTH",
"828 412 LINE",
"100 412 LINE",
"880 412 LINE",
"960 412 OFFCURVE",
"1000 372 OFFCURVE",
"1000 292 CURVE",
"1000 -120 LINE",
"1000 -200 OFFCURVE",
"960 -240 OFFCURVE",
"880 -240 CURVE SMOOTH",
"400 -240 LINE",
"400 1400 LINE"
);
},
{
closed = 0;
nodes = (
"1000 120 LINE SMOOTH",
"1000 52 OFFCURVE",
"1052 0 OFFCURVE",
"1118 0 CURVE SMOOTH {name = instroke_raise;}",
"1228 0 LINE"
);
}
);
width = 1228;
},
{
anchors = (
{
name = bottom;
position = "{634, -220}";
},
{
name = top;
position = "{634, 1400}";
}
);
layerId = m005;
paths = (
{
closed = 0;
nodes = (
"100 1400 LINE",
"780 1400 LINE",
"860 1400 OFFCURVE",
"908 1366 OFFCURVE",
"900 1280 CURVE SMOOTH",
"828 412 LINE",
"100 412 LINE",
"880 412 LINE",
"960 412 OFFCURVE",
"1000 372 OFFCURVE",
"1000 292 CURVE",
"1000 -120 LINE",
"1000 -200 OFFCURVE",
"960 -240 OFFCURVE",
"880 -240 CURVE SMOOTH",
"400 -240 LINE",
"400 1400 LINE"
);
},
{
closed = 0;
nodes = (
"1000 120 LINE SMOOTH",
"1000 52 OFFCURVE",
"1052 0 OFFCURVE",
"1118 0 CURVE SMOOTH {name = instroke_raise;}",
"1228 0 LINE"
);
}
);
width = 1228;
},
{
anchors = (
{
name = bottom;
position = "{634, -220}";
},
{
name = top;
position = "{634, 1400}";
}
);
layerId = m006;
paths = (
{
closed = 0;
nodes = (
"100 1400 LINE",
"780 1400 LINE",
"860 1400 OFFCURVE",
"908 1366 OFFCURVE",
"900 1280 CURVE SMOOTH",
"828 412 LINE",
"100 412 LINE",
"880 412 LINE",
"960 412 OFFCURVE",
"1000 372 OFFCURVE",
"1000 292 CURVE",
"1000 -120 LINE",
"1000 -200 OFFCURVE",
"960 -240 OFFCURVE",
"880 -240 CURVE SMOOTH",
"400 -240 LINE",
"400 1400 LINE"
);
},
{
closed = 0;
nodes = (
"1000 120 LINE SMOOTH",
"1000 52 OFFCURVE",
"1052 0 OFFCURVE",
"1118 0 CURVE SMOOTH {name = instroke_raise;}",
"1228 0 LINE"
);
}
);
width = 1228;
},
{
anchors = (
{
name = bottom;
position = "{634, -220}";
},
{
name = top;
position = "{634, 1400}";
}
);
layerId = m007;
paths = (
{
closed = 0;
nodes = (
"100 1400 LINE",
"780 1400 LINE",
"860 1400 OFFCURVE",
"908 1366 OFFCURVE",
"900 1280 CURVE SMOOTH",
"828 412 LINE",
"100 412 LINE",
"880 412 LINE",
"960 412 OFFCURVE",
"1000 372 OFFCURVE",
"1000 292 CURVE",
"1000 -120 LINE",
"1000 -200 OFFCURVE",
"960 -240 OFFCURVE",
"880 -240 CURVE SMOOTH",
"400 -240 LINE",
"400 1400 LINE"
);
},
{
closed = 0;
nodes = (
"1000 120 LINE SMOOTH",
"1000 52 OFFCURVE",
"1052 0 OFFCURVE",
"1118 0 CURVE SMOOTH {name = instroke_raise;}",
"1228 0 LINE"
);
}
);
width = 1228;
},
{
anchors = (
{
name = bottom;
position = "{634, -220}";
},
{
name = top;
position = "{634, 1400}";
}
);
layerId = m008;
paths = (
{
closed = 0;
nodes = (
"100 1400 LINE",
"780 1400 LINE",
"860 1400 OFFCURVE",
"908 1366 OFFCURVE",
"900 1280 CURVE SMOOTH",
"828 412 LINE",
"100 412 LINE",
"880 412 LINE",
"960 412 OFFCURVE",
"1000 372 OFFCURVE",
"1000 292 CURVE",
"1000 -120 LINE",
"1000 -200 OFFCURVE",
"960 -240 OFFCURVE",
"880 -240 CURVE SMOOTH",
"400 -240 LINE",
"400 1400 LINE"
);
},
{
closed = 0;
nodes = (
"1000 120 LINE SMOOTH",
"1000 52 OFFCURVE",
"1052 0 OFFCURVE",
"1118 0 CURVE SMOOTH {name = instroke_raise;}",
"1228 0 LINE"
);
}
);
width = 1228;
}
);
leftKerningGroup = D;
unicode = 0042;
},
{
glyphname = C;
lastChange = "2021-04-29 02:47:43 +0000";
layers = (
{
anchors = (
{
name = bottom;
position = "{534, -240}";
},
{
name = top;
position = "{527, 1400}";
}
);
layerId = m003;
paths = (
{
closed = 0;
nodes = (
"760 720 LINE",
"810 1280 LINE SMOOTH",
"817 1360 OFFCURVE",
"770 1400 OFFCURVE",
"690 1400 CURVE SMOOTH",
"370 1400 LINE SMOOTH",
"290 1400 OFFCURVE",
"250 1360 OFFCURVE",
"250 1280 CURVE SMOOTH",
"250 -120 LINE SMOOTH",
"250 -200 OFFCURVE",
"290 -240 OFFCURVE",
"370 -240 CURVE SMOOTH",
"690 -240 LINE SMOOTH",
"770 -240 OFFCURVE",
"810 -200 OFFCURVE",
"810 -120 CURVE SMOOTH",
"810 210 LINE"
);
},
{
closed = 0;
nodes = (
"810 120 LINE SMOOTH",
"810 52 OFFCURVE",
"862 0 OFFCURVE",
"928 0 CURVE SMOOTH {name = instroke_raise;}",
"1038 0 LINE"
);
}
);
width = 1038;
},
{
anchors = (
{
name = bottom;
position = "{534, -240}";
},
{
name = top;
position = "{527, 1400}";
}
);
layerId = m002;
paths = (
{
closed = 0;
nodes = (
"760 720 LINE",
"810 1280 LINE SMOOTH",
"817 1360 OFFCURVE",
"770 1400 OFFCURVE",
"690 1400 CURVE SMOOTH",
"370 1400 LINE SMOOTH",
"290 1400 OFFCURVE",
"250 1360 OFFCURVE",
"250 1280 CURVE SMOOTH",
"250 -120 LINE SMOOTH",
"250 -200 OFFCURVE",
"290 -240 OFFCURVE",
"370 -240 CURVE SMOOTH",
"690 -240 LINE SMOOTH",
"770 -240 OFFCURVE",
"810 -200 OFFCURVE",
"810 -120 CURVE SMOOTH",
"810 210 LINE"
);
},
{
closed = 0;
nodes = (
"810 120 LINE SMOOTH",
"810 52 OFFCURVE",
"862 0 OFFCURVE",
"928 0 CURVE SMOOTH {name = instroke_raise;}",
"1038 0 LINE"
);
}
);
width = 1038;
},
{
anchors = (
{
name = bottom;
position = "{534, -240}";
},
{
name = top;
position = "{527, 1400}";
}
);
layerId = m004;
paths = (
{
closed = 0;
nodes = (
"760 720 LINE",
"810 1280 LINE SMOOTH",
"817 1360 OFFCURVE",
"770 1400 OFFCURVE",
"690 1400 CURVE SMOOTH",
"370 1400 LINE SMOOTH",
"290 1400 OFFCURVE",
"250 1360 OFFCURVE",
"250 1280 CURVE SMOOTH",
"250 -120 LINE SMOOTH",
"250 -200 OFFCURVE",
"290 -240 OFFCURVE",
"370 -240 CURVE SMOOTH",
"690 -240 LINE SMOOTH",
"770 -240 OFFCURVE",
"810 -200 OFFCURVE",
"810 -120 CURVE SMOOTH",
"810 210 LINE"
);
},
{
closed = 0;
nodes = (
"810 120 LINE SMOOTH",
"810 52 OFFCURVE",
"862 0 OFFCURVE",
"928 0 CURVE SMOOTH {name = instroke_raise;}",
"1038 0 LINE"
);
}
);
width = 1038;
},
{
anchors = (
{
name = bottom;
position = "{534, -240}";
},
{
name = top;
position = "{527, 1400}";
}
);
layerId = m005;
paths = (
{
closed = 0;
nodes = (
"760 720 LINE",
"810 1280 LINE SMOOTH",
"817 1360 OFFCURVE",
"770 1400 OFFCURVE",
"690 1400 CURVE SMOOTH",
"370 1400 LINE SMOOTH",
"290 1400 OFFCURVE",
"250 1360 OFFCURVE",
"250 1280 CURVE SMOOTH",
"250 -120 LINE SMOOTH",
"250 -200 OFFCURVE",
"290 -240 OFFCURVE",
"370 -240 CURVE SMOOTH",
"690 -240 LINE SMOOTH",
"770 -240 OFFCURVE",
"810 -200 OFFCURVE",
"810 -120 CURVE SMOOTH",
"810 210 LINE"
);
},
{
closed = 0;
nodes = (
"810 120 LINE SMOOTH",
"810 52 OFFCURVE",
"862 0 OFFCURVE",
"928 0 CURVE SMOOTH {name = instroke_raise;}",
"1038 0 LINE"
);
}
);
width = 1038;
},
{
anchors = (
{
name = bottom;
position = "{534, -240}";
},
{
name = top;
position = "{527, 1400}";
}
);
layerId = m006;
paths = (
{
closed = 0;
nodes = (
"760 720 LINE",
"810 1280 LINE SMOOTH",
"817 1360 OFFCURVE",
"770 1400 OFFCURVE",
"690 1400 CURVE SMOOTH",
"370 1400 LINE SMOOTH",
"290 1400 OFFCURVE",
"250 1360 OFFCURVE",
"250 1280 CURVE SMOOTH",
"250 -120 LINE SMOOTH",
"250 -200 OFFCURVE",
"290 -240 OFFCURVE",
"370 -240 CURVE SMOOTH",
"690 -240 LINE SMOOTH",
"770 -240 OFFCURVE",
"810 -200 OFFCURVE",
"810 -120 CURVE SMOOTH",
"810 210 LINE"
);
},
{
closed = 0;
nodes = (
"810 120 LINE SMOOTH",
"810 52 OFFCURVE",
"862 0 OFFCURVE",
"928 0 CURVE SMOOTH {name = instroke_raise;}",
"1038 0 LINE"
);
}
);
width = 1038;
},
{
anchors = (
{
name = bottom;
position = "{534, -240}";
},
{
name = top;
position = "{527, 1400}";
}
);
layerId = m007;
paths = (
{
closed = 0;
nodes = (
"760 720 LINE",
"810 1280 LINE SMOOTH",
"817 1360 OFFCURVE",
"770 1400 OFFCURVE",
"690 1400 CURVE SMOOTH",
"370 1400 LINE SMOOTH",
"290 1400 OFFCURVE",
"250 1360 OFFCURVE",
"250 1280 CURVE SMOOTH",
"250 -120 LINE SMOOTH",
"250 -200 OFFCURVE",
"290 -240 OFFCURVE",
"370 -240 CURVE SMOOTH",
"690 -240 LINE SMOOTH",
"770 -240 OFFCURVE",
"810 -200 OFFCURVE",
"810 -120 CURVE SMOOTH",
"810 210 LINE"
);
},
{
closed = 0;
nodes = (
"810 120 LINE SMOOTH",
"810 52 OFFCURVE",
"862 0 OFFCURVE",
"928 0 CURVE SMOOTH {name = instroke_raise;}",
"1038 0 LINE"
);
}
);
width = 1038;
},
{
anchors = (
{
name = bottom;
position = "{534, -240}";
},
{
name = top;
position = "{527, 1400}";
}
);
layerId = m008;
paths = (
{
closed = 0;
nodes = (
"760 720 LINE",
"810 1280 LINE SMOOTH",
"817 1360 OFFCURVE",
"770 1400 OFFCURVE",
"690 1400 CURVE SMOOTH",
"370 1400 LINE SMOOTH",
"290 1400 OFFCURVE",
"250 1360 OFFCURVE",
"250 1280 CURVE SMOOTH",
"250 -120 LINE SMOOTH",
"250 -200 OFFCURVE",
"290 -240 OFFCURVE",
"370 -240 CURVE SMOOTH",
"690 -240 LINE SMOOTH",
"770 -240 OFFCURVE",
"810 -200 OFFCURVE",
"810 -120 CURVE SMOOTH",
"810 210 LINE"
);
},
{
closed = 0;
nodes = (
"810 120 LINE SMOOTH",
"810 52 OFFCURVE",
"862 0 OFFCURVE",
"928 0 CURVE SMOOTH {name = instroke_raise;}",
"1038 0 LINE"
);
}
);
width = 1038;
}
);
leftKerningGroup = O;
unicode = 0043;
},
{
glyphname = D;
lastChange = "2021-04-29 02:47:43 +0000";
layers = (
{
anchors = (
{
name = bottom;
position = "{612, -240}";
},
{
name = center;
position = "{592, 700}";
},
{
name = top;
position = "{646, 1400}";
}
);
layerId = m003;
paths = (
{
closed = 1;
nodes = (
"898 -240 OFFCURVE",
"934 -200 OFFCURVE",
"938 -120 CURVE SMOOTH",
"998 1280 LINE SMOOTH",
"1002 1360 OFFCURVE",
"958 1400 OFFCURVE",
"878 1400 CURVE SMOOTH",
"368 1400 LINE",
"368 -240 LINE",
"818 -240 LINE SMOOTH"
);
},
{
closed = 0;
nodes = (
"708 1400 LINE",
"68 1400 LINE"
);
},
{
closed = 0;
nodes = (
"948 120 LINE SMOOTH",
"948 52 OFFCURVE",
"1000 0 OFFCURVE",
"1066 0 CURVE SMOOTH {name = instroke_raise;}",
"1216 0 LINE"
);
}
);
width = 1216;
},
{
anchors = (
{
name = bottom;
position = "{612, -240}";
},
{
name = center;
position = "{592, 700}";
},
{
name = top;
position = "{646, 1400}";
}
);
layerId = m002;
paths = (
{
closed = 1;
nodes = (
"898 -240 OFFCURVE",
"934 -200 OFFCURVE",
"938 -120 CURVE SMOOTH",
"998 1280 LINE SMOOTH",
"1002 1360 OFFCURVE",
"958 1400 OFFCURVE",
"878 1400 CURVE SMOOTH",
"368 1400 LINE",
"368 -240 LINE",
"818 -240 LINE SMOOTH"
);
},
{
closed = 0;
nodes = (
"708 1400 LINE",
"68 1400 LINE"
);
},
{
closed = 0;
nodes = (
"948 120 LINE SMOOTH",
"948 52 OFFCURVE",
"1000 0 OFFCURVE",
"1066 0 CURVE SMOOTH {name = instroke_raise;}",
"1216 0 LINE"
);
}
);
width = 1216;
},
{
anchors = (
{
name = bottom;
position = "{612, -240}";
},
{
name = center;
position = "{592, 700}";
},
{
name = top;
position = "{646, 1400}";
}
);
layerId = m004;
paths = (
{
closed = 1;
nodes = (
"898 -240 OFFCURVE",
"934 -200 OFFCURVE",
"938 -120 CURVE SMOOTH",
"998 1280 LINE SMOOTH",
"1002 1360 OFFCURVE",
"958 1400 OFFCURVE",
"878 1400 CURVE SMOOTH",
"368 1400 LINE",
"368 -240 LINE",
"818 -240 LINE SMOOTH"
);
},
{
closed = 0;
nodes = (
"708 1400 LINE",
"68 1400 LINE"
);
},
{
closed = 0;
nodes = (
"948 120 LINE SMOOTH",
"948 52 OFFCURVE",
"1000 0 OFFCURVE",
"1066 0 CURVE SMOOTH {name = instroke_raise;}",
"1216 0 LINE"
);
}
);
width = 1216;
},
{
anchors = (
{
name = bottom;
position = "{612, -240}";
},
{
name = center;
position = "{592, 700}";
},
{
name = top;
position = "{646, 1400}";
}
);
layerId = m005;
paths = (
{
closed = 1;
nodes = (
"898 -240 OFFCURVE",
"934 -200 OFFCURVE",
"938 -120 CURVE SMOOTH",
"998 1280 LINE SMOOTH",
"1002 1360 OFFCURVE",
"958 1400 OFFCURVE",
"878 1400 CURVE SMOOTH",
"368 1400 LINE",
"368 -240 LINE",
"818 -240 LINE SMOOTH"
);
},
{
closed = 0;
nodes = (
"708 1400 LINE",
"68 1400 LINE"
);
},
{
closed = 0;
nodes = (
"948 120 LINE SMOOTH",
"948 52 OFFCURVE",
"1000 0 OFFCURVE",
"1066 0 CURVE SMOOTH {name = instroke_raise;}",
"1216 0 LINE"
);
}
);
width = 1216;
},
{
anchors = (
{
name = bottom;
position = "{612, -240}";
},
{
name = center;
position = "{592, 700}";
},
{
name = top;
position = "{646, 1400}";
}
);
layerId = m006;
paths = (
{
closed = 1;
nodes = (
"898 -240 OFFCURVE",
"934 -200 OFFCURVE",
"938 -120 CURVE SMOOTH",
"998 1280 LINE SMOOTH",
"1002 1360 OFFCURVE",
"958 1400 OFFCURVE",
"878 1400 CURVE SMOOTH",
"368 1400 LINE",
"368 -240 LINE",
"818 -240 LINE SMOOTH"
);
},
{
closed = 0;
nodes = (
"708 1400 LINE",
"68 1400 LINE"
);
},
{
closed = 0;
nodes = (
"948 120 LINE SMOOTH",
"948 52 OFFCURVE",
"1000 0 OFFCURVE",
"1066 0 CURVE SMOOTH {name = instroke_raise;}",
"1216 0 LINE"
);
}
);
width = 1216;
},
{
anchors = (
{
name = bottom;
position = "{612, -240}";
},
{
name = center;
position = "{592, 700}";
},
{
name = top;
position = "{646, 1400}";
}
);
layerId = m007;
paths = (
{
closed = 1;
nodes = (
"898 -240 OFFCURVE",
"934 -200 OFFCURVE",
"938 -120 CURVE SMOOTH",
"998 1280 LINE SMOOTH",
"1002 1360 OFFCURVE",
"958 1400 OFFCURVE",
"878 1400 CURVE SMOOTH",
"368 1400 LINE",
"368 -240 LINE",
"818 -240 LINE SMOOTH"
);
},
{
closed = 0;
nodes = (
"708 1400 LINE",
"68 1400 LINE"
);
},
{
closed = 0;
nodes = (
"948 120 LINE SMOOTH",
"948 52 OFFCURVE",
"1000 0 OFFCURVE",
"1066 0 CURVE SMOOTH {name = instroke_raise;}",
"1216 0 LINE"
);
}
);
width = 1216;
},
{
anchors = (
{
name = bottom;
position = "{612, -240}";
},
{
name = center;
position = "{592, 700}";
},
{
name = top;
position = "{646, 1400}";
}
);
layerId = m008;
paths = (
{
closed = 1;
nodes = (
"898 -240 OFFCURVE",
"934 -200 OFFCURVE",
"938 -120 CURVE SMOOTH",
"998 1280 LINE SMOOTH",
"1002 1360 OFFCURVE",
"958 1400 OFFCURVE",
"878 1400 CURVE SMOOTH",
"368 1400 LINE",
"368 -240 LINE",
"818 -240 LINE SMOOTH"
);
},
{
closed = 0;
nodes = (
"708 1400 LINE",
"68 1400 LINE"
);
},
{
closed = 0;
nodes = (
"948 120 LINE SMOOTH",
"948 52 OFFCURVE",
"1000 0 OFFCURVE",
"1066 0 CURVE SMOOTH {name = instroke_raise;}",
"1216 0 LINE"
);
}
);
width = 1216;
}
);
leftKerningGroup = D;
rightKerningGroup = D;
unicode = 0044;
},
{
glyphname = Eth;
lastChange = "2021-04-29 02:47:43 +0000";
layers = (
{
anchors = (
{
name = bottom;
position = "{612, -240}";
},
{
name = center;
position = "{592, 700}";
},
{
name = top;
position = "{646, 1400}";
}
);
layerId = m003;
paths = (
{
closed = 1;
nodes = (
"898 -240 OFFCURVE",
"934 -200 OFFCURVE",
"938 -120 CURVE SMOOTH",
"998 1280 LINE SMOOTH",
"1002 1360 OFFCURVE",
"958 1400 OFFCURVE",
"878 1400 CURVE SMOOTH",
"368 1400 LINE",
"368 -240 LINE",
"818 -240 LINE SMOOTH"
);
},
{
closed = 0;
nodes = (
"708 1400 LINE",
"68 1400 LINE"
);
},
{
closed = 0;
nodes = (
"948 120 LINE SMOOTH",
"948 52 OFFCURVE",
"1000 0 OFFCURVE",
"1066 0 CURVE SMOOTH {name = instroke_raise;}",
"1216 0 LINE"
);
},
{
closed = 0;
nodes = (
"70 478 LINE",
"668 478 LINE"
);
}
);
width = 1216;
},
{
anchors = (
{
name = bottom;
position = "{612, -240}";
},
{
name = center;
position = "{592, 700}";
},
{
name = top;
position = "{646, 1400}";
}
);
layerId = m002;
paths = (
{
closed = 1;
nodes = (
"898 -240 OFFCURVE",
"934 -200 OFFCURVE",
"938 -120 CURVE SMOOTH",
"998 1280 LINE SMOOTH",
"1002 1360 OFFCURVE",
"958 1400 OFFCURVE",
"878 1400 CURVE SMOOTH",
"368 1400 LINE",
"368 -240 LINE",
"818 -240 LINE SMOOTH"
);
},
{
closed = 0;
nodes = (
"708 1400 LINE",
"68 1400 LINE"
);
},
{
closed = 0;
nodes = (
"948 120 LINE SMOOTH",
"948 52 OFFCURVE",
"1000 0 OFFCURVE",
"1066 0 CURVE SMOOTH {name = instroke_raise;}",
"1216 0 LINE"
);
},
{
closed = 0;
nodes = (
"70 478 LINE",
"668 478 LINE"
);
}
);
width = 1216;
},
{
anchors = (
{
name = bottom;
position = "{612, -240}";
},
{
name = center;
position = "{592, 700}";
},
{
name = top;
position = "{646, 1400}";
}
);
layerId = m004;
paths = (
{
closed = 1;
nodes = (
"898 -240 OFFCURVE",
"934 -200 OFFCURVE",
"938 -120 CURVE SMOOTH",
"998 1280 LINE SMOOTH",
"1002 1360 OFFCURVE",
"958 1400 OFFCURVE",
"878 1400 CURVE SMOOTH",
"368 1400 LINE",
"368 -240 LINE",
"818 -240 LINE SMOOTH"
);
},
{
closed = 0;
nodes = (
"708 1400 LINE",
"68 1400 LINE"
);
},
{
closed = 0;
nodes = (
"948 120 LINE SMOOTH",
"948 52 OFFCURVE",
"1000 0 OFFCURVE",
"1066 0 CURVE SMOOTH {name = instroke_raise;}",
"1216 0 LINE"
);
},
{
closed = 0;
nodes = (
"70 478 LINE",
"668 478 LINE"
);
}
);
width = 1216;
},
{
anchors = (
{
name = bottom;
position = "{612, -240}";
},
{
name = center;
position = "{592, 700}";
},
{
name = top;
position = "{646, 1400}";
}
);
layerId = m005;
paths = (
{
closed = 1;
nodes = (
"898 -240 OFFCURVE",
"934 -200 OFFCURVE",
"938 -120 CURVE SMOOTH",
"998 1280 LINE SMOOTH",
"1002 1360 OFFCURVE",
"958 1400 OFFCURVE",
"878 1400 CURVE SMOOTH",
"368 1400 LINE",
"368 -240 LINE",
"818 -240 LINE SMOOTH"
);
},
{
closed = 0;
nodes = (
"708 1400 LINE",
"68 1400 LINE"
);
},
{
closed = 0;
nodes = (
"948 120 LINE SMOOTH",
"948 52 OFFCURVE",
"1000 0 OFFCURVE",
"1066 0 CURVE SMOOTH {name = instroke_raise;}",
"1216 0 LINE"
);
},
{
closed = 0;
nodes = (
"70 478 LINE",
"668 478 LINE"
);
}
);
width = 1216;
},
{
anchors = (
{
name = bottom;
position = "{612, -240}";
},
{
name = center;
position = "{592, 700}";
},
{
name = top;
position = "{646, 1400}";
}
);
layerId = m006;
paths = (
{
closed = 1;
nodes = (
"898 -240 OFFCURVE",
"934 -200 OFFCURVE",
"938 -120 CURVE SMOOTH",
"998 1280 LINE SMOOTH",
"1002 1360 OFFCURVE",
"958 1400 OFFCURVE",
"878 1400 CURVE SMOOTH",
"368 1400 LINE",
"368 -240 LINE",
"818 -240 LINE SMOOTH"
);
},
{
closed = 0;
nodes = (
"708 1400 LINE",
"68 1400 LINE"
);
},
{
closed = 0;
nodes = (
"948 120 LINE SMOOTH",
"948 52 OFFCURVE",
"1000 0 OFFCURVE",
"1066 0 CURVE SMOOTH {name = instroke_raise;}",
"1216 0 LINE"
);
},
{
closed = 0;
nodes = (
"70 478 LINE",
"668 478 LINE"
);
}
);
width = 1216;
},
{
anchors = (
{
name = bottom;
position = "{612, -240}";
},
{
name = center;
position = "{592, 700}";
},
{
name = top;
position = "{646, 1400}";
}
);
layerId = m007;
paths = (
{
closed = 1;
nodes = (
"898 -240 OFFCURVE",
"934 -200 OFFCURVE",
"938 -120 CURVE SMOOTH",
"998 1280 LINE SMOOTH",
"1002 1360 OFFCURVE",
"958 1400 OFFCURVE",
"878 1400 CURVE SMOOTH",
"368 1400 LINE",
"368 -240 LINE",
"818 -240 LINE SMOOTH"
);
},
{
closed = 0;
nodes = (
"708 1400 LINE",
"68 1400 LINE"
);
},
{
closed = 0;
nodes = (
"948 120 LINE SMOOTH",
"948 52 OFFCURVE",
"1000 0 OFFCURVE",
"1066 0 CURVE SMOOTH {name = instroke_raise;}",
"1216 0 LINE"
);
},
{
closed = 0;
nodes = (
"70 478 LINE",
"668 478 LINE"
);
}
);
width = 1216;
},
{
anchors = (
{
name = bottom;
position = "{612, -240}";
},
{
name = center;
position = "{592, 700}";
},
{
name = top;
position = "{646, 1400}";
}
);
layerId = m008;
paths = (
{
closed = 1;
nodes = (
"898 -240 OFFCURVE",
"934 -200 OFFCURVE",
"938 -120 CURVE SMOOTH",
"998 1280 LINE SMOOTH",
"1002 1360 OFFCURVE",
"958 1400 OFFCURVE",
"878 1400 CURVE SMOOTH",
"368 1400 LINE",
"368 -240 LINE",
"818 -240 LINE SMOOTH"
);
},
{
closed = 0;
nodes = (
"708 1400 LINE",
"68 1400 LINE"
);
},
{
closed = 0;
nodes = (
"948 120 LINE SMOOTH",
"948 52 OFFCURVE",
"1000 0 OFFCURVE",
"1066 0 CURVE SMOOTH {name = instroke_raise;}",
"1216 0 LINE"
);
},
{
closed = 0;
nodes = (
"70 478 LINE",
"668 478 LINE"
);
}
);
width = 1216;
}
);
leftKerningGroup = D;
rightKerningGroup = D;
unicode = 00D0;
},
{
glyphname = E;
lastChange = "2021-04-29 02:47:43 +0000";
layers = (
{
anchors = (
{
name = bottom;
position = "{560, -240}";
},
{
name = ogonek;
position = "{900, -240}";
},
{
name = top;
position = "{634, 1400}";
},
{
name = topleft;
position = "{-10, 1400}";
}
);
layerId = m003;
paths = (
{
closed = 0;
nodes = (
"630 460 LINE",
"370 460 LINE",
"294 460 OFFCURVE",
"250 416 OFFCURVE",
"250 340 CURVE SMOOTH",
"250 -120 LINE SMOOTH",
"250 -196 OFFCURVE",
"294 -240 OFFCURVE",
"370 -240 CURVE",
"710 -240 LINE",
"832 -240 OFFCURVE",
"900 -172 OFFCURVE",
"900 -50 CURVE",
"900 220 LINE"
);
},
{
closed = 0;
nodes = (
"860 860 LINE",
"900 1280 LINE SMOOTH",
"907 1356 OFFCURVE",
"866 1400 OFFCURVE",
"780 1400 CURVE SMOOTH",
"490 1400 LINE SMOOTH",
"414 1400 OFFCURVE",
"370 1356 OFFCURVE",
"370 1280 CURVE SMOOTH",
"370 580 LINE",
"370 504 OFFCURVE",
"414 460 OFFCURVE",
"490 460 CURVE"
);
},
{
closed = 0;
nodes = (
"900 120 LINE SMOOTH",
"900 44 OFFCURVE",
"942 0 OFFCURVE",
"1018 0 CURVE SMOOTH {name = instroke_raise;}",
"1128 0 LINE"
);
}
);
width = 1128;
},
{
anchors = (
{
name = bottom;
position = "{560, -240}";
},
{
name = ogonek;
position = "{900, -240}";
},
{
name = top;
position = "{634, 1400}";
},
{
name = topleft;
position = "{-10, 1400}";
}
);
layerId = m002;
paths = (
{
closed = 0;
nodes = (
"630 460 LINE",
"370 460 LINE",
"294 460 OFFCURVE",
"250 416 OFFCURVE",
"250 340 CURVE SMOOTH",
"250 -120 LINE SMOOTH",
"250 -196 OFFCURVE",
"294 -240 OFFCURVE",
"370 -240 CURVE",
"710 -240 LINE",
"832 -240 OFFCURVE",
"900 -172 OFFCURVE",
"900 -50 CURVE",
"900 220 LINE"
);
},
{
closed = 0;
nodes = (
"860 860 LINE",
"900 1280 LINE SMOOTH",
"907 1356 OFFCURVE",
"866 1400 OFFCURVE",
"780 1400 CURVE SMOOTH",
"490 1400 LINE SMOOTH",
"414 1400 OFFCURVE",
"370 1356 OFFCURVE",
"370 1280 CURVE SMOOTH",
"370 580 LINE",
"370 504 OFFCURVE",
"414 460 OFFCURVE",
"490 460 CURVE"
);
},
{
closed = 0;
nodes = (
"900 120 LINE SMOOTH",
"900 44 OFFCURVE",
"942 0 OFFCURVE",
"1018 0 CURVE SMOOTH {name = instroke_raise;}",
"1128 0 LINE"
);
}
);
width = 1128;
},
{
anchors = (
{
name = bottom;
position = "{560, -240}";
},
{
name = ogonek;
position = "{900, -240}";
},
{
name = top;
position = "{634, 1400}";
},
{
name = topleft;
position = "{-10, 1400}";
}
);
layerId = m004;
paths = (
{
closed = 0;
nodes = (
"630 460 LINE",
"370 460 LINE",
"294 460 OFFCURVE",
"250 416 OFFCURVE",
"250 340 CURVE SMOOTH",
"250 -120 LINE SMOOTH",
"250 -196 OFFCURVE",
"294 -240 OFFCURVE",
"370 -240 CURVE",
"710 -240 LINE",
"832 -240 OFFCURVE",
"900 -172 OFFCURVE",
"900 -50 CURVE",
"900 220 LINE"
);
},
{
closed = 0;
nodes = (
"860 860 LINE",
"900 1280 LINE SMOOTH",
"907 1356 OFFCURVE",
"866 1400 OFFCURVE",
"780 1400 CURVE SMOOTH",
"490 1400 LINE SMOOTH",
"414 1400 OFFCURVE",
"370 1356 OFFCURVE",
"370 1280 CURVE SMOOTH",
"370 580 LINE",
"370 504 OFFCURVE",
"414 460 OFFCURVE",
"490 460 CURVE"
);
},
{
closed = 0;
nodes = (
"900 120 LINE SMOOTH",
"900 44 OFFCURVE",
"942 0 OFFCURVE",
"1018 0 CURVE SMOOTH {name = instroke_raise;}",
"1128 0 LINE"
);
}
);
width = 1128;
},
{
anchors = (
{
name = bottom;
position = "{560, -240}";
},
{
name = ogonek;
position = "{900, -240}";
},
{
name = top;
position = "{634, 1400}";
},
{
name = topleft;
position = "{-10, 1400}";
}
);
layerId = m005;
paths = (
{
closed = 0;
nodes = (
"630 460 LINE",
"370 460 LINE",
"294 460 OFFCURVE",
"250 416 OFFCURVE",
"250 340 CURVE SMOOTH",
"250 -120 LINE SMOOTH",
"250 -196 OFFCURVE",
"294 -240 OFFCURVE",
"370 -240 CURVE",
"710 -240 LINE",
"832 -240 OFFCURVE",
"900 -172 OFFCURVE",
"900 -50 CURVE",
"900 220 LINE"
);
},
{
closed = 0;
nodes = (
"860 860 LINE",
"900 1280 LINE SMOOTH",
"907 1356 OFFCURVE",
"866 1400 OFFCURVE",
"780 1400 CURVE SMOOTH",
"490 1400 LINE SMOOTH",
"414 1400 OFFCURVE",
"370 1356 OFFCURVE",
"370 1280 CURVE SMOOTH",
"370 580 LINE",
"370 504 OFFCURVE",
"414 460 OFFCURVE",
"490 460 CURVE"
);
},
{
closed = 0;
nodes = (
"900 120 LINE SMOOTH",
"900 44 OFFCURVE",
"942 0 OFFCURVE",
"1018 0 CURVE SMOOTH {name = instroke_raise;}",
"1128 0 LINE"
);
}
);
width = 1128;
},
{
anchors = (
{
name = bottom;
position = "{560, -240}";
},
{
name = ogonek;
position = "{900, -240}";
},
{
name = top;
position = "{634, 1400}";
},
{
name = topleft;
position = "{-10, 1400}";
}
);
layerId = m006;
paths = (
{
closed = 0;
nodes = (
"630 460 LINE",
"370 460 LINE",
"294 460 OFFCURVE",
"250 416 OFFCURVE",
"250 340 CURVE SMOOTH",
"250 -120 LINE SMOOTH",
"250 -196 OFFCURVE",
"294 -240 OFFCURVE",
"370 -240 CURVE",
"710 -240 LINE",
"832 -240 OFFCURVE",
"900 -172 OFFCURVE",
"900 -50 CURVE",
"900 220 LINE"
);
},
{
closed = 0;
nodes = (
"860 860 LINE",
"900 1280 LINE SMOOTH",
"907 1356 OFFCURVE",
"866 1400 OFFCURVE",
"780 1400 CURVE SMOOTH",
"490 1400 LINE SMOOTH",
"414 1400 OFFCURVE",
"370 1356 OFFCURVE",
"370 1280 CURVE SMOOTH",
"370 580 LINE",
"370 504 OFFCURVE",
"414 460 OFFCURVE",
"490 460 CURVE"
);
},
{
closed = 0;
nodes = (
"900 120 LINE SMOOTH",
"900 44 OFFCURVE",
"942 0 OFFCURVE",
"1018 0 CURVE SMOOTH {name = instroke_raise;}",
"1128 0 LINE"
);
}
);
width = 1128;
},
{
anchors = (
{
name = bottom;
position = "{560, -240}";
},
{
name = ogonek;
position = "{900, -240}";
},
{
name = top;
position = "{634, 1400}";
},
{
name = topleft;
position = "{-10, 1400}";
}
);
layerId = m007;
paths = (
{
closed = 0;
nodes = (
"630 460 LINE",
"370 460 LINE",
"294 460 OFFCURVE",
"250 416 OFFCURVE",
"250 340 CURVE SMOOTH",
"250 -120 LINE SMOOTH",
"250 -196 OFFCURVE",
"294 -240 OFFCURVE",
"370 -240 CURVE",
"710 -240 LINE",
"832 -240 OFFCURVE",
"900 -172 OFFCURVE",
"900 -50 CURVE",
"900 220 LINE"
);
},
{
closed = 0;
nodes = (
"860 860 LINE",
"900 1280 LINE SMOOTH",
"907 1356 OFFCURVE",
"866 1400 OFFCURVE",
"780 1400 CURVE SMOOTH",
"490 1400 LINE SMOOTH",
"414 1400 OFFCURVE",
"370 1356 OFFCURVE",
"370 1280 CURVE SMOOTH",
"370 580 LINE",
"370 504 OFFCURVE",
"414 460 OFFCURVE",
"490 460 CURVE"
);
},
{
closed = 0;
nodes = (
"900 120 LINE SMOOTH",
"900 44 OFFCURVE",
"942 0 OFFCURVE",
"1018 0 CURVE SMOOTH {name = instroke_raise;}",
"1128 0 LINE"
);
}
);
width = 1128;
},
{
anchors = (
{
name = bottom;
position = "{560, -240}";
},
{
name = ogonek;
position = "{900, -240}";
},
{
name = top;
position = "{634, 1400}";
},
{
name = topleft;
position = "{-10, 1400}";
}
);
layerId = m008;
paths = (
{
closed = 0;
nodes = (
"630 460 LINE",
"370 460 LINE",
"294 460 OFFCURVE",
"250 416 OFFCURVE",
"250 340 CURVE SMOOTH",
"250 -120 LINE SMOOTH",
"250 -196 OFFCURVE",
"294 -240 OFFCURVE",
"370 -240 CURVE",
"710 -240 LINE",
"832 -240 OFFCURVE",
"900 -172 OFFCURVE",
"900 -50 CURVE",
"900 220 LINE"
);
},
{
closed = 0;
nodes = (
"860 860 LINE",
"900 1280 LINE SMOOTH",
"907 1356 OFFCURVE",
"866 1400 OFFCURVE",
"780 1400 CURVE SMOOTH",
"490 1400 LINE SMOOTH",
"414 1400 OFFCURVE",
"370 1356 OFFCURVE",
"370 1280 CURVE SMOOTH",
"370 580 LINE",
"370 504 OFFCURVE",
"414 460 OFFCURVE",
"490 460 CURVE"
);
},
{
closed = 0;
nodes = (
"900 120 LINE SMOOTH",
"900 44 OFFCURVE",
"942 0 OFFCURVE",
"1018 0 CURVE SMOOTH {name = instroke_raise;}",
"1128 0 LINE"
);
}
);
width = 1128;
}
);
leftKerningGroup = E;
rightKerningGroup = E;
unicode = 0045;
},
{
glyphname = F;
lastChange = "2021-04-29 02:47:43 +0000";
layers = (
{
anchors = (
{
name = bottom;
position = "{580, -240}";
},
{
name = top;
position = "{580, 1400}";
}
);
layerId = m003;
paths = (
{
closed = 0;
nodes = (
"410 -240 LINE",
"650 -240 LINE"
);
},
{
closed = 0;
nodes = (
"350 600 LINE",
"1070 600 LINE"
);
},
{
closed = 0;
nodes = (
"1070 1400 LINE",
"270 1400 LINE SMOOTH",
"188 1400 OFFCURVE",
"144 1356 OFFCURVE",
"150 1280 CURVE SMOOTH",
"170 980 LINE SMOOTH"
);
},
{
closed = 0;
nodes = (
"650 -240 LINE",
"726 -240 OFFCURVE",
"770 -196 OFFCURVE",
"770 -120 CURVE SMOOTH",
"770 1280 LINE SMOOTH",
"770 1356 OFFCURVE",
"814 1400 OFFCURVE",
"890 1400 CURVE"
);
}
);
width = 1210;
},
{
anchors = (
{
name = bottom;
position = "{580, -240}";
},
{
name = top;
position = "{580, 1400}";
}
);
layerId = m002;
paths = (
{
closed = 0;
nodes = (
"410 -240 LINE",
"650 -240 LINE"
);
},
{
closed = 0;
nodes = (
"350 600 LINE",
"1070 600 LINE"
);
},
{
closed = 0;
nodes = (
"1070 1400 LINE",
"270 1400 LINE SMOOTH",
"188 1400 OFFCURVE",
"144 1356 OFFCURVE",
"150 1280 CURVE SMOOTH",
"170 980 LINE SMOOTH"
);
},
{
closed = 0;
nodes = (
"650 -240 LINE",
"726 -240 OFFCURVE",
"770 -196 OFFCURVE",
"770 -120 CURVE SMOOTH",
"770 1280 LINE SMOOTH",
"770 1356 OFFCURVE",
"814 1400 OFFCURVE",
"890 1400 CURVE"
);
}
);
width = 1210;
},
{
anchors = (
{
name = bottom;
position = "{580, -240}";
},
{
name = top;
position = "{580, 1400}";
}
);
layerId = m004;
paths = (
{
closed = 0;
nodes = (
"410 -240 LINE",
"650 -240 LINE"
);
},
{
closed = 0;
nodes = (
"350 600 LINE",
"1070 600 LINE"
);
},
{
closed = 0;
nodes = (
"1070 1400 LINE",
"270 1400 LINE SMOOTH",
"188 1400 OFFCURVE",
"144 1356 OFFCURVE",
"150 1280 CURVE SMOOTH",
"170 980 LINE SMOOTH"
);
},
{
closed = 0;
nodes = (
"650 -240 LINE",
"726 -240 OFFCURVE",
"770 -196 OFFCURVE",
"770 -120 CURVE SMOOTH",
"770 1280 LINE SMOOTH",
"770 1356 OFFCURVE",
"814 1400 OFFCURVE",
"890 1400 CURVE"
);
}
);
width = 1210;
},
{
anchors = (
{
name = bottom;
position = "{580, -240}";
},
{
name = top;
position = "{580, 1400}";
}
);
layerId = m005;
paths = (
{
closed = 0;
nodes = (
"410 -240 LINE",
"650 -240 LINE"
);
},
{
closed = 0;
nodes = (
"350 600 LINE",
"1070 600 LINE"
);
},
{
closed = 0;
nodes = (
"1070 1400 LINE",
"270 1400 LINE SMOOTH",
"188 1400 OFFCURVE",
"144 1356 OFFCURVE",
"150 1280 CURVE SMOOTH",
"170 980 LINE SMOOTH"
);
},
{
closed = 0;
nodes = (
"650 -240 LINE",
"726 -240 OFFCURVE",
"770 -196 OFFCURVE",
"770 -120 CURVE SMOOTH",
"770 1280 LINE SMOOTH",
"770 1356 OFFCURVE",
"814 1400 OFFCURVE",
"890 1400 CURVE"
);
}
);
width = 1210;
},
{
anchors = (
{
name = bottom;
position = "{580, -240}";
},
{
name = top;
position = "{580, 1400}";
}
);
layerId = m006;
paths = (
{
closed = 0;
nodes = (
"410 -240 LINE",
"650 -240 LINE"
);
},
{
closed = 0;
nodes = (
"350 600 LINE",
"1070 600 LINE"
);
},
{
closed = 0;
nodes = (
"1070 1400 LINE",
"270 1400 LINE SMOOTH",
"188 1400 OFFCURVE",
"144 1356 OFFCURVE",
"150 1280 CURVE SMOOTH",
"170 980 LINE SMOOTH"
);
},
{
closed = 0;
nodes = (
"650 -240 LINE",
"726 -240 OFFCURVE",
"770 -196 OFFCURVE",
"770 -120 CURVE SMOOTH",
"770 1280 LINE SMOOTH",
"770 1356 OFFCURVE",
"814 1400 OFFCURVE",
"890 1400 CURVE"
);
}
);
width = 1210;
},
{
anchors = (
{
name = bottom;
position = "{580, -240}";
},
{
name = top;
position = "{580, 1400}";
}
);
layerId = m007;
paths = (
{
closed = 0;
nodes = (
"410 -240 LINE",
"650 -240 LINE"
);
},
{
closed = 0;
nodes = (
"350 600 LINE",
"1070 600 LINE"
);
},
{
closed = 0;
nodes = (
"1070 1400 LINE",
"270 1400 LINE SMOOTH",
"188 1400 OFFCURVE",
"144 1356 OFFCURVE",
"150 1280 CURVE SMOOTH",
"170 980 LINE SMOOTH"
);
},
{
closed = 0;
nodes = (
"650 -240 LINE",
"726 -240 OFFCURVE",
"770 -196 OFFCURVE",
"770 -120 CURVE SMOOTH",
"770 1280 LINE SMOOTH",
"770 1356 OFFCURVE",
"814 1400 OFFCURVE",
"890 1400 CURVE"
);
}
);
width = 1210;
},
{
anchors = (
{
name = bottom;
position = "{580, -240}";
},
{
name = top;
position = "{580, 1400}";
}
);
layerId = m008;
paths = (
{
closed = 0;
nodes = (
"410 -240 LINE",
"650 -240 LINE"
);
},
{
closed = 0;
nodes = (
"350 600 LINE",
"1070 600 LINE"
);
},
{
closed = 0;
nodes = (
"1070 1400 LINE",
"270 1400 LINE SMOOTH",
"188 1400 OFFCURVE",
"144 1356 OFFCURVE",
"150 1280 CURVE SMOOTH",
"170 980 LINE SMOOTH"
);
},
{
closed = 0;
nodes = (
"650 -240 LINE",
"726 -240 OFFCURVE",
"770 -196 OFFCURVE",
"770 -120 CURVE SMOOTH",
"770 1280 LINE SMOOTH",
"770 1356 OFFCURVE",
"814 1400 OFFCURVE",
"890 1400 CURVE"
);
}
);
width = 1210;
}
);
leftKerningGroup = T;
rightKerningGroup = F;
unicode = 0046;
},
{
glyphname = G;
lastChange = "2021-04-29 02:47:43 +0000";
layers = (
{
anchors = (
{
name = bottom;
position = "{514, -240}";
},
{
name = top;
position = "{534, 1400}";
}
);
layerId = m003;
paths = (
{
closed = 0;
nodes = (
"470 -240 LINE",
"730 -240 LINE SMOOTH",
"806 -240 OFFCURVE",
"850 -196 OFFCURVE",
"850 -120 CURVE SMOOTH",
"850 440 LINE"
);
},
{
closed = 0;
nodes = (
"850 120 LINE",
"850 52 OFFCURVE",
"902 0 OFFCURVE",
"968 0 CURVE SMOOTH {name = instroke_raise;}",
"1078 0 LINE"
);
},
{
closed = 0;
nodes = (
"778 794 LINE",
"810 1280 LINE SMOOTH",
"816 1362 OFFCURVE",
"770 1400 OFFCURVE",
"690 1400 CURVE SMOOTH",
"370 1400 LINE SMOOTH",
"290 1400 OFFCURVE",
"250 1360 OFFCURVE",
"250 1280 CURVE SMOOTH",
"250 340 LINE SMOOTH",
"250 264 OFFCURVE",
"294 220 OFFCURVE",
"370 220 CURVE",
"730 220 LINE",
"806 220 OFFCURVE",
"850 264 OFFCURVE",
"850 340 CURVE"
);
}
);
width = 1078;
},
{
anchors = (
{
name = bottom;
position = "{514, -240}";
},
{
name = top;
position = "{534, 1400}";
}
);
layerId = m002;
paths = (
{
closed = 0;
nodes = (
"470 -240 LINE",
"730 -240 LINE SMOOTH",
"806 -240 OFFCURVE",
"850 -196 OFFCURVE",
"850 -120 CURVE SMOOTH",
"850 440 LINE"
);
},
{
closed = 0;
nodes = (
"850 120 LINE",
"850 52 OFFCURVE",
"902 0 OFFCURVE",
"968 0 CURVE SMOOTH {name = instroke_raise;}",
"1078 0 LINE"
);
},
{
closed = 0;
nodes = (
"778 794 LINE",
"810 1280 LINE SMOOTH",
"816 1362 OFFCURVE",
"770 1400 OFFCURVE",
"690 1400 CURVE SMOOTH",
"370 1400 LINE SMOOTH",
"290 1400 OFFCURVE",
"250 1360 OFFCURVE",
"250 1280 CURVE SMOOTH",
"250 340 LINE SMOOTH",
"250 264 OFFCURVE",
"294 220 OFFCURVE",
"370 220 CURVE",
"730 220 LINE",
"806 220 OFFCURVE",
"850 264 OFFCURVE",
"850 340 CURVE"
);
}
);
width = 1078;
},
{
anchors = (
{
name = bottom;
position = "{514, -240}";
},
{
name = top;
position = "{534, 1400}";
}
);
layerId = m004;
paths = (
{
closed = 0;
nodes = (
"470 -240 LINE",
"730 -240 LINE SMOOTH",
"806 -240 OFFCURVE",
"850 -196 OFFCURVE",
"850 -120 CURVE SMOOTH",
"850 440 LINE"
);
},
{
closed = 0;
nodes = (
"850 120 LINE",
"850 52 OFFCURVE",
"902 0 OFFCURVE",
"968 0 CURVE SMOOTH {name = instroke_raise;}",
"1078 0 LINE"
);
},
{
closed = 0;
nodes = (
"778 794 LINE",
"810 1280 LINE SMOOTH",
"816 1362 OFFCURVE",
"770 1400 OFFCURVE",
"690 1400 CURVE SMOOTH",
"370 1400 LINE SMOOTH",
"290 1400 OFFCURVE",
"250 1360 OFFCURVE",
"250 1280 CURVE SMOOTH",
"250 340 LINE SMOOTH",
"250 264 OFFCURVE",
"294 220 OFFCURVE",
"370 220 CURVE",
"730 220 LINE",
"806 220 OFFCURVE",
"850 264 OFFCURVE",
"850 340 CURVE"
);
}
);
width = 1078;
},
{
anchors = (
{
name = bottom;
position = "{514, -240}";
},
{
name = top;
position = "{534, 1400}";
}
);
layerId = m005;
paths = (
{
closed = 0;
nodes = (
"470 -240 LINE",
"730 -240 LINE SMOOTH",
"806 -240 OFFCURVE",
"850 -196 OFFCURVE",
"850 -120 CURVE SMOOTH",
"850 440 LINE"
);
},
{
closed = 0;
nodes = (
"850 120 LINE",
"850 52 OFFCURVE",
"902 0 OFFCURVE",
"968 0 CURVE SMOOTH {name = instroke_raise;}",
"1078 0 LINE"
);
},
{
closed = 0;
nodes = (
"778 794 LINE",
"810 1280 LINE SMOOTH",
"816 1362 OFFCURVE",
"770 1400 OFFCURVE",
"690 1400 CURVE SMOOTH",
"370 1400 LINE SMOOTH",
"290 1400 OFFCURVE",
"250 1360 OFFCURVE",
"250 1280 CURVE SMOOTH",
"250 340 LINE SMOOTH",
"250 264 OFFCURVE",
"294 220 OFFCURVE",
"370 220 CURVE",
"730 220 LINE",
"806 220 OFFCURVE",
"850 264 OFFCURVE",
"850 340 CURVE"
);
}
);
width = 1078;
},
{
anchors = (
{
name = bottom;
position = "{514, -240}";
},
{
name = top;
position = "{534, 1400}";
}
);
layerId = m006;
paths = (
{
closed = 0;
nodes = (
"470 -240 LINE",
"730 -240 LINE SMOOTH",
"806 -240 OFFCURVE",
"850 -196 OFFCURVE",
"850 -120 CURVE SMOOTH",
"850 440 LINE"
);
},
{
closed = 0;
nodes = (
"850 120 LINE",
"850 52 OFFCURVE",
"902 0 OFFCURVE",
"968 0 CURVE SMOOTH {name = instroke_raise;}",
"1078 0 LINE"
);
},
{
closed = 0;
nodes = (
"778 794 LINE",
"810 1280 LINE SMOOTH",
"816 1362 OFFCURVE",
"770 1400 OFFCURVE",
"690 1400 CURVE SMOOTH",
"370 1400 LINE SMOOTH",
"290 1400 OFFCURVE",
"250 1360 OFFCURVE",
"250 1280 CURVE SMOOTH",
"250 340 LINE SMOOTH",
"250 264 OFFCURVE",
"294 220 OFFCURVE",
"370 220 CURVE",
"730 220 LINE",
"806 220 OFFCURVE",
"850 264 OFFCURVE",
"850 340 CURVE"
);
}
);
width = 1078;
},
{
anchors = (
{
name = bottom;
position = "{514, -240}";
},
{
name = top;
position = "{534, 1400}";
}
);
layerId = m007;
paths = (
{
closed = 0;
nodes = (
"470 -240 LINE",
"730 -240 LINE SMOOTH",
"806 -240 OFFCURVE",
"850 -196 OFFCURVE",
"850 -120 CURVE SMOOTH",
"850 440 LINE"
);
},
{
closed = 0;
nodes = (
"850 120 LINE",
"850 52 OFFCURVE",
"902 0 OFFCURVE",
"968 0 CURVE SMOOTH {name = instroke_raise;}",
"1078 0 LINE"
);
},
{
closed = 0;
nodes = (
"778 794 LINE",
"810 1280 LINE SMOOTH",
"816 1362 OFFCURVE",
"770 1400 OFFCURVE",
"690 1400 CURVE SMOOTH",
"370 1400 LINE SMOOTH",
"290 1400 OFFCURVE",
"250 1360 OFFCURVE",
"250 1280 CURVE SMOOTH",
"250 340 LINE SMOOTH",
"250 264 OFFCURVE",
"294 220 OFFCURVE",
"370 220 CURVE",
"730 220 LINE",
"806 220 OFFCURVE",
"850 264 OFFCURVE",
"850 340 CURVE"
);
}
);
width = 1078;
},
{
anchors = (
{
name = bottom;
position = "{514, -240}";
},
{
name = top;
position = "{534, 1400}";
}
);
layerId = m008;
paths = (
{
closed = 0;
nodes = (
"470 -240 LINE",
"730 -240 LINE SMOOTH",
"806 -240 OFFCURVE",
"850 -196 OFFCURVE",
"850 -120 CURVE SMOOTH",
"850 440 LINE"
);
},
{
closed = 0;
nodes = (
"850 120 LINE",
"850 52 OFFCURVE",
"902 0 OFFCURVE",
"968 0 CURVE SMOOTH {name = instroke_raise;}",
"1078 0 LINE"
);
},
{
closed = 0;
nodes = (
"778 794 LINE",
"810 1280 LINE SMOOTH",
"816 1362 OFFCURVE",
"770 1400 OFFCURVE",
"690 1400 CURVE SMOOTH",
"370 1400 LINE SMOOTH",
"290 1400 OFFCURVE",
"250 1360 OFFCURVE",
"250 1280 CURVE SMOOTH",
"250 340 LINE SMOOTH",
"250 264 OFFCURVE",
"294 220 OFFCURVE",
"370 220 CURVE",
"730 220 LINE",
"806 220 OFFCURVE",
"850 264 OFFCURVE",
"850 340 CURVE"
);
}
);
width = 1078;
}
);
leftKerningGroup = G;
rightKerningGroup = G;
unicode = 0047;
},
{
glyphname = H;
lastChange = "2021-04-29 02:47:43 +0000";
layers = (
{
anchors = (
{
name = bottom;
position = "{782, 0}";
},
{
name = center;
position = "{622, 700}";
},
{
name = top;
position = "{722, 1400}";
},
{
name = topleft;
position = "{8, 1400}";
}
);
layerId = m003;
paths = (
{
closed = 0;
nodes = (
"68 1400 LINE",
"356 1400 LINE"
);
},
{
closed = 0;
nodes = (
"1028 1400 LINE",
"1028 120 LINE SMOOTH",
"1028 52 OFFCURVE",
"1080 0 OFFCURVE",
"1146 0 CURVE SMOOTH {name = instroke_raise;}",
"1276 0 LINE"
);
},
{
closed = 0;
nodes = (
"70 478 LINE",
"1028 478 LINE"
);
},
{
closed = 0;
nodes = (
"348 1400 LINE",
"424 1400 OFFCURVE",
"468 1356 OFFCURVE",
"468 1280 CURVE SMOOTH",
"468 -240 LINE"
);
}
);
width = 1276;
},
{
anchors = (
{
name = bottom;
position = "{782, 0}";
},
{
name = center;
position = "{622, 700}";
},
{
name = top;
position = "{722, 1400}";
},
{
name = topleft;
position = "{8, 1400}";
}
);
layerId = m002;
paths = (
{
closed = 0;
nodes = (
"68 1400 LINE",
"356 1400 LINE"
);
},
{
closed = 0;
nodes = (
"1028 1400 LINE",
"1028 120 LINE SMOOTH",
"1028 52 OFFCURVE",
"1080 0 OFFCURVE",
"1146 0 CURVE SMOOTH {name = instroke_raise;}",
"1276 0 LINE"
);
},
{
closed = 0;
nodes = (
"70 478 LINE",
"1028 478 LINE"
);
},
{
closed = 0;
nodes = (
"348 1400 LINE",
"424 1400 OFFCURVE",
"468 1356 OFFCURVE",
"468 1280 CURVE SMOOTH",
"468 -240 LINE"
);
}
);
width = 1276;
},
{
anchors = (
{
name = bottom;
position = "{782, 0}";
},
{
name = center;
position = "{622, 700}";
},
{
name = top;
position = "{722, 1400}";
},
{
name = topleft;
position = "{8, 1400}";
}
);
layerId = m004;
paths = (
{
closed = 0;
nodes = (
"68 1400 LINE",
"356 1400 LINE"
);
},
{
closed = 0;
nodes = (
"1028 1400 LINE",
"1028 120 LINE SMOOTH",
"1028 52 OFFCURVE",
"1080 0 OFFCURVE",
"1146 0 CURVE SMOOTH {name = instroke_raise;}",
"1276 0 LINE"
);
},
{
closed = 0;
nodes = (
"70 478 LINE",
"1028 478 LINE"
);
},
{
closed = 0;
nodes = (
"348 1400 LINE",
"424 1400 OFFCURVE",
"468 1356 OFFCURVE",
"468 1280 CURVE SMOOTH",
"468 -240 LINE"
);
}
);
width = 1276;
},
{
anchors = (
{
name = bottom;
position = "{782, 0}";
},
{
name = center;
position = "{622, 700}";
},
{
name = top;
position = "{722, 1400}";
},
{
name = topleft;
position = "{8, 1400}";
}
);
layerId = m005;
paths = (
{
closed = 0;
nodes = (
"68 1400 LINE",
"356 1400 LINE"
);
},
{
closed = 0;
nodes = (
"1028 1400 LINE",
"1028 120 LINE SMOOTH",
"1028 52 OFFCURVE",
"1080 0 OFFCURVE",
"1146 0 CURVE SMOOTH {name = instroke_raise;}",
"1276 0 LINE"
);
},
{
closed = 0;
nodes = (
"70 478 LINE",
"1028 478 LINE"
);
},
{
closed = 0;
nodes = (
"348 1400 LINE",
"424 1400 OFFCURVE",
"468 1356 OFFCURVE",
"468 1280 CURVE SMOOTH",
"468 -240 LINE"
);
}
);
width = 1276;
},
{
anchors = (
{
name = bottom;
position = "{782, 0}";
},
{
name = center;
position = "{622, 700}";
},
{
name = top;
position = "{722, 1400}";
},
{
name = topleft;
position = "{8, 1400}";
}
);
layerId = m006;
paths = (
{
closed = 0;
nodes = (
"68 1400 LINE",
"356 1400 LINE"
);
},
{
closed = 0;
nodes = (
"1028 1400 LINE",
"1028 120 LINE SMOOTH",
"1028 52 OFFCURVE",
"1080 0 OFFCURVE",
"1146 0 CURVE SMOOTH {name = instroke_raise;}",
"1276 0 LINE"
);
},
{
closed = 0;
nodes = (
"70 478 LINE",
"1028 478 LINE"
);
},
{
closed = 0;
nodes = (
"348 1400 LINE",
"424 1400 OFFCURVE",
"468 1356 OFFCURVE",
"468 1280 CURVE SMOOTH",
"468 -240 LINE"
);
}
);
width = 1276;
},
{
anchors = (
{
name = bottom;
position = "{782, 0}";
},
{
name = center;
position = "{622, 700}";
},
{
name = top;
position = "{722, 1400}";
},
{
name = topleft;
position = "{8, 1400}";
}
);
layerId = m007;
paths = (
{
closed = 0;
nodes = (
"68 1400 LINE",
"356 1400 LINE"
);
},
{
closed = 0;
nodes = (
"1028 1400 LINE",
"1028 120 LINE SMOOTH",
"1028 52 OFFCURVE",
"1080 0 OFFCURVE",
"1146 0 CURVE SMOOTH {name = instroke_raise;}",
"1276 0 LINE"
);
},
{
closed = 0;
nodes = (
"70 478 LINE",
"1028 478 LINE"
);
},
{
closed = 0;
nodes = (
"348 1400 LINE",
"424 1400 OFFCURVE",
"468 1356 OFFCURVE",
"468 1280 CURVE SMOOTH",
"468 -240 LINE"
);
}
);
width = 1276;
},
{
anchors = (
{
name = bottom;
position = "{782, 0}";
},
{
name = center;
position = "{622, 700}";
},
{
name = top;
position = "{722, 1400}";
},
{
name = topleft;
position = "{8, 1400}";
}
);
layerId = m008;
paths = (
{
closed = 0;
nodes = (
"68 1400 LINE",
"356 1400 LINE"
);
},
{
closed = 0;
nodes = (
"1028 1400 LINE",
"1028 120 LINE SMOOTH",
"1028 52 OFFCURVE",
"1080 0 OFFCURVE",
"1146 0 CURVE SMOOTH {name = instroke_raise;}",
"1276 0 LINE"
);
},
{
closed = 0;
nodes = (
"70 478 LINE",
"1028 478 LINE"
);
},
{
closed = 0;
nodes = (
"348 1400 LINE",
"424 1400 OFFCURVE",
"468 1356 OFFCURVE",
"468 1280 CURVE SMOOTH",
"468 -240 LINE"
);
}
);
width = 1276;
}
);
leftKerningGroup = H;
rightKerningGroup = H;
unicode = 0048;
},
{
glyphname = Hbar;
lastChange = "2021-04-29 02:47:43 +0000";
layers = (
{
layerId = m003;
paths = (
{
closed = 0;
nodes = (
"68 1400 LINE",
"356 1400 LINE"
);
},
{
closed = 0;
nodes = (
"1028 1400 LINE",
"1028 120 LINE SMOOTH",
"1028 52 OFFCURVE",
"1080 0 OFFCURVE",
"1146 0 CURVE SMOOTH {name = instroke_raise;}",
"1276 0 LINE"
);
},
{
closed = 0;
nodes = (
"70 478 LINE",
"1028 478 LINE"
);
},
{
closed = 0;
nodes = (
"348 1400 LINE",
"424 1400 OFFCURVE",
"468 1356 OFFCURVE",
"468 1280 CURVE SMOOTH",
"468 -240 LINE"
);
},
{
closed = 0;
nodes = (
"70 958 LINE",
"1196 958 LINE"
);
}
);
width = 1276;
},
{
layerId = m002;
paths = (
{
closed = 0;
nodes = (
"68 1400 LINE",
"356 1400 LINE"
);
},
{
closed = 0;
nodes = (
"1028 1400 LINE",
"1028 120 LINE SMOOTH",
"1028 52 OFFCURVE",
"1080 0 OFFCURVE",
"1146 0 CURVE SMOOTH {name = instroke_raise;}",
"1276 0 LINE"
);
},
{
closed = 0;
nodes = (
"70 478 LINE",
"1028 478 LINE"
);
},
{
closed = 0;
nodes = (
"348 1400 LINE",
"424 1400 OFFCURVE",
"468 1356 OFFCURVE",
"468 1280 CURVE SMOOTH",
"468 -240 LINE"
);
},
{
closed = 0;
nodes = (
"70 958 LINE",
"1196 958 LINE"
);
}
);
width = 1276;
},
{
layerId = m004;
paths = (
{
closed = 0;
nodes = (
"68 1400 LINE",
"356 1400 LINE"
);
},
{
closed = 0;
nodes = (
"1028 1400 LINE",
"1028 120 LINE SMOOTH",
"1028 52 OFFCURVE",
"1080 0 OFFCURVE",
"1146 0 CURVE SMOOTH {name = instroke_raise;}",
"1276 0 LINE"
);
},
{
closed = 0;
nodes = (
"70 478 LINE",
"1028 478 LINE"
);
},
{
closed = 0;
nodes = (
"348 1400 LINE",
"424 1400 OFFCURVE",
"468 1356 OFFCURVE",
"468 1280 CURVE SMOOTH",
"468 -240 LINE"
);
},
{
closed = 0;
nodes = (
"70 958 LINE",
"1196 958 LINE"
);
}
);
width = 1276;
},
{
layerId = m005;
paths = (
{
closed = 0;
nodes = (
"68 1400 LINE",
"356 1400 LINE"
);
},
{
closed = 0;
nodes = (
"1028 1400 LINE",
"1028 120 LINE SMOOTH",
"1028 52 OFFCURVE",
"1080 0 OFFCURVE",
"1146 0 CURVE SMOOTH {name = instroke_raise;}",
"1276 0 LINE"
);
},
{
closed = 0;
nodes = (
"70 478 LINE",
"1028 478 LINE"
);
},
{
closed = 0;
nodes = (
"348 1400 LINE",
"424 1400 OFFCURVE",
"468 1356 OFFCURVE",
"468 1280 CURVE SMOOTH",
"468 -240 LINE"
);
},
{
closed = 0;
nodes = (
"70 958 LINE",
"1196 958 LINE"
);
}
);
width = 1276;
},
{
layerId = m006;
paths = (
{
closed = 0;
nodes = (
"68 1400 LINE",
"356 1400 LINE"
);
},
{
closed = 0;
nodes = (
"1028 1400 LINE",
"1028 120 LINE SMOOTH",
"1028 52 OFFCURVE",
"1080 0 OFFCURVE",
"1146 0 CURVE SMOOTH {name = instroke_raise;}",
"1276 0 LINE"
);
},
{
closed = 0;
nodes = (
"70 478 LINE",
"1028 478 LINE"
);
},
{
closed = 0;
nodes = (
"348 1400 LINE",
"424 1400 OFFCURVE",
"468 1356 OFFCURVE",
"468 1280 CURVE SMOOTH",
"468 -240 LINE"
);
},
{
closed = 0;
nodes = (
"70 958 LINE",
"1196 958 LINE"
);
}
);
width = 1276;
},
{
layerId = m007;
paths = (
{
closed = 0;
nodes = (
"68 1400 LINE",
"356 1400 LINE"
);
},
{
closed = 0;
nodes = (
"1028 1400 LINE",
"1028 120 LINE SMOOTH",
"1028 52 OFFCURVE",
"1080 0 OFFCURVE",
"1146 0 CURVE SMOOTH {name = instroke_raise;}",
"1276 0 LINE"
);
},
{
closed = 0;
nodes = (
"70 478 LINE",
"1028 478 LINE"
);
},
{
closed = 0;
nodes = (
"348 1400 LINE",
"424 1400 OFFCURVE",
"468 1356 OFFCURVE",
"468 1280 CURVE SMOOTH",
"468 -240 LINE"
);
},
{
closed = 0;
nodes = (
"70 958 LINE",
"1196 958 LINE"
);
}
);
width = 1276;
},
{
layerId = m008;
paths = (
{
closed = 0;
nodes = (
"68 1400 LINE",
"356 1400 LINE"
);
},
{
closed = 0;
nodes = (
"1028 1400 LINE",
"1028 120 LINE SMOOTH",
"1028 52 OFFCURVE",
"1080 0 OFFCURVE",
"1146 0 CURVE SMOOTH {name = instroke_raise;}",
"1276 0 LINE"
);
},
{
closed = 0;
nodes = (
"70 478 LINE",
"1028 478 LINE"
);
},
{
closed = 0;
nodes = (
"348 1400 LINE",
"424 1400 OFFCURVE",
"468 1356 OFFCURVE",
"468 1280 CURVE SMOOTH",
"468 -240 LINE"
);
},
{
closed = 0;
nodes = (
"70 958 LINE",
"1196 958 LINE"
);
}
);
width = 1276;
}
);
leftKerningGroup = H;
rightKerningGroup = H;
unicode = 0126;
},
{
glyphname = I;
lastChange = "2021-04-29 02:47:43 +0000";
layers = (
{
anchors = (
{
name = bottom;
position = "{416, -240}";
},
{
name = ogonek;
position = "{612, -240}";
},
{
name = top;
position = "{384, 1400}";
},
{
name = topleft;
position = "{12, 1400}";
}
);
layerId = m003;
paths = (
{
closed = 0;
nodes = (
"352 -240 LINE",
"492 -240 LINE",
"572 -240 OFFCURVE",
"612 -200 OFFCURVE",
"612 -120 CURVE SMOOTH",
"612 1280 LINE SMOOTH",
"612 1360 OFFCURVE",
"572 1400 OFFCURVE",
"492 1400 CURVE SMOOTH",
"272 1400 LINE SMOOTH",
"196 1400 OFFCURVE",
"144 1360 OFFCURVE",
"152 1280 CURVE SMOOTH",
"202 760 LINE SMOOTH"
);
},
{
closed = 0;
nodes = (
"612 120 LINE SMOOTH",
"612 52 OFFCURVE",
"664 0 OFFCURVE",
"730 0 CURVE SMOOTH {name = instroke_raise;}",
"860 0 LINE"
);
}
);
width = 860;
},
{
anchors = (
{
name = bottom;
position = "{416, -240}";
},
{
name = ogonek;
position = "{612, -240}";
},
{
name = top;
position = "{384, 1400}";
},
{
name = topleft;
position = "{12, 1400}";
}
);
layerId = m002;
paths = (
{
closed = 0;
nodes = (
"352 -240 LINE",
"492 -240 LINE",
"572 -240 OFFCURVE",
"612 -200 OFFCURVE",
"612 -120 CURVE SMOOTH",
"612 1280 LINE SMOOTH",
"612 1360 OFFCURVE",
"572 1400 OFFCURVE",
"492 1400 CURVE SMOOTH",
"272 1400 LINE SMOOTH",
"196 1400 OFFCURVE",
"144 1360 OFFCURVE",
"152 1280 CURVE SMOOTH",
"202 760 LINE SMOOTH"
);
},
{
closed = 0;
nodes = (
"612 120 LINE SMOOTH",
"612 52 OFFCURVE",
"664 0 OFFCURVE",
"730 0 CURVE SMOOTH {name = instroke_raise;}",
"860 0 LINE"
);
}
);
width = 860;
},
{
anchors = (
{
name = bottom;
position = "{416, -240}";
},
{
name = ogonek;
position = "{612, -240}";
},
{
name = top;
position = "{384, 1400}";
},
{
name = topleft;
position = "{12, 1400}";
}
);
layerId = m004;
paths = (
{
closed = 0;
nodes = (
"352 -240 LINE",
"492 -240 LINE",
"572 -240 OFFCURVE",
"612 -200 OFFCURVE",
"612 -120 CURVE SMOOTH",
"612 1280 LINE SMOOTH",
"612 1360 OFFCURVE",
"572 1400 OFFCURVE",
"492 1400 CURVE SMOOTH",
"272 1400 LINE SMOOTH",
"196 1400 OFFCURVE",
"144 1360 OFFCURVE",
"152 1280 CURVE SMOOTH",
"202 760 LINE SMOOTH"
);
},
{
closed = 0;
nodes = (
"612 120 LINE SMOOTH",
"612 52 OFFCURVE",
"664 0 OFFCURVE",
"730 0 CURVE SMOOTH {name = instroke_raise;}",
"860 0 LINE"
);
}
);
width = 860;
},
{
anchors = (
{
name = bottom;
position = "{416, -240}";
},
{
name = ogonek;
position = "{612, -240}";
},
{
name = top;
position = "{384, 1400}";
},
{
name = topleft;
position = "{12, 1400}";
}
);
layerId = m005;
paths = (
{
closed = 0;
nodes = (
"352 -240 LINE",
"492 -240 LINE",
"572 -240 OFFCURVE",
"612 -200 OFFCURVE",
"612 -120 CURVE SMOOTH",
"612 1280 LINE SMOOTH",
"612 1360 OFFCURVE",
"572 1400 OFFCURVE",
"492 1400 CURVE SMOOTH",
"272 1400 LINE SMOOTH",
"196 1400 OFFCURVE",
"144 1360 OFFCURVE",
"152 1280 CURVE SMOOTH",
"202 760 LINE SMOOTH"
);
},
{
closed = 0;
nodes = (
"612 120 LINE SMOOTH",
"612 52 OFFCURVE",
"664 0 OFFCURVE",
"730 0 CURVE SMOOTH {name = instroke_raise;}",
"860 0 LINE"
);
}
);
width = 860;
},
{
anchors = (
{
name = bottom;
position = "{416, -240}";
},
{
name = ogonek;
position = "{612, -240}";
},
{
name = top;
position = "{384, 1400}";
},
{
name = topleft;
position = "{12, 1400}";
}
);
layerId = m006;
paths = (
{
closed = 0;
nodes = (
"352 -240 LINE",
"492 -240 LINE",
"572 -240 OFFCURVE",
"612 -200 OFFCURVE",
"612 -120 CURVE SMOOTH",
"612 1280 LINE SMOOTH",
"612 1360 OFFCURVE",
"572 1400 OFFCURVE",
"492 1400 CURVE SMOOTH",
"272 1400 LINE SMOOTH",
"196 1400 OFFCURVE",
"144 1360 OFFCURVE",
"152 1280 CURVE SMOOTH",
"202 760 LINE SMOOTH"
);
},
{
closed = 0;
nodes = (
"612 120 LINE SMOOTH",
"612 52 OFFCURVE",
"664 0 OFFCURVE",
"730 0 CURVE SMOOTH {name = instroke_raise;}",
"860 0 LINE"
);
}
);
width = 860;
},
{
anchors = (
{
name = bottom;
position = "{416, -240}";
},
{
name = ogonek;
position = "{612, -240}";
},
{
name = top;
position = "{384, 1400}";
},
{
name = topleft;
position = "{12, 1400}";
}
);
layerId = m007;
paths = (
{
closed = 0;
nodes = (
"352 -240 LINE",
"492 -240 LINE",
"572 -240 OFFCURVE",
"612 -200 OFFCURVE",
"612 -120 CURVE SMOOTH",
"612 1280 LINE SMOOTH",
"612 1360 OFFCURVE",
"572 1400 OFFCURVE",
"492 1400 CURVE SMOOTH",
"272 1400 LINE SMOOTH",
"196 1400 OFFCURVE",
"144 1360 OFFCURVE",
"152 1280 CURVE SMOOTH",
"202 760 LINE SMOOTH"
);
},
{
closed = 0;
nodes = (
"612 120 LINE SMOOTH",
"612 52 OFFCURVE",
"664 0 OFFCURVE",
"730 0 CURVE SMOOTH {name = instroke_raise;}",
"860 0 LINE"
);
}
);
width = 860;
},
{
anchors = (
{
name = bottom;
position = "{416, -240}";
},
{
name = ogonek;
position = "{612, -240}";
},
{
name = top;
position = "{384, 1400}";
},
{
name = topleft;
position = "{12, 1400}";
}
);
layerId = m008;
paths = (
{
closed = 0;
nodes = (
"352 -240 LINE",
"492 -240 LINE",
"572 -240 OFFCURVE",
"612 -200 OFFCURVE",
"612 -120 CURVE SMOOTH",
"612 1280 LINE SMOOTH",
"612 1360 OFFCURVE",
"572 1400 OFFCURVE",
"492 1400 CURVE SMOOTH",
"272 1400 LINE SMOOTH",
"196 1400 OFFCURVE",
"144 1360 OFFCURVE",
"152 1280 CURVE SMOOTH",
"202 760 LINE SMOOTH"
);
},
{
closed = 0;
nodes = (
"612 120 LINE SMOOTH",
"612 52 OFFCURVE",
"664 0 OFFCURVE",
"730 0 CURVE SMOOTH {name = instroke_raise;}",
"860 0 LINE"
);
}
);
width = 860;
}
);
leftKerningGroup = I;
rightKerningGroup = H;
unicode = 0049;
},
{
glyphname = J;
lastChange = "2021-04-29 02:47:43 +0000";
layers = (
{
anchors = (
{
name = bottom;
position = "{502, -400}";
},
{
name = top;
position = "{502, 1400}";
}
);
layerId = m003;
paths = (
{
closed = 0;
nodes = (
"324 -400 LINE",
"632 -400 LINE SMOOTH",
"712 -400 OFFCURVE",
"752 -360 OFFCURVE",
"752 -280 CURVE SMOOTH",
"752 280 LINE",
"752 1280 LINE SMOOTH",
"752 1360 OFFCURVE",
"712 1400 OFFCURVE",
"632 1400 CURVE SMOOTH",
"332 1400 LINE SMOOTH",
"252 1400 OFFCURVE",
"202 1360 OFFCURVE",
"212 1280 CURVE SMOOTH",
"342 136 LINE"
);
},
{
closed = 0;
nodes = (
"752 120 LINE SMOOTH",
"752 52 OFFCURVE",
"804 0 OFFCURVE",
"870 0 CURVE SMOOTH {name = instroke_raise;}",
"1000 0 LINE"
);
}
);
width = 1000;
},
{
anchors = (
{
name = bottom;
position = "{502, -400}";
},
{
name = top;
position = "{502, 1400}";
}
);
layerId = m002;
paths = (
{
closed = 0;
nodes = (
"324 -400 LINE",
"632 -400 LINE SMOOTH",
"712 -400 OFFCURVE",
"752 -360 OFFCURVE",
"752 -280 CURVE SMOOTH",
"752 280 LINE",
"752 1280 LINE SMOOTH",
"752 1360 OFFCURVE",
"712 1400 OFFCURVE",
"632 1400 CURVE SMOOTH",
"332 1400 LINE SMOOTH",
"252 1400 OFFCURVE",
"202 1360 OFFCURVE",
"212 1280 CURVE SMOOTH",
"342 136 LINE"
);
},
{
closed = 0;
nodes = (
"752 120 LINE SMOOTH",
"752 52 OFFCURVE",
"804 0 OFFCURVE",
"870 0 CURVE SMOOTH {name = instroke_raise;}",
"1000 0 LINE"
);
}
);
width = 1000;
},
{
anchors = (
{
name = bottom;
position = "{502, -400}";
},
{
name = top;
position = "{502, 1400}";
}
);
layerId = m004;
paths = (
{
closed = 0;
nodes = (
"324 -400 LINE",
"632 -400 LINE SMOOTH",
"712 -400 OFFCURVE",
"752 -360 OFFCURVE",
"752 -280 CURVE SMOOTH",
"752 280 LINE",
"752 1280 LINE SMOOTH",
"752 1360 OFFCURVE",
"712 1400 OFFCURVE",
"632 1400 CURVE SMOOTH",
"332 1400 LINE SMOOTH",
"252 1400 OFFCURVE",
"202 1360 OFFCURVE",
"212 1280 CURVE SMOOTH",
"342 136 LINE"
);
},
{
closed = 0;
nodes = (
"752 120 LINE SMOOTH",
"752 52 OFFCURVE",
"804 0 OFFCURVE",
"870 0 CURVE SMOOTH {name = instroke_raise;}",
"1000 0 LINE"
);
}
);
width = 1000;
},
{
anchors = (
{
name = bottom;
position = "{502, -400}";
},
{
name = top;
position = "{502, 1400}";
}
);
layerId = m005;
paths = (
{
closed = 0;
nodes = (
"324 -400 LINE",
"632 -400 LINE SMOOTH",
"712 -400 OFFCURVE",
"752 -360 OFFCURVE",
"752 -280 CURVE SMOOTH",
"752 280 LINE",
"752 1280 LINE SMOOTH",
"752 1360 OFFCURVE",
"712 1400 OFFCURVE",
"632 1400 CURVE SMOOTH",
"332 1400 LINE SMOOTH",
"252 1400 OFFCURVE",
"202 1360 OFFCURVE",
"212 1280 CURVE SMOOTH",
"342 136 LINE"
);
},
{
closed = 0;
nodes = (
"752 120 LINE SMOOTH",
"752 52 OFFCURVE",
"804 0 OFFCURVE",
"870 0 CURVE SMOOTH {name = instroke_raise;}",
"1000 0 LINE"
);
}
);
width = 1000;
},
{
anchors = (
{
name = bottom;
position = "{502, -400}";
},
{
name = top;
position = "{502, 1400}";
}
);
layerId = m006;
paths = (
{
closed = 0;
nodes = (
"324 -400 LINE",
"632 -400 LINE SMOOTH",
"712 -400 OFFCURVE",
"752 -360 OFFCURVE",
"752 -280 CURVE SMOOTH",
"752 280 LINE",
"752 1280 LINE SMOOTH",
"752 1360 OFFCURVE",
"712 1400 OFFCURVE",
"632 1400 CURVE SMOOTH",
"332 1400 LINE SMOOTH",
"252 1400 OFFCURVE",
"202 1360 OFFCURVE",
"212 1280 CURVE SMOOTH",
"342 136 LINE"
);
},
{
closed = 0;
nodes = (
"752 120 LINE SMOOTH",
"752 52 OFFCURVE",
"804 0 OFFCURVE",
"870 0 CURVE SMOOTH {name = instroke_raise;}",
"1000 0 LINE"
);
}
);
width = 1000;
},
{
anchors = (
{
name = bottom;
position = "{502, -400}";
},
{
name = top;
position = "{502, 1400}";
}
);
layerId = m007;
paths = (
{
closed = 0;
nodes = (
"324 -400 LINE",
"632 -400 LINE SMOOTH",
"712 -400 OFFCURVE",
"752 -360 OFFCURVE",
"752 -280 CURVE SMOOTH",
"752 280 LINE",
"752 1280 LINE SMOOTH",
"752 1360 OFFCURVE",
"712 1400 OFFCURVE",
"632 1400 CURVE SMOOTH",
"332 1400 LINE SMOOTH",
"252 1400 OFFCURVE",
"202 1360 OFFCURVE",
"212 1280 CURVE SMOOTH",
"342 136 LINE"
);
},
{
closed = 0;
nodes = (
"752 120 LINE SMOOTH",
"752 52 OFFCURVE",
"804 0 OFFCURVE",
"870 0 CURVE SMOOTH {name = instroke_raise;}",
"1000 0 LINE"
);
}
);
width = 1000;
},
{
anchors = (
{
name = bottom;
position = "{502, -400}";
},
{
name = top;
position = "{502, 1400}";
}
);
layerId = m008;
paths = (
{
closed = 0;
nodes = (
"324 -400 LINE",
"632 -400 LINE SMOOTH",
"712 -400 OFFCURVE",
"752 -360 OFFCURVE",
"752 -280 CURVE SMOOTH",
"752 280 LINE",
"752 1280 LINE SMOOTH",
"752 1360 OFFCURVE",
"712 1400 OFFCURVE",
"632 1400 CURVE SMOOTH",
"332 1400 LINE SMOOTH",
"252 1400 OFFCURVE",
"202 1360 OFFCURVE",
"212 1280 CURVE SMOOTH",
"342 136 LINE"
);
},
{
closed = 0;
nodes = (
"752 120 LINE SMOOTH",
"752 52 OFFCURVE",
"804 0 OFFCURVE",
"870 0 CURVE SMOOTH {name = instroke_raise;}",
"1000 0 LINE"
);
}
);
width = 1000;
}
);
leftKerningGroup = J;
rightKerningGroup = J;
unicode = 004A;
},
{
glyphname = K;
lastChange = "2021-04-29 02:47:43 +0000";
layers = (
{
anchors = (
{
name = bottom;
position = "{746, -240}";
},
{
name = top;
position = "{660, 1400}";
}
);
layerId = m003;
paths = (
{
closed = 0;
nodes = (
"468 -240 LINE",
"468 1280 LINE SMOOTH",
"468 1356 OFFCURVE",
"424 1400 OFFCURVE",
"348 1400 CURVE"
);
},
{
closed = 0;
nodes = (
"68 520 LINE SMOOTH",
"948 520 LINE SMOOTH",
"1028 520 OFFCURVE",
"1068 480 OFFCURVE",
"1068 400 CURVE SMOOTH",
"1068 120 LINE SMOOTH",
"1068 52 OFFCURVE",
"1120 0 OFFCURVE",
"1186 0 CURVE SMOOTH {name = instroke_raise;}",
"1316 0 LINE"
);
},
{
closed = 0;
nodes = (
"814 520 LINE",
"948 1400 LINE"
);
},
{
closed = 0;
nodes = (
"68 1400 LINE",
"356 1400 LINE"
);
},
{
closed = 0;
nodes = (
"1068 -240 LINE",
"1068 220 LINE SMOOTH"
);
}
);
width = 1316;
},
{
anchors = (
{
name = bottom;
position = "{746, -240}";
},
{
name = top;
position = "{660, 1400}";
}
);
layerId = m002;
paths = (
{
closed = 0;
nodes = (
"468 -240 LINE",
"468 1280 LINE SMOOTH",
"468 1356 OFFCURVE",
"424 1400 OFFCURVE",
"348 1400 CURVE"
);
},
{
closed = 0;
nodes = (
"68 520 LINE SMOOTH",
"948 520 LINE SMOOTH",
"1028 520 OFFCURVE",
"1068 480 OFFCURVE",
"1068 400 CURVE SMOOTH",
"1068 120 LINE SMOOTH",
"1068 52 OFFCURVE",
"1120 0 OFFCURVE",
"1186 0 CURVE SMOOTH {name = instroke_raise;}",
"1316 0 LINE"
);
},
{
closed = 0;
nodes = (
"814 520 LINE",
"948 1400 LINE"
);
},
{
closed = 0;
nodes = (
"68 1400 LINE",
"356 1400 LINE"
);
},
{
closed = 0;
nodes = (
"1068 -240 LINE",
"1068 220 LINE SMOOTH"
);
}
);
width = 1316;
},
{
anchors = (
{
name = bottom;
position = "{746, -240}";
},
{
name = top;
position = "{660, 1400}";
}
);
layerId = m004;
paths = (
{
closed = 0;
nodes = (
"468 -240 LINE",
"468 1280 LINE SMOOTH",
"468 1356 OFFCURVE",
"424 1400 OFFCURVE",
"348 1400 CURVE"
);
},
{
closed = 0;
nodes = (
"68 520 LINE SMOOTH",
"948 520 LINE SMOOTH",
"1028 520 OFFCURVE",
"1068 480 OFFCURVE",
"1068 400 CURVE SMOOTH",
"1068 120 LINE SMOOTH",
"1068 52 OFFCURVE",
"1120 0 OFFCURVE",
"1186 0 CURVE SMOOTH {name = instroke_raise;}",
"1316 0 LINE"
);
},
{
closed = 0;
nodes = (
"814 520 LINE",
"948 1400 LINE"
);
},
{
closed = 0;
nodes = (
"68 1400 LINE",
"356 1400 LINE"
);
},
{
closed = 0;
nodes = (
"1068 -240 LINE",
"1068 220 LINE SMOOTH"
);
}
);
width = 1316;
},
{
anchors = (
{
name = bottom;
position = "{746, -240}";
},
{
name = top;
position = "{660, 1400}";
}
);
layerId = m005;
paths = (
{
closed = 0;
nodes = (
"468 -240 LINE",
"468 1280 LINE SMOOTH",
"468 1356 OFFCURVE",
"424 1400 OFFCURVE",
"348 1400 CURVE"
);
},
{
closed = 0;
nodes = (
"68 520 LINE SMOOTH",
"948 520 LINE SMOOTH",
"1028 520 OFFCURVE",
"1068 480 OFFCURVE",
"1068 400 CURVE SMOOTH",
"1068 120 LINE SMOOTH",
"1068 52 OFFCURVE",
"1120 0 OFFCURVE",
"1186 0 CURVE SMOOTH {name = instroke_raise;}",
"1316 0 LINE"
);
},
{
closed = 0;
nodes = (
"814 520 LINE",
"948 1400 LINE"
);
},
{
closed = 0;
nodes = (
"68 1400 LINE",
"356 1400 LINE"
);
},
{
closed = 0;
nodes = (
"1068 -240 LINE",
"1068 220 LINE SMOOTH"
);
}
);
width = 1316;
},
{
anchors = (
{
name = bottom;
position = "{746, -240}";
},
{
name = top;
position = "{660, 1400}";
}
);
layerId = m006;
paths = (
{
closed = 0;
nodes = (
"468 -240 LINE",
"468 1280 LINE SMOOTH",
"468 1356 OFFCURVE",
"424 1400 OFFCURVE",
"348 1400 CURVE"
);
},
{
closed = 0;
nodes = (
"68 520 LINE SMOOTH",
"948 520 LINE SMOOTH",
"1028 520 OFFCURVE",
"1068 480 OFFCURVE",
"1068 400 CURVE SMOOTH",
"1068 120 LINE SMOOTH",
"1068 52 OFFCURVE",
"1120 0 OFFCURVE",
"1186 0 CURVE SMOOTH {name = instroke_raise;}",
"1316 0 LINE"
);
},
{
closed = 0;
nodes = (
"814 520 LINE",
"948 1400 LINE"
);
},
{
closed = 0;
nodes = (
"68 1400 LINE",
"356 1400 LINE"
);
},
{
closed = 0;
nodes = (
"1068 -240 LINE",
"1068 220 LINE SMOOTH"
);
}
);
width = 1316;
},
{
anchors = (
{
name = bottom;
position = "{746, -240}";
},
{
name = top;
position = "{660, 1400}";
}
);
layerId = m007;
paths = (
{
closed = 0;
nodes = (
"468 -240 LINE",
"468 1280 LINE SMOOTH",
"468 1356 OFFCURVE",
"424 1400 OFFCURVE",
"348 1400 CURVE"
);
},
{
closed = 0;
nodes = (
"68 520 LINE SMOOTH",
"948 520 LINE SMOOTH",
"1028 520 OFFCURVE",
"1068 480 OFFCURVE",
"1068 400 CURVE SMOOTH",
"1068 120 LINE SMOOTH",
"1068 52 OFFCURVE",
"1120 0 OFFCURVE",
"1186 0 CURVE SMOOTH {name = instroke_raise;}",
"1316 0 LINE"
);
},
{
closed = 0;
nodes = (
"814 520 LINE",
"948 1400 LINE"
);
},
{
closed = 0;
nodes = (
"68 1400 LINE",
"356 1400 LINE"
);
},
{
closed = 0;
nodes = (
"1068 -240 LINE",
"1068 220 LINE SMOOTH"
);
}
);
width = 1316;
},
{
anchors = (
{
name = bottom;
position = "{746, -240}";
},
{
name = top;
position = "{660, 1400}";
}
);
layerId = m008;
paths = (
{
closed = 0;
nodes = (
"468 -240 LINE",
"468 1280 LINE SMOOTH",
"468 1356 OFFCURVE",
"424 1400 OFFCURVE",
"348 1400 CURVE"
);
},
{
closed = 0;
nodes = (
"68 520 LINE SMOOTH",
"948 520 LINE SMOOTH",
"1028 520 OFFCURVE",
"1068 480 OFFCURVE",
"1068 400 CURVE SMOOTH",
"1068 120 LINE SMOOTH",
"1068 52 OFFCURVE",
"1120 0 OFFCURVE",
"1186 0 CURVE SMOOTH {name = instroke_raise;}",
"1316 0 LINE"
);
},
{
closed = 0;
nodes = (
"814 520 LINE",
"948 1400 LINE"
);
},
{
closed = 0;
nodes = (
"68 1400 LINE",
"356 1400 LINE"
);
},
{
closed = 0;
nodes = (
"1068 -240 LINE",
"1068 220 LINE SMOOTH"
);
}
);
width = 1316;
}
);
leftKerningGroup = H;
rightKerningGroup = K;
unicode = 004B;
},
{
glyphname = L;
lastChange = "2021-04-29 02:47:43 +0000";
layers = (
{
anchors = (
{
name = bottom;
position = "{532, -240}";
},
{
name = center;
position = "{472, 700}";
},
{
name = top;
position = "{472, 1400}";
},
{
name = topright;
position = "{548, 1400}";
}
);
layerId = m003;
paths = (
{
closed = 0;
nodes = (
"68 -240 LINE",
"768 -240 LINE SMOOTH",
"848 -240 OFFCURVE",
"888 -200 OFFCURVE",
"888 -120 CURVE SMOOTH",
"888 180 LINE SMOOTH"
);
},
{
closed = 0;
nodes = (
"568 1400 LINE",
"408 1400 LINE",
"328 1400 OFFCURVE",
"288 1360 OFFCURVE",
"288 1280 CURVE SMOOTH",
"288 -120 LINE SMOOTH",
"288 -200 OFFCURVE",
"248 -240 OFFCURVE",
"168 -240 CURVE"
);
},
{
closed = 0;
nodes = (
"888 120 LINE SMOOTH",
"888 52 OFFCURVE",
"940 0 OFFCURVE",
"1006 0 CURVE SMOOTH {name = instroke_raise;}",
"1056 0 LINE"
);
}
);
width = 1056;
},
{
anchors = (
{
name = bottom;
position = "{532, -240}";
},
{
name = center;
position = "{472, 700}";
},
{
name = top;
position = "{472, 1400}";
},
{
name = topright;
position = "{548, 1400}";
}
);
layerId = m002;
paths = (
{
closed = 0;
nodes = (
"68 -240 LINE",
"768 -240 LINE SMOOTH",
"848 -240 OFFCURVE",
"888 -200 OFFCURVE",
"888 -120 CURVE SMOOTH",
"888 180 LINE SMOOTH"
);
},
{
closed = 0;
nodes = (
"568 1400 LINE",
"408 1400 LINE",
"328 1400 OFFCURVE",
"288 1360 OFFCURVE",
"288 1280 CURVE SMOOTH",
"288 -120 LINE SMOOTH",
"288 -200 OFFCURVE",
"248 -240 OFFCURVE",
"168 -240 CURVE"
);
},
{
closed = 0;
nodes = (
"888 120 LINE SMOOTH",
"888 52 OFFCURVE",
"940 0 OFFCURVE",
"1006 0 CURVE SMOOTH {name = instroke_raise;}",
"1056 0 LINE"
);
}
);
width = 1056;
},
{
anchors = (
{
name = bottom;
position = "{532, -240}";
},
{
name = center;
position = "{472, 700}";
},
{
name = top;
position = "{472, 1400}";
},
{
name = topright;
position = "{548, 1400}";
}
);
layerId = m004;
paths = (
{
closed = 0;
nodes = (
"68 -240 LINE",
"768 -240 LINE SMOOTH",
"848 -240 OFFCURVE",
"888 -200 OFFCURVE",
"888 -120 CURVE SMOOTH",
"888 180 LINE SMOOTH"
);
},
{
closed = 0;
nodes = (
"568 1400 LINE",
"408 1400 LINE",
"328 1400 OFFCURVE",
"288 1360 OFFCURVE",
"288 1280 CURVE SMOOTH",
"288 -120 LINE SMOOTH",
"288 -200 OFFCURVE",
"248 -240 OFFCURVE",
"168 -240 CURVE"
);
},
{
closed = 0;
nodes = (
"888 120 LINE SMOOTH",
"888 52 OFFCURVE",
"940 0 OFFCURVE",
"1006 0 CURVE SMOOTH {name = instroke_raise;}",
"1056 0 LINE"
);
}
);
width = 1056;
},
{
anchors = (
{
name = bottom;
position = "{532, -240}";
},
{
name = center;
position = "{472, 700}";
},
{
name = top;
position = "{472, 1400}";
},
{
name = topright;
position = "{548, 1400}";
}
);
layerId = m005;
paths = (
{
closed = 0;
nodes = (
"68 -240 LINE",
"768 -240 LINE SMOOTH",
"848 -240 OFFCURVE",
"888 -200 OFFCURVE",
"888 -120 CURVE SMOOTH",
"888 180 LINE SMOOTH"
);
},
{
closed = 0;
nodes = (
"568 1400 LINE",
"408 1400 LINE",
"328 1400 OFFCURVE",
"288 1360 OFFCURVE",
"288 1280 CURVE SMOOTH",
"288 -120 LINE SMOOTH",
"288 -200 OFFCURVE",
"248 -240 OFFCURVE",
"168 -240 CURVE"
);
},
{
closed = 0;
nodes = (
"888 120 LINE SMOOTH",
"888 52 OFFCURVE",
"940 0 OFFCURVE",
"1006 0 CURVE SMOOTH {name = instroke_raise;}",
"1056 0 LINE"
);
}
);
width = 1056;
},
{
anchors = (
{
name = bottom;
position = "{532, -240}";
},
{
name = center;
position = "{472, 700}";
},
{
name = top;
position = "{472, 1400}";
},
{
name = topright;
position = "{548, 1400}";
}
);
layerId = m006;
paths = (
{
closed = 0;
nodes = (
"68 -240 LINE",
"768 -240 LINE SMOOTH",
"848 -240 OFFCURVE",
"888 -200 OFFCURVE",
"888 -120 CURVE SMOOTH",
"888 180 LINE SMOOTH"
);
},
{
closed = 0;
nodes = (
"568 1400 LINE",
"408 1400 LINE",
"328 1400 OFFCURVE",
"288 1360 OFFCURVE",
"288 1280 CURVE SMOOTH",
"288 -120 LINE SMOOTH",
"288 -200 OFFCURVE",
"248 -240 OFFCURVE",
"168 -240 CURVE"
);
},
{
closed = 0;
nodes = (
"888 120 LINE SMOOTH",
"888 52 OFFCURVE",
"940 0 OFFCURVE",
"1006 0 CURVE SMOOTH {name = instroke_raise;}",
"1056 0 LINE"
);
}
);
width = 1056;
},
{
anchors = (
{
name = bottom;
position = "{532, -240}";
},
{
name = center;
position = "{472, 700}";
},
{
name = top;
position = "{472, 1400}";
},
{
name = topright;
position = "{548, 1400}";
}
);
layerId = m007;
paths = (
{
closed = 0;
nodes = (
"68 -240 LINE",
"768 -240 LINE SMOOTH",
"848 -240 OFFCURVE",
"888 -200 OFFCURVE",
"888 -120 CURVE SMOOTH",
"888 180 LINE SMOOTH"
);
},
{
closed = 0;
nodes = (
"568 1400 LINE",
"408 1400 LINE",
"328 1400 OFFCURVE",
"288 1360 OFFCURVE",
"288 1280 CURVE SMOOTH",
"288 -120 LINE SMOOTH",
"288 -200 OFFCURVE",
"248 -240 OFFCURVE",
"168 -240 CURVE"
);
},
{
closed = 0;
nodes = (
"888 120 LINE SMOOTH",
"888 52 OFFCURVE",
"940 0 OFFCURVE",
"1006 0 CURVE SMOOTH {name = instroke_raise;}",
"1056 0 LINE"
);
}
);
width = 1056;
},
{
anchors = (
{
name = bottom;
position = "{532, -240}";
},
{
name = center;
position = "{472, 700}";
},
{
name = top;
position = "{472, 1400}";
},
{
name = topright;
position = "{548, 1400}";
}
);
layerId = m008;
paths = (
{
closed = 0;
nodes = (
"68 -240 LINE",
"768 -240 LINE SMOOTH",
"848 -240 OFFCURVE",
"888 -200 OFFCURVE",
"888 -120 CURVE SMOOTH",
"888 180 LINE SMOOTH"
);
},
{
closed = 0;
nodes = (
"568 1400 LINE",
"408 1400 LINE",
"328 1400 OFFCURVE",
"288 1360 OFFCURVE",
"288 1280 CURVE SMOOTH",
"288 -120 LINE SMOOTH",
"288 -200 OFFCURVE",
"248 -240 OFFCURVE",
"168 -240 CURVE"
);
},
{
closed = 0;
nodes = (
"888 120 LINE SMOOTH",
"888 52 OFFCURVE",
"940 0 OFFCURVE",
"1006 0 CURVE SMOOTH {name = instroke_raise;}",
"1056 0 LINE"
);
}
);
width = 1056;
}
);
leftKerningGroup = L;
rightKerningGroup = L;
unicode = 004C;
},
{
glyphname = Lslash;
lastChange = "2021-04-29 02:47:43 +0000";
layers = (
{
components = (
{
name = L;
}
);
layerId = m003;
paths = (
{
closed = 0;
nodes = (
"56 394 LINE",
"650 738 LINE"
);
}
);
width = 1056;
},
{
components = (
{
name = L;
}
);
layerId = m002;
paths = (
{
closed = 0;
nodes = (
"56 394 LINE",
"650 738 LINE"
);
}
);
width = 1056;
},
{
components = (
{
name = L;
}
);
layerId = m004;
paths = (
{
closed = 0;
nodes = (
"56 394 LINE",
"650 738 LINE"
);
}
);
width = 1056;
},
{
components = (
{
name = L;
}
);
layerId = m005;
paths = (
{
closed = 0;
nodes = (
"56 394 LINE",
"650 738 LINE"
);
}
);
width = 1056;
},
{
components = (
{
name = L;
}
);
layerId = m006;
paths = (
{
closed = 0;
nodes = (
"56 394 LINE",
"650 738 LINE"
);
}
);
width = 1056;
},
{
components = (
{
name = L;
}
);
layerId = m007;
paths = (
{
closed = 0;
nodes = (
"56 394 LINE",
"650 738 LINE"
);
}
);
width = 1056;
},
{
components = (
{
name = L;
}
);
layerId = m008;
paths = (
{
closed = 0;
nodes = (
"56 394 LINE",
"650 738 LINE"
);
}
);
width = 1056;
}
);
leftKerningGroup = L;
rightKerningGroup = L;
unicode = 0141;
},
{
glyphname = M;
lastChange = "2021-04-29 02:47:43 +0000";
layers = (
{
anchors = (
{
name = bottom;
position = "{888, -240}";
},
{
name = top;
position = "{888, 1400}";
}
);
layerId = m003;
paths = (
{
closed = 0;
nodes = (
"368 1400 LINE",
"368 -240 LINE"
);
},
{
closed = 0;
nodes = (
"1408 -240 LINE",
"1408 1280 LINE SMOOTH",
"1408 1360 OFFCURVE",
"1368 1400 OFFCURVE",
"1288 1400 CURVE SMOOTH",
"1008 1400 LINE",
"928 1400 OFFCURVE",
"888 1360 OFFCURVE",
"888 1280 CURVE"
);
},
{
closed = 0;
nodes = (
"68 1400 LINE",
"68 1400 OFFCURVE",
"572 1400 OFFCURVE",
"572 1400 CURVE",
"768 1400 LINE SMOOTH",
"848 1400 OFFCURVE",
"888 1360 OFFCURVE",
"888 1280 CURVE SMOOTH",
"888 -240 LINE"
);
},
{
closed = 0;
nodes = (
"1408 120 LINE SMOOTH",
"1408 52 OFFCURVE",
"1460 0 OFFCURVE",
"1526 0 CURVE SMOOTH {name = instroke_raise;}",
"1676 0 LINE"
);
}
);
width = 1676;
},
{
anchors = (
{
name = bottom;
position = "{888, -240}";
},
{
name = top;
position = "{888, 1400}";
}
);
layerId = m002;
paths = (
{
closed = 0;
nodes = (
"368 1400 LINE",
"368 -240 LINE"
);
},
{
closed = 0;
nodes = (
"1408 -240 LINE",
"1408 1280 LINE SMOOTH",
"1408 1360 OFFCURVE",
"1368 1400 OFFCURVE",
"1288 1400 CURVE SMOOTH",
"1008 1400 LINE",
"928 1400 OFFCURVE",
"888 1360 OFFCURVE",
"888 1280 CURVE"
);
},
{
closed = 0;
nodes = (
"68 1400 LINE",
"68 1400 OFFCURVE",
"572 1400 OFFCURVE",
"572 1400 CURVE",
"768 1400 LINE SMOOTH",
"848 1400 OFFCURVE",
"888 1360 OFFCURVE",
"888 1280 CURVE SMOOTH",
"888 -240 LINE"
);
},
{
closed = 0;
nodes = (
"1408 120 LINE SMOOTH",
"1408 52 OFFCURVE",
"1460 0 OFFCURVE",
"1526 0 CURVE SMOOTH {name = instroke_raise;}",
"1676 0 LINE"
);
}
);
width = 1676;
},
{
anchors = (
{
name = bottom;
position = "{888, -240}";
},
{
name = top;
position = "{888, 1400}";
}
);
layerId = m004;
paths = (
{
closed = 0;
nodes = (
"368 1400 LINE",
"368 -240 LINE"
);
},
{
closed = 0;
nodes = (
"1408 -240 LINE",
"1408 1280 LINE SMOOTH",
"1408 1360 OFFCURVE",
"1368 1400 OFFCURVE",
"1288 1400 CURVE SMOOTH",
"1008 1400 LINE",
"928 1400 OFFCURVE",
"888 1360 OFFCURVE",
"888 1280 CURVE"
);
},
{
closed = 0;
nodes = (
"68 1400 LINE",
"68 1400 OFFCURVE",
"572 1400 OFFCURVE",
"572 1400 CURVE",
"768 1400 LINE SMOOTH",
"848 1400 OFFCURVE",
"888 1360 OFFCURVE",
"888 1280 CURVE SMOOTH",
"888 -240 LINE"
);
},
{
closed = 0;
nodes = (
"1408 120 LINE SMOOTH",
"1408 52 OFFCURVE",
"1460 0 OFFCURVE",
"1526 0 CURVE SMOOTH {name = instroke_raise;}",
"1676 0 LINE"
);
}
);
width = 1676;
},
{
anchors = (
{
name = bottom;
position = "{888, -240}";
},
{
name = top;
position = "{888, 1400}";
}
);
layerId = m005;
paths = (
{
closed = 0;
nodes = (
"368 1400 LINE",
"368 -240 LINE"
);
},
{
closed = 0;
nodes = (
"1408 -240 LINE",
"1408 1280 LINE SMOOTH",
"1408 1360 OFFCURVE",
"1368 1400 OFFCURVE",
"1288 1400 CURVE SMOOTH",
"1008 1400 LINE",
"928 1400 OFFCURVE",
"888 1360 OFFCURVE",
"888 1280 CURVE"
);
},
{
closed = 0;
nodes = (
"68 1400 LINE",
"68 1400 OFFCURVE",
"572 1400 OFFCURVE",
"572 1400 CURVE",
"768 1400 LINE SMOOTH",
"848 1400 OFFCURVE",
"888 1360 OFFCURVE",
"888 1280 CURVE SMOOTH",
"888 -240 LINE"
);
},
{
closed = 0;
nodes = (
"1408 120 LINE SMOOTH",
"1408 52 OFFCURVE",
"1460 0 OFFCURVE",
"1526 0 CURVE SMOOTH {name = instroke_raise;}",
"1676 0 LINE"
);
}
);
width = 1676;
},
{
anchors = (
{
name = bottom;
position = "{888, -240}";
},
{
name = top;
position = "{888, 1400}";
}
);
layerId = m006;
paths = (
{
closed = 0;
nodes = (
"368 1400 LINE",
"368 -240 LINE"
);
},
{
closed = 0;
nodes = (
"1408 -240 LINE",
"1408 1280 LINE SMOOTH",
"1408 1360 OFFCURVE",
"1368 1400 OFFCURVE",
"1288 1400 CURVE SMOOTH",
"1008 1400 LINE",
"928 1400 OFFCURVE",
"888 1360 OFFCURVE",
"888 1280 CURVE"
);
},
{
closed = 0;
nodes = (
"68 1400 LINE",
"68 1400 OFFCURVE",
"572 1400 OFFCURVE",
"572 1400 CURVE",
"768 1400 LINE SMOOTH",
"848 1400 OFFCURVE",
"888 1360 OFFCURVE",
"888 1280 CURVE SMOOTH",
"888 -240 LINE"
);
},
{
closed = 0;
nodes = (
"1408 120 LINE SMOOTH",
"1408 52 OFFCURVE",
"1460 0 OFFCURVE",
"1526 0 CURVE SMOOTH {name = instroke_raise;}",
"1676 0 LINE"
);
}
);
width = 1676;
},
{
anchors = (
{
name = bottom;
position = "{888, -240}";
},
{
name = top;
position = "{888, 1400}";
}
);
layerId = m007;
paths = (
{
closed = 0;
nodes = (
"368 1400 LINE",
"368 -240 LINE"
);
},
{
closed = 0;
nodes = (
"1408 -240 LINE",
"1408 1280 LINE SMOOTH",
"1408 1360 OFFCURVE",
"1368 1400 OFFCURVE",
"1288 1400 CURVE SMOOTH",
"1008 1400 LINE",
"928 1400 OFFCURVE",
"888 1360 OFFCURVE",
"888 1280 CURVE"
);
},
{
closed = 0;
nodes = (
"68 1400 LINE",
"68 1400 OFFCURVE",
"572 1400 OFFCURVE",
"572 1400 CURVE",
"768 1400 LINE SMOOTH",
"848 1400 OFFCURVE",
"888 1360 OFFCURVE",
"888 1280 CURVE SMOOTH",
"888 -240 LINE"
);
},
{
closed = 0;
nodes = (
"1408 120 LINE SMOOTH",
"1408 52 OFFCURVE",
"1460 0 OFFCURVE",
"1526 0 CURVE SMOOTH {name = instroke_raise;}",
"1676 0 LINE"
);
}
);
width = 1676;
},
{
anchors = (
{
name = bottom;
position = "{888, -240}";
},
{
name = top;
position = "{888, 1400}";
}
);
layerId = m008;
paths = (
{
closed = 0;
nodes = (
"368 1400 LINE",
"368 -240 LINE"
);
},
{
closed = 0;
nodes = (
"1408 -240 LINE",
"1408 1280 LINE SMOOTH",
"1408 1360 OFFCURVE",
"1368 1400 OFFCURVE",
"1288 1400 CURVE SMOOTH",
"1008 1400 LINE",
"928 1400 OFFCURVE",
"888 1360 OFFCURVE",
"888 1280 CURVE"
);
},
{
closed = 0;
nodes = (
"68 1400 LINE",
"68 1400 OFFCURVE",
"572 1400 OFFCURVE",
"572 1400 CURVE",
"768 1400 LINE SMOOTH",
"848 1400 OFFCURVE",
"888 1360 OFFCURVE",
"888 1280 CURVE SMOOTH",
"888 -240 LINE"
);
},
{
closed = 0;
nodes = (
"1408 120 LINE SMOOTH",
"1408 52 OFFCURVE",
"1460 0 OFFCURVE",
"1526 0 CURVE SMOOTH {name = instroke_raise;}",
"1676 0 LINE"
);
}
);
width = 1676;
}
);
leftKerningGroup = D;
rightKerningGroup = H;
unicode = 004D;
},
{
glyphname = N;
lastChange = "2021-04-29 02:47:43 +0000";
layers = (
{
anchors = (
{
name = bottom;
position = "{632, -240}";
},
{
name = top;
position = "{632, 1400}";
}
);
layerId = m003;
paths = (
{
closed = 0;
nodes = (
"928 -240 LINE",
"928 1280 LINE SMOOTH",
"928 1360 OFFCURVE",
"888 1400 OFFCURVE",
"808 1400 CURVE SMOOTH",
"368 1400 LINE",
"368 -240 LINE"
);
},
{
closed = 0;
nodes = (
"68 1400 LINE",
"68 1400 OFFCURVE",
"568 1400 OFFCURVE",
"568 1400 CURVE"
);
},
{
closed = 0;
nodes = (
"928 120 LINE SMOOTH",
"928 52 OFFCURVE",
"980 0 OFFCURVE",
"1046 0 CURVE SMOOTH {name = instroke_raise;}",
"1196 0 LINE"
);
}
);
width = 1196;
},
{
anchors = (
{
name = bottom;
position = "{632, -240}";
},
{
name = top;
position = "{632, 1400}";
}
);
layerId = m002;
paths = (
{
closed = 0;
nodes = (
"928 -240 LINE",
"928 1280 LINE SMOOTH",
"928 1360 OFFCURVE",
"888 1400 OFFCURVE",
"808 1400 CURVE SMOOTH",
"368 1400 LINE",
"368 -240 LINE"
);
},
{
closed = 0;
nodes = (
"68 1400 LINE",
"68 1400 OFFCURVE",
"568 1400 OFFCURVE",
"568 1400 CURVE"
);
},
{
closed = 0;
nodes = (
"928 120 LINE SMOOTH",
"928 52 OFFCURVE",
"980 0 OFFCURVE",
"1046 0 CURVE SMOOTH {name = instroke_raise;}",
"1196 0 LINE"
);
}
);
width = 1196;
},
{
anchors = (
{
name = bottom;
position = "{632, -240}";
},
{
name = top;
position = "{632, 1400}";
}
);
layerId = m004;
paths = (
{
closed = 0;
nodes = (
"928 -240 LINE",
"928 1280 LINE SMOOTH",
"928 1360 OFFCURVE",
"888 1400 OFFCURVE",
"808 1400 CURVE SMOOTH",
"368 1400 LINE",
"368 -240 LINE"
);
},
{
closed = 0;
nodes = (
"68 1400 LINE",
"68 1400 OFFCURVE",
"568 1400 OFFCURVE",
"568 1400 CURVE"
);
},
{
closed = 0;
nodes = (
"928 120 LINE SMOOTH",
"928 52 OFFCURVE",
"980 0 OFFCURVE",
"1046 0 CURVE SMOOTH {name = instroke_raise;}",
"1196 0 LINE"
);
}
);
width = 1196;
},
{
anchors = (
{
name = bottom;
position = "{632, -240}";
},
{
name = top;
position = "{632, 1400}";
}
);
layerId = m005;
paths = (
{
closed = 0;
nodes = (
"928 -240 LINE",
"928 1280 LINE SMOOTH",
"928 1360 OFFCURVE",
"888 1400 OFFCURVE",
"808 1400 CURVE SMOOTH",
"368 1400 LINE",
"368 -240 LINE"
);
},
{
closed = 0;
nodes = (
"68 1400 LINE",
"68 1400 OFFCURVE",
"568 1400 OFFCURVE",
"568 1400 CURVE"
);
},
{
closed = 0;
nodes = (
"928 120 LINE SMOOTH",
"928 52 OFFCURVE",
"980 0 OFFCURVE",
"1046 0 CURVE SMOOTH {name = instroke_raise;}",
"1196 0 LINE"
);
}
);
width = 1196;
},
{
anchors = (
{
name = bottom;
position = "{632, -240}";
},
{
name = top;
position = "{632, 1400}";
}
);
layerId = m006;
paths = (
{
closed = 0;
nodes = (
"928 -240 LINE",
"928 1280 LINE SMOOTH",
"928 1360 OFFCURVE",
"888 1400 OFFCURVE",
"808 1400 CURVE SMOOTH",
"368 1400 LINE",
"368 -240 LINE"
);
},
{
closed = 0;
nodes = (
"68 1400 LINE",
"68 1400 OFFCURVE",
"568 1400 OFFCURVE",
"568 1400 CURVE"
);
},
{
closed = 0;
nodes = (
"928 120 LINE SMOOTH",
"928 52 OFFCURVE",
"980 0 OFFCURVE",
"1046 0 CURVE SMOOTH {name = instroke_raise;}",
"1196 0 LINE"
);
}
);
width = 1196;
},
{
anchors = (
{
name = bottom;
position = "{632, -240}";
},
{
name = top;
position = "{632, 1400}";
}
);
layerId = m007;
paths = (
{
closed = 0;
nodes = (
"928 -240 LINE",
"928 1280 LINE SMOOTH",
"928 1360 OFFCURVE",
"888 1400 OFFCURVE",
"808 1400 CURVE SMOOTH",
"368 1400 LINE",
"368 -240 LINE"
);
},
{
closed = 0;
nodes = (
"68 1400 LINE",
"68 1400 OFFCURVE",
"568 1400 OFFCURVE",
"568 1400 CURVE"
);
},
{
closed = 0;
nodes = (
"928 120 LINE SMOOTH",
"928 52 OFFCURVE",
"980 0 OFFCURVE",
"1046 0 CURVE SMOOTH {name = instroke_raise;}",
"1196 0 LINE"
);
}
);
width = 1196;
},
{
anchors = (
{
name = bottom;
position = "{632, -240}";
},
{
name = top;
position = "{632, 1400}";
}
);
layerId = m008;
paths = (
{
closed = 0;
nodes = (
"928 -240 LINE",
"928 1280 LINE SMOOTH",
"928 1360 OFFCURVE",
"888 1400 OFFCURVE",
"808 1400 CURVE SMOOTH",
"368 1400 LINE",
"368 -240 LINE"
);
},
{
closed = 0;
nodes = (
"68 1400 LINE",
"68 1400 OFFCURVE",
"568 1400 OFFCURVE",
"568 1400 CURVE"
);
},
{
closed = 0;
nodes = (
"928 120 LINE SMOOTH",
"928 52 OFFCURVE",
"980 0 OFFCURVE",
"1046 0 CURVE SMOOTH {name = instroke_raise;}",
"1196 0 LINE"
);
}
);
width = 1196;
}
);
leftKerningGroup = D;
rightKerningGroup = H;
unicode = 004E;
},
{
glyphname = Eng;
lastChange = "2021-04-29 02:47:43 +0000";
layers = (
{
components = (
{
name = N;
}
);
layerId = m003;
paths = (
{
closed = 0;
nodes = (
"928 600 LINE",
"928 -360 LINE SMOOTH {name = \"instroke_raise,outstroke_raise\";}",
"928 -428 OFFCURVE",
"876 -480 OFFCURVE",
"810 -480 CURVE SMOOTH {name = instroke_raise;}",
"680 -480 LINE"
);
}
);
width = 1196;
},
{
components = (
{
name = N;
}
);
layerId = m002;
paths = (
{
closed = 0;
nodes = (
"928 600 LINE",
"928 -360 LINE SMOOTH {name = \"instroke_raise,outstroke_raise\";}",
"928 -428 OFFCURVE",
"876 -480 OFFCURVE",
"810 -480 CURVE SMOOTH {name = instroke_raise;}",
"680 -480 LINE"
);
}
);
width = 1196;
},
{
components = (
{
name = N;
}
);
layerId = m004;
paths = (
{
closed = 0;
nodes = (
"928 600 LINE",
"928 -360 LINE SMOOTH {name = \"instroke_raise,outstroke_raise\";}",
"928 -428 OFFCURVE",
"876 -480 OFFCURVE",
"810 -480 CURVE SMOOTH {name = instroke_raise;}",
"680 -480 LINE"
);
}
);
width = 1196;
},
{
components = (
{
name = N;
}
);
layerId = m005;
paths = (
{
closed = 0;
nodes = (
"928 600 LINE",
"928 -360 LINE SMOOTH {name = \"instroke_raise,outstroke_raise\";}",
"928 -428 OFFCURVE",
"876 -480 OFFCURVE",
"810 -480 CURVE SMOOTH {name = instroke_raise;}",
"680 -480 LINE"
);
}
);
width = 1196;
},
{
components = (
{
name = N;
}
);
layerId = m006;
paths = (
{
closed = 0;
nodes = (
"928 600 LINE",
"928 -360 LINE SMOOTH {name = \"instroke_raise,outstroke_raise\";}",
"928 -428 OFFCURVE",
"876 -480 OFFCURVE",
"810 -480 CURVE SMOOTH {name = instroke_raise;}",
"680 -480 LINE"
);
}
);
width = 1196;
},
{
components = (
{
name = N;
}
);
layerId = m007;
paths = (
{
closed = 0;
nodes = (
"928 600 LINE",
"928 -360 LINE SMOOTH {name = \"instroke_raise,outstroke_raise\";}",
"928 -428 OFFCURVE",
"876 -480 OFFCURVE",
"810 -480 CURVE SMOOTH {name = instroke_raise;}",
"680 -480 LINE"
);
}
);
width = 1196;
},
{
components = (
{
name = N;
}
);
layerId = m008;
paths = (
{
closed = 0;
nodes = (
"928 600 LINE",
"928 -360 LINE SMOOTH {name = \"instroke_raise,outstroke_raise\";}",
"928 -428 OFFCURVE",
"876 -480 OFFCURVE",
"810 -480 CURVE SMOOTH {name = instroke_raise;}",
"680 -480 LINE"
);
}
);
width = 1196;
}
);
unicode = 014A;
},
{
glyphname = O;
lastChange = "2021-04-29 02:47:43 +0000";
layers = (
{
anchors = (
{
name = bottom;
position = "{558, -240}";
},
{
name = center;
position = "{484, 700}";
},
{
name = ogonek;
position = "{992, 20}";
},
{
name = top;
position = "{558, 1400}";
},
{
name = topleft;
position = "{-110, 1400}";
},
{
name = topright;
position = "{842, 1400}";
}
);
layerId = m003;
paths = (
{
closed = 0;
nodes = (
"730 -240 LINE",
"810 -240 OFFCURVE",
"850 -200 OFFCURVE",
"850 -120 CURVE SMOOTH",
"850 1280 LINE SMOOTH",
"850 1360 OFFCURVE",
"810 1400 OFFCURVE",
"730 1400 CURVE SMOOTH",
"370 1400 LINE SMOOTH",
"290 1400 OFFCURVE",
"250 1360 OFFCURVE",
"250 1280 CURVE SMOOTH",
"250 -120 LINE SMOOTH",
"250 -200 OFFCURVE",
"290 -240 OFFCURVE",
"370 -240 CURVE SMOOTH",
"730 -240 LINE"
);
},
{
closed = 0;
nodes = (
"850 120 LINE SMOOTH",
"850 52 OFFCURVE",
"902 0 OFFCURVE",
"968 0 CURVE SMOOTH {name = instroke_raise;}",
"1118 0 LINE"
);
}
);
width = 1118;
},
{
anchors = (
{
name = bottom;
position = "{558, -240}";
},
{
name = center;
position = "{484, 700}";
},
{
name = ogonek;
position = "{992, 20}";
},
{
name = top;
position = "{558, 1400}";
},
{
name = topleft;
position = "{-110, 1400}";
},
{
name = topright;
position = "{842, 1400}";
}
);
layerId = m002;
paths = (
{
closed = 0;
nodes = (
"730 -240 LINE",
"810 -240 OFFCURVE",
"850 -200 OFFCURVE",
"850 -120 CURVE SMOOTH",
"850 1280 LINE SMOOTH",
"850 1360 OFFCURVE",
"810 1400 OFFCURVE",
"730 1400 CURVE SMOOTH",
"370 1400 LINE SMOOTH",
"290 1400 OFFCURVE",
"250 1360 OFFCURVE",
"250 1280 CURVE SMOOTH",
"250 -120 LINE SMOOTH",
"250 -200 OFFCURVE",
"290 -240 OFFCURVE",
"370 -240 CURVE SMOOTH",
"730 -240 LINE"
);
},
{
closed = 0;
nodes = (
"850 120 LINE SMOOTH",
"850 52 OFFCURVE",
"902 0 OFFCURVE",
"968 0 CURVE SMOOTH {name = instroke_raise;}",
"1118 0 LINE"
);
}
);
width = 1118;
},
{
anchors = (
{
name = bottom;
position = "{558, -240}";
},
{
name = center;
position = "{484, 700}";
},
{
name = ogonek;
position = "{992, 20}";
},
{
name = top;
position = "{558, 1400}";
},
{
name = topleft;
position = "{-110, 1400}";
},
{
name = topright;
position = "{842, 1400}";
}
);
layerId = m004;
paths = (
{
closed = 0;
nodes = (
"730 -240 LINE",
"810 -240 OFFCURVE",
"850 -200 OFFCURVE",
"850 -120 CURVE SMOOTH",
"850 1280 LINE SMOOTH",
"850 1360 OFFCURVE",
"810 1400 OFFCURVE",
"730 1400 CURVE SMOOTH",
"370 1400 LINE SMOOTH",
"290 1400 OFFCURVE",
"250 1360 OFFCURVE",
"250 1280 CURVE SMOOTH",
"250 -120 LINE SMOOTH",
"250 -200 OFFCURVE",
"290 -240 OFFCURVE",
"370 -240 CURVE SMOOTH",
"730 -240 LINE"
);
},
{
closed = 0;
nodes = (
"850 120 LINE SMOOTH",
"850 52 OFFCURVE",
"902 0 OFFCURVE",
"968 0 CURVE SMOOTH {name = instroke_raise;}",
"1118 0 LINE"
);
}
);
width = 1118;
},
{
anchors = (
{
name = bottom;
position = "{558, -240}";
},
{
name = center;
position = "{484, 700}";
},
{
name = ogonek;
position = "{992, 20}";
},
{
name = top;
position = "{558, 1400}";
},
{
name = topleft;
position = "{-110, 1400}";
},
{
name = topright;
position = "{842, 1400}";
}
);
layerId = m005;
paths = (
{
closed = 0;
nodes = (
"730 -240 LINE",
"810 -240 OFFCURVE",
"850 -200 OFFCURVE",
"850 -120 CURVE SMOOTH",
"850 1280 LINE SMOOTH",
"850 1360 OFFCURVE",
"810 1400 OFFCURVE",
"730 1400 CURVE SMOOTH",
"370 1400 LINE SMOOTH",
"290 1400 OFFCURVE",
"250 1360 OFFCURVE",
"250 1280 CURVE SMOOTH",
"250 -120 LINE SMOOTH",
"250 -200 OFFCURVE",
"290 -240 OFFCURVE",
"370 -240 CURVE SMOOTH",
"730 -240 LINE"
);
},
{
closed = 0;
nodes = (
"850 120 LINE SMOOTH",
"850 52 OFFCURVE",
"902 0 OFFCURVE",
"968 0 CURVE SMOOTH {name = instroke_raise;}",
"1118 0 LINE"
);
}
);
width = 1118;
},
{
anchors = (
{
name = bottom;
position = "{558, -240}";
},
{
name = center;
position = "{484, 700}";
},
{
name = ogonek;
position = "{992, 20}";
},
{
name = top;
position = "{558, 1400}";
},
{
name = topleft;
position = "{-110, 1400}";
},
{
name = topright;
position = "{842, 1400}";
}
);
layerId = m006;
paths = (
{
closed = 0;
nodes = (
"730 -240 LINE",
"810 -240 OFFCURVE",
"850 -200 OFFCURVE",
"850 -120 CURVE SMOOTH",
"850 1280 LINE SMOOTH",
"850 1360 OFFCURVE",
"810 1400 OFFCURVE",
"730 1400 CURVE SMOOTH",
"370 1400 LINE SMOOTH",
"290 1400 OFFCURVE",
"250 1360 OFFCURVE",
"250 1280 CURVE SMOOTH",
"250 -120 LINE SMOOTH",
"250 -200 OFFCURVE",
"290 -240 OFFCURVE",
"370 -240 CURVE SMOOTH",
"730 -240 LINE"
);
},
{
closed = 0;
nodes = (
"850 120 LINE SMOOTH",
"850 52 OFFCURVE",
"902 0 OFFCURVE",
"968 0 CURVE SMOOTH {name = instroke_raise;}",
"1118 0 LINE"
);
}
);
width = 1118;
},
{
anchors = (
{
name = bottom;
position = "{558, -240}";
},
{
name = center;
position = "{484, 700}";
},
{
name = ogonek;
position = "{992, 20}";
},
{
name = top;
position = "{558, 1400}";
},
{
name = topleft;
position = "{-110, 1400}";
},
{
name = topright;
position = "{842, 1400}";
}
);
layerId = m007;
paths = (
{
closed = 0;
nodes = (
"730 -240 LINE",
"810 -240 OFFCURVE",
"850 -200 OFFCURVE",
"850 -120 CURVE SMOOTH",
"850 1280 LINE SMOOTH",
"850 1360 OFFCURVE",
"810 1400 OFFCURVE",
"730 1400 CURVE SMOOTH",
"370 1400 LINE SMOOTH",
"290 1400 OFFCURVE",
"250 1360 OFFCURVE",
"250 1280 CURVE SMOOTH",
"250 -120 LINE SMOOTH",
"250 -200 OFFCURVE",
"290 -240 OFFCURVE",
"370 -240 CURVE SMOOTH",
"730 -240 LINE"
);
},
{
closed = 0;
nodes = (
"850 120 LINE SMOOTH",
"850 52 OFFCURVE",
"902 0 OFFCURVE",
"968 0 CURVE SMOOTH {name = instroke_raise;}",
"1118 0 LINE"
);
}
);
width = 1118;
},
{
anchors = (
{
name = bottom;
position = "{558, -240}";
},
{
name = center;
position = "{484, 700}";
},
{
name = ogonek;
position = "{992, 20}";
},
{
name = top;
position = "{558, 1400}";
},
{
name = topleft;
position = "{-110, 1400}";
},
{
name = topright;
position = "{842, 1400}";
}
);
layerId = m008;
paths = (
{
closed = 0;
nodes = (
"730 -240 LINE",
"810 -240 OFFCURVE",
"850 -200 OFFCURVE",
"850 -120 CURVE SMOOTH",
"850 1280 LINE SMOOTH",
"850 1360 OFFCURVE",
"810 1400 OFFCURVE",
"730 1400 CURVE SMOOTH",
"370 1400 LINE SMOOTH",
"290 1400 OFFCURVE",
"250 1360 OFFCURVE",
"250 1280 CURVE SMOOTH",
"250 -120 LINE SMOOTH",
"250 -200 OFFCURVE",
"290 -240 OFFCURVE",
"370 -240 CURVE SMOOTH",
"730 -240 LINE"
);
},
{
closed = 0;
nodes = (
"850 120 LINE SMOOTH",
"850 52 OFFCURVE",
"902 0 OFFCURVE",
"968 0 CURVE SMOOTH {name = instroke_raise;}",
"1118 0 LINE"
);
}
);
width = 1118;
}
);
leftKerningGroup = O;
rightKerningGroup = H;
unicode = 004F;
},
{
glyphname = Oslash;
lastChange = "2021-04-29 02:47:43 +0000";
layers = (
{
anchors = (
{
name = bottom;
position = "{600, 0}";
},
{
name = top;
position = "{600, 1400}";
}
);
components = (
{
name = O;
}
);
layerId = m003;
paths = (
{
closed = 0;
nodes = (
"934 1522 LINE",
"170 -380 LINE"
);
}
);
width = 1118;
},
{
anchors = (
{
name = bottom;
position = "{600, 0}";
},
{
name = top;
position = "{600, 1400}";
}
);
components = (
{
name = O;
}
);
layerId = m002;
paths = (
{
closed = 0;
nodes = (
"934 1522 LINE",
"170 -380 LINE"
);
}
);
width = 1118;
},
{
anchors = (
{
name = bottom;
position = "{600, 0}";
},
{
name = top;
position = "{600, 1400}";
}
);
components = (
{
name = O;
}
);
layerId = m004;
paths = (
{
closed = 0;
nodes = (
"934 1522 LINE",
"170 -380 LINE"
);
}
);
width = 1118;
},
{
anchors = (
{
name = bottom;
position = "{600, 0}";
},
{
name = top;
position = "{600, 1400}";
}
);
components = (
{
name = O;
}
);
layerId = m005;
paths = (
{
closed = 0;
nodes = (
"934 1522 LINE",
"170 -380 LINE"
);
}
);
width = 1118;
},
{
anchors = (
{
name = bottom;
position = "{600, 0}";
},
{
name = top;
position = "{600, 1400}";
}
);
components = (
{
name = O;
}
);
layerId = m006;
paths = (
{
closed = 0;
nodes = (
"934 1522 LINE",
"170 -380 LINE"
);
}
);
width = 1118;
},
{
anchors = (
{
name = bottom;
position = "{600, 0}";
},
{
name = top;
position = "{600, 1400}";
}
);
components = (
{
name = O;
}
);
layerId = m007;
paths = (
{
closed = 0;
nodes = (
"934 1522 LINE",
"170 -380 LINE"
);
}
);
width = 1118;
},
{
anchors = (
{
name = bottom;
position = "{600, 0}";
},
{
name = top;
position = "{600, 1400}";
}
);
components = (
{
name = O;
}
);
layerId = m008;
paths = (
{
closed = 0;
nodes = (
"934 1522 LINE",
"170 -380 LINE"
);
}
);
width = 1118;
}
);
leftKerningGroup = O;
rightKerningGroup = H;
unicode = 00D8;
},
{
glyphname = OE;
lastChange = "2021-04-29 02:47:43 +0000";
layers = (
{
anchors = (
{
name = bottom;
position = "{600, 0}";
},
{
name = center;
position = "{484, 700}";
},
{
name = ogonek;
position = "{992, 20}";
},
{
name = top;
position = "{600, 1400}";
},
{
name = topleft;
position = "{-110, 1400}";
},
{
name = topright;
position = "{842, 1400}";
}
);
layerId = m003;
paths = (
{
closed = 0;
nodes = (
"730 -240 LINE",
"850 -240 LINE",
"850 1400 LINE",
"730 1400 LINE",
"370 1400 LINE SMOOTH",
"290 1400 OFFCURVE",
"250 1360 OFFCURVE",
"250 1280 CURVE SMOOTH",
"250 -120 LINE SMOOTH",
"250 -200 OFFCURVE",
"290 -240 OFFCURVE",
"370 -240 CURVE SMOOTH",
"730 -240 LINE"
);
},
{
closed = 0;
nodes = (
"1230 460 LINE",
"970 460 LINE",
"850 460 LINE",
"850 -240 LINE",
"970 -240 LINE",
"1310 -240 LINE",
"1432 -240 OFFCURVE",
"1500 -172 OFFCURVE",
"1500 -50 CURVE",
"1500 220 LINE"
);
},
{
closed = 0;
nodes = (
"1500 120 LINE",
"1500 44 OFFCURVE",
"1542 0 OFFCURVE",
"1618 0 CURVE SMOOTH {name = instroke_raise;}",
"1728 0 LINE"
);
},
{
closed = 0;
nodes = (
"1340 860 LINE",
"1380 1280 LINE SMOOTH",
"1388 1356 OFFCURVE",
"1346 1400 OFFCURVE",
"1260 1400 CURVE SMOOTH",
"970 1400 LINE",
"850 1400 LINE",
"850 460 LINE",
"970 460 LINE"
);
}
);
width = 1726;
},
{
anchors = (
{
name = bottom;
position = "{600, 0}";
},
{
name = center;
position = "{484, 700}";
},
{
name = ogonek;
position = "{992, 20}";
},
{
name = top;
position = "{600, 1400}";
},
{
name = topleft;
position = "{-110, 1400}";
},
{
name = topright;
position = "{842, 1400}";
}
);
layerId = m002;
paths = (
{
closed = 0;
nodes = (
"730 -240 LINE",
"850 -240 LINE",
"850 1400 LINE",
"730 1400 LINE",
"370 1400 LINE SMOOTH",
"290 1400 OFFCURVE",
"250 1360 OFFCURVE",
"250 1280 CURVE SMOOTH",
"250 -120 LINE SMOOTH",
"250 -200 OFFCURVE",
"290 -240 OFFCURVE",
"370 -240 CURVE SMOOTH",
"730 -240 LINE"
);
},
{
closed = 0;
nodes = (
"1230 460 LINE",
"970 460 LINE",
"850 460 LINE",
"850 -240 LINE",
"970 -240 LINE",
"1310 -240 LINE",
"1432 -240 OFFCURVE",
"1500 -172 OFFCURVE",
"1500 -50 CURVE",
"1500 220 LINE"
);
},
{
closed = 0;
nodes = (
"1500 120 LINE",
"1500 44 OFFCURVE",
"1542 0 OFFCURVE",
"1618 0 CURVE SMOOTH {name = instroke_raise;}",
"1728 0 LINE"
);
},
{
closed = 0;
nodes = (
"1340 860 LINE",
"1380 1280 LINE SMOOTH",
"1388 1356 OFFCURVE",
"1346 1400 OFFCURVE",
"1260 1400 CURVE SMOOTH",
"970 1400 LINE",
"850 1400 LINE",
"850 460 LINE",
"970 460 LINE"
);
}
);
width = 1726;
},
{
anchors = (
{
name = bottom;
position = "{600, 0}";
},
{
name = center;
position = "{484, 700}";
},
{
name = ogonek;
position = "{992, 20}";
},
{
name = top;
position = "{600, 1400}";
},
{
name = topleft;
position = "{-110, 1400}";
},
{
name = topright;
position = "{842, 1400}";
}
);
layerId = m004;
paths = (
{
closed = 0;
nodes = (
"730 -240 LINE",
"850 -240 LINE",
"850 1400 LINE",
"730 1400 LINE",
"370 1400 LINE SMOOTH",
"290 1400 OFFCURVE",
"250 1360 OFFCURVE",
"250 1280 CURVE SMOOTH",
"250 -120 LINE SMOOTH",
"250 -200 OFFCURVE",
"290 -240 OFFCURVE",
"370 -240 CURVE SMOOTH",
"730 -240 LINE"
);
},
{
closed = 0;
nodes = (
"1230 460 LINE",
"970 460 LINE",
"850 460 LINE",
"850 -240 LINE",
"970 -240 LINE",
"1310 -240 LINE",
"1432 -240 OFFCURVE",
"1500 -172 OFFCURVE",
"1500 -50 CURVE",
"1500 220 LINE"
);
},
{
closed = 0;
nodes = (
"1500 120 LINE",
"1500 44 OFFCURVE",
"1542 0 OFFCURVE",
"1618 0 CURVE SMOOTH {name = instroke_raise;}",
"1728 0 LINE"
);
},
{
closed = 0;
nodes = (
"1340 860 LINE",
"1380 1280 LINE SMOOTH",
"1388 1356 OFFCURVE",
"1346 1400 OFFCURVE",
"1260 1400 CURVE SMOOTH",
"970 1400 LINE",
"850 1400 LINE",
"850 460 LINE",
"970 460 LINE"
);
}
);
width = 1726;
},
{
anchors = (
{
name = bottom;
position = "{600, 0}";
},
{
name = center;
position = "{484, 700}";
},
{
name = ogonek;
position = "{992, 20}";
},
{
name = top;
position = "{600, 1400}";
},
{
name = topleft;
position = "{-110, 1400}";
},
{
name = topright;
position = "{842, 1400}";
}
);
layerId = m005;
paths = (
{
closed = 0;
nodes = (
"730 -240 LINE",
"850 -240 LINE",
"850 1400 LINE",
"730 1400 LINE",
"370 1400 LINE SMOOTH",
"290 1400 OFFCURVE",
"250 1360 OFFCURVE",
"250 1280 CURVE SMOOTH",
"250 -120 LINE SMOOTH",
"250 -200 OFFCURVE",
"290 -240 OFFCURVE",
"370 -240 CURVE SMOOTH",
"730 -240 LINE"
);
},
{
closed = 0;
nodes = (
"1230 460 LINE",
"970 460 LINE",
"850 460 LINE",
"850 -240 LINE",
"970 -240 LINE",
"1310 -240 LINE",
"1432 -240 OFFCURVE",
"1500 -172 OFFCURVE",
"1500 -50 CURVE",
"1500 220 LINE"
);
},
{
closed = 0;
nodes = (
"1500 120 LINE",
"1500 44 OFFCURVE",
"1542 0 OFFCURVE",
"1618 0 CURVE SMOOTH {name = instroke_raise;}",
"1728 0 LINE"
);
},
{
closed = 0;
nodes = (
"1340 860 LINE",
"1380 1280 LINE SMOOTH",
"1388 1356 OFFCURVE",
"1346 1400 OFFCURVE",
"1260 1400 CURVE SMOOTH",
"970 1400 LINE",
"850 1400 LINE",
"850 460 LINE",
"970 460 LINE"
);
}
);
width = 1726;
},
{
anchors = (
{
name = bottom;
position = "{600, 0}";
},
{
name = center;
position = "{484, 700}";
},
{
name = ogonek;
position = "{992, 20}";
},
{
name = top;
position = "{600, 1400}";
},
{
name = topleft;
position = "{-110, 1400}";
},
{
name = topright;
position = "{842, 1400}";
}
);
layerId = m006;
paths = (
{
closed = 0;
nodes = (
"730 -240 LINE",
"850 -240 LINE",
"850 1400 LINE",
"730 1400 LINE",
"370 1400 LINE SMOOTH",
"290 1400 OFFCURVE",
"250 1360 OFFCURVE",
"250 1280 CURVE SMOOTH",
"250 -120 LINE SMOOTH",
"250 -200 OFFCURVE",
"290 -240 OFFCURVE",
"370 -240 CURVE SMOOTH",
"730 -240 LINE"
);
},
{
closed = 0;
nodes = (
"1230 460 LINE",
"970 460 LINE",
"850 460 LINE",
"850 -240 LINE",
"970 -240 LINE",
"1310 -240 LINE",
"1432 -240 OFFCURVE",
"1500 -172 OFFCURVE",
"1500 -50 CURVE",
"1500 220 LINE"
);
},
{
closed = 0;
nodes = (
"1500 120 LINE",
"1500 44 OFFCURVE",
"1542 0 OFFCURVE",
"1618 0 CURVE SMOOTH {name = instroke_raise;}",
"1728 0 LINE"
);
},
{
closed = 0;
nodes = (
"1340 860 LINE",
"1380 1280 LINE SMOOTH",
"1388 1356 OFFCURVE",
"1346 1400 OFFCURVE",
"1260 1400 CURVE SMOOTH",
"970 1400 LINE",
"850 1400 LINE",
"850 460 LINE",
"970 460 LINE"
);
}
);
width = 1726;
},
{
anchors = (
{
name = bottom;
position = "{600, 0}";
},
{
name = center;
position = "{484, 700}";
},
{
name = ogonek;
position = "{992, 20}";
},
{
name = top;
position = "{600, 1400}";
},
{
name = topleft;
position = "{-110, 1400}";
},
{
name = topright;
position = "{842, 1400}";
}
);
layerId = m007;
paths = (
{
closed = 0;
nodes = (
"730 -240 LINE",
"850 -240 LINE",
"850 1400 LINE",
"730 1400 LINE",
"370 1400 LINE SMOOTH",
"290 1400 OFFCURVE",
"250 1360 OFFCURVE",
"250 1280 CURVE SMOOTH",
"250 -120 LINE SMOOTH",
"250 -200 OFFCURVE",
"290 -240 OFFCURVE",
"370 -240 CURVE SMOOTH",
"730 -240 LINE"
);
},
{
closed = 0;
nodes = (
"1230 460 LINE",
"970 460 LINE",
"850 460 LINE",
"850 -240 LINE",
"970 -240 LINE",
"1310 -240 LINE",
"1432 -240 OFFCURVE",
"1500 -172 OFFCURVE",
"1500 -50 CURVE",
"1500 220 LINE"
);
},
{
closed = 0;
nodes = (
"1500 120 LINE",
"1500 44 OFFCURVE",
"1542 0 OFFCURVE",
"1618 0 CURVE SMOOTH {name = instroke_raise;}",
"1728 0 LINE"
);
},
{
closed = 0;
nodes = (
"1340 860 LINE",
"1380 1280 LINE SMOOTH",
"1388 1356 OFFCURVE",
"1346 1400 OFFCURVE",
"1260 1400 CURVE SMOOTH",
"970 1400 LINE",
"850 1400 LINE",
"850 460 LINE",
"970 460 LINE"
);
}
);
width = 1726;
},
{
anchors = (
{
name = bottom;
position = "{600, 0}";
},
{
name = center;
position = "{484, 700}";
},
{
name = ogonek;
position = "{992, 20}";
},
{
name = top;
position = "{600, 1400}";
},
{
name = topleft;
position = "{-110, 1400}";
},
{
name = topright;
position = "{842, 1400}";
}
);
layerId = m008;
paths = (
{
closed = 0;
nodes = (
"730 -240 LINE",
"850 -240 LINE",
"850 1400 LINE",
"730 1400 LINE",
"370 1400 LINE SMOOTH",
"290 1400 OFFCURVE",
"250 1360 OFFCURVE",
"250 1280 CURVE SMOOTH",
"250 -120 LINE SMOOTH",
"250 -200 OFFCURVE",
"290 -240 OFFCURVE",
"370 -240 CURVE SMOOTH",
"730 -240 LINE"
);
},
{
closed = 0;
nodes = (
"1230 460 LINE",
"970 460 LINE",
"850 460 LINE",
"850 -240 LINE",
"970 -240 LINE",
"1310 -240 LINE",
"1432 -240 OFFCURVE",
"1500 -172 OFFCURVE",
"1500 -50 CURVE",
"1500 220 LINE"
);
},
{
closed = 0;
nodes = (
"1500 120 LINE",
"1500 44 OFFCURVE",
"1542 0 OFFCURVE",
"1618 0 CURVE SMOOTH {name = instroke_raise;}",
"1728 0 LINE"
);
},
{
closed = 0;
nodes = (
"1340 860 LINE",
"1380 1280 LINE SMOOTH",
"1388 1356 OFFCURVE",
"1346 1400 OFFCURVE",
"1260 1400 CURVE SMOOTH",
"970 1400 LINE",
"850 1400 LINE",
"850 460 LINE",
"970 460 LINE"
);
}
);
width = 1726;
}
);
leftKerningGroup = O;
rightKerningGroup = E;
unicode = 0152;
},
{
glyphname = P;
lastChange = "2021-04-29 02:47:43 +0000";
layers = (
{
anchors = (
{
name = bottom;
position = "{366, -240}";
},
{
name = top;
position = "{640, 1400}";
}
);
layerId = m003;
paths = (
{
closed = 0;
nodes = (
"818 220 LINE",
"898 220 OFFCURVE",
"932 260 OFFCURVE",
"938 340 CURVE SMOOTH",
"998 1280 LINE SMOOTH",
"1004 1360 OFFCURVE",
"958 1400 OFFCURVE",
"878 1400 CURVE",
"368 1400 LINE",
"368 220 LINE",
"818 220 LINE"
);
},
{
closed = 0;
nodes = (
"368 220 LINE",
"368 -240 LINE"
);
},
{
closed = 0;
nodes = (
"68 1400 LINE",
"68 1400 OFFCURVE",
"568 1400 OFFCURVE",
"568 1400 CURVE"
);
}
);
width = 1198;
},
{
anchors = (
{
name = bottom;
position = "{366, -240}";
},
{
name = top;
position = "{640, 1400}";
}
);
layerId = m002;
paths = (
{
closed = 0;
nodes = (
"818 220 LINE",
"898 220 OFFCURVE",
"932 260 OFFCURVE",
"938 340 CURVE SMOOTH",
"998 1280 LINE SMOOTH",
"1004 1360 OFFCURVE",
"958 1400 OFFCURVE",
"878 1400 CURVE",
"368 1400 LINE",
"368 220 LINE",
"818 220 LINE"
);
},
{
closed = 0;
nodes = (
"368 220 LINE",
"368 -240 LINE"
);
},
{
closed = 0;
nodes = (
"68 1400 LINE",
"68 1400 OFFCURVE",
"568 1400 OFFCURVE",
"568 1400 CURVE"
);
}
);
width = 1198;
},
{
anchors = (
{
name = bottom;
position = "{366, -240}";
},
{
name = top;
position = "{640, 1400}";
}
);
layerId = m004;
paths = (
{
closed = 0;
nodes = (
"818 220 LINE",
"898 220 OFFCURVE",
"932 260 OFFCURVE",
"938 340 CURVE SMOOTH",
"998 1280 LINE SMOOTH",
"1004 1360 OFFCURVE",
"958 1400 OFFCURVE",
"878 1400 CURVE",
"368 1400 LINE",
"368 220 LINE",
"818 220 LINE"
);
},
{
closed = 0;
nodes = (
"368 220 LINE",
"368 -240 LINE"
);
},
{
closed = 0;
nodes = (
"68 1400 LINE",
"68 1400 OFFCURVE",
"568 1400 OFFCURVE",
"568 1400 CURVE"
);
}
);
width = 1198;
},
{
anchors = (
{
name = bottom;
position = "{366, -240}";
},
{
name = top;
position = "{640, 1400}";
}
);
layerId = m005;
paths = (
{
closed = 0;
nodes = (
"818 220 LINE",
"898 220 OFFCURVE",
"932 260 OFFCURVE",
"938 340 CURVE SMOOTH",
"998 1280 LINE SMOOTH",
"1004 1360 OFFCURVE",
"958 1400 OFFCURVE",
"878 1400 CURVE",
"368 1400 LINE",
"368 220 LINE",
"818 220 LINE"
);
},
{
closed = 0;
nodes = (
"368 220 LINE",
"368 -240 LINE"
);
},
{
closed = 0;
nodes = (
"68 1400 LINE",
"68 1400 OFFCURVE",
"568 1400 OFFCURVE",
"568 1400 CURVE"
);
}
);
width = 1198;
},
{
anchors = (
{
name = bottom;
position = "{366, -240}";
},
{
name = top;
position = "{640, 1400}";
}
);
layerId = m006;
paths = (
{
closed = 0;
nodes = (
"818 220 LINE",
"898 220 OFFCURVE",
"932 260 OFFCURVE",
"938 340 CURVE SMOOTH",
"998 1280 LINE SMOOTH",
"1004 1360 OFFCURVE",
"958 1400 OFFCURVE",
"878 1400 CURVE",
"368 1400 LINE",
"368 220 LINE",
"818 220 LINE"
);
},
{
closed = 0;
nodes = (
"368 220 LINE",
"368 -240 LINE"
);
},
{
closed = 0;
nodes = (
"68 1400 LINE",
"68 1400 OFFCURVE",
"568 1400 OFFCURVE",
"568 1400 CURVE"
);
}
);
width = 1198;
},
{
anchors = (
{
name = bottom;
position = "{366, -240}";
},
{
name = top;
position = "{640, 1400}";
}
);
layerId = m007;
paths = (
{
closed = 0;
nodes = (
"818 220 LINE",
"898 220 OFFCURVE",
"932 260 OFFCURVE",
"938 340 CURVE SMOOTH",
"998 1280 LINE SMOOTH",
"1004 1360 OFFCURVE",
"958 1400 OFFCURVE",
"878 1400 CURVE",
"368 1400 LINE",
"368 220 LINE",
"818 220 LINE"
);
},
{
closed = 0;
nodes = (
"368 220 LINE",
"368 -240 LINE"
);
},
{
closed = 0;
nodes = (
"68 1400 LINE",
"68 1400 OFFCURVE",
"568 1400 OFFCURVE",
"568 1400 CURVE"
);
}
);
width = 1198;
},
{
anchors = (
{
name = bottom;
position = "{366, -240}";
},
{
name = top;
position = "{640, 1400}";
}
);
layerId = m008;
paths = (
{
closed = 0;
nodes = (
"818 220 LINE",
"898 220 OFFCURVE",
"932 260 OFFCURVE",
"938 340 CURVE SMOOTH",
"998 1280 LINE SMOOTH",
"1004 1360 OFFCURVE",
"958 1400 OFFCURVE",
"878 1400 CURVE",
"368 1400 LINE",
"368 220 LINE",
"818 220 LINE"
);
},
{
closed = 0;
nodes = (
"368 220 LINE",
"368 -240 LINE"
);
},
{
closed = 0;
nodes = (
"68 1400 LINE",
"68 1400 OFFCURVE",
"568 1400 OFFCURVE",
"568 1400 CURVE"
);
}
);
width = 1198;
}
);
leftKerningGroup = D;
rightKerningGroup = P;
unicode = 0050;
},
{
glyphname = Thorn;
lastChange = "2021-04-29 02:47:43 +0000";
layers = (
{
anchors = (
{
name = bottom;
position = "{500, 0}";
},
{
name = top;
position = "{500, 1400}";
}
);
layerId = m003;
paths = (
{
closed = 1;
nodes = (
"898 0 OFFCURVE",
"932 40 OFFCURVE",
"938 120 CURVE SMOOTH",
"998 1060 LINE SMOOTH",
"1004 1140 OFFCURVE",
"958 1180 OFFCURVE",
"878 1180 CURVE",
"368 1180 LINE",
"368 0 LINE",
"818 0 LINE SMOOTH"
);
},
{
closed = 0;
nodes = (
"118 1400 LINE",
"368 1400 LINE",
"368 1280 LINE",
"368 -400 LINE"
);
},
{
closed = 0;
nodes = (
"938 120 LINE SMOOTH",
"938 52 OFFCURVE",
"990 0 OFFCURVE",
"1056 0 CURVE SMOOTH {name = instroke_raise;}",
"1206 0 LINE"
);
}
);
width = 1206;
},
{
anchors = (
{
name = bottom;
position = "{500, 0}";
},
{
name = top;
position = "{500, 1400}";
}
);
layerId = m002;
paths = (
{
closed = 1;
nodes = (
"898 0 OFFCURVE",
"932 40 OFFCURVE",
"938 120 CURVE SMOOTH",
"998 1060 LINE SMOOTH",
"1004 1140 OFFCURVE",
"958 1180 OFFCURVE",
"878 1180 CURVE",
"368 1180 LINE",
"368 0 LINE",
"818 0 LINE SMOOTH"
);
},
{
closed = 0;
nodes = (
"118 1400 LINE",
"368 1400 LINE",
"368 1280 LINE",
"368 -400 LINE"
);
},
{
closed = 0;
nodes = (
"938 120 LINE SMOOTH",
"938 52 OFFCURVE",
"990 0 OFFCURVE",
"1056 0 CURVE SMOOTH {name = instroke_raise;}",
"1206 0 LINE"
);
}
);
width = 1206;
},
{
anchors = (
{
name = bottom;
position = "{500, 0}";
},
{
name = top;
position = "{500, 1400}";
}
);
layerId = m004;
paths = (
{
closed = 1;
nodes = (
"898 0 OFFCURVE",
"932 40 OFFCURVE",
"938 120 CURVE SMOOTH",
"998 1060 LINE SMOOTH",
"1004 1140 OFFCURVE",
"958 1180 OFFCURVE",
"878 1180 CURVE",
"368 1180 LINE",
"368 0 LINE",
"818 0 LINE SMOOTH"
);
},
{
closed = 0;
nodes = (
"118 1400 LINE",
"368 1400 LINE",
"368 1280 LINE",
"368 -400 LINE"
);
},
{
closed = 0;
nodes = (
"938 120 LINE SMOOTH",
"938 52 OFFCURVE",
"990 0 OFFCURVE",
"1056 0 CURVE SMOOTH {name = instroke_raise;}",
"1206 0 LINE"
);
}
);
width = 1206;
},
{
anchors = (
{
name = bottom;
position = "{500, 0}";
},
{
name = top;
position = "{500, 1400}";
}
);
layerId = m005;
paths = (
{
closed = 1;
nodes = (
"898 0 OFFCURVE",
"932 40 OFFCURVE",
"938 120 CURVE SMOOTH",
"998 1060 LINE SMOOTH",
"1004 1140 OFFCURVE",
"958 1180 OFFCURVE",
"878 1180 CURVE",
"368 1180 LINE",
"368 0 LINE",
"818 0 LINE SMOOTH"
);
},
{
closed = 0;
nodes = (
"118 1400 LINE",
"368 1400 LINE",
"368 1280 LINE",
"368 -400 LINE"
);
},
{
closed = 0;
nodes = (
"938 120 LINE SMOOTH",
"938 52 OFFCURVE",
"990 0 OFFCURVE",
"1056 0 CURVE SMOOTH {name = instroke_raise;}",
"1206 0 LINE"
);
}
);
width = 1206;
},
{
anchors = (
{
name = bottom;
position = "{500, 0}";
},
{
name = top;
position = "{500, 1400}";
}
);
layerId = m006;
paths = (
{
closed = 1;
nodes = (
"898 0 OFFCURVE",
"932 40 OFFCURVE",
"938 120 CURVE SMOOTH",
"998 1060 LINE SMOOTH",
"1004 1140 OFFCURVE",
"958 1180 OFFCURVE",
"878 1180 CURVE",
"368 1180 LINE",
"368 0 LINE",
"818 0 LINE SMOOTH"
);
},
{
closed = 0;
nodes = (
"118 1400 LINE",
"368 1400 LINE",
"368 1280 LINE",
"368 -400 LINE"
);
},
{
closed = 0;
nodes = (
"938 120 LINE SMOOTH",
"938 52 OFFCURVE",
"990 0 OFFCURVE",
"1056 0 CURVE SMOOTH {name = instroke_raise;}",
"1206 0 LINE"
);
}
);
width = 1206;
},
{
anchors = (
{
name = bottom;
position = "{500, 0}";
},
{
name = top;
position = "{500, 1400}";
}
);
layerId = m007;
paths = (
{
closed = 1;
nodes = (
"898 0 OFFCURVE",
"932 40 OFFCURVE",
"938 120 CURVE SMOOTH",
"998 1060 LINE SMOOTH",
"1004 1140 OFFCURVE",
"958 1180 OFFCURVE",
"878 1180 CURVE",
"368 1180 LINE",
"368 0 LINE",
"818 0 LINE SMOOTH"
);
},
{
closed = 0;
nodes = (
"118 1400 LINE",
"368 1400 LINE",
"368 1280 LINE",
"368 -400 LINE"
);
},
{
closed = 0;
nodes = (
"938 120 LINE SMOOTH",
"938 52 OFFCURVE",
"990 0 OFFCURVE",
"1056 0 CURVE SMOOTH {name = instroke_raise;}",
"1206 0 LINE"
);
}
);
width = 1206;
},
{
anchors = (
{
name = bottom;
position = "{500, 0}";
},
{
name = top;
position = "{500, 1400}";
}
);
layerId = m008;
paths = (
{
closed = 1;
nodes = (
"898 0 OFFCURVE",
"932 40 OFFCURVE",
"938 120 CURVE SMOOTH",
"998 1060 LINE SMOOTH",
"1004 1140 OFFCURVE",
"958 1180 OFFCURVE",
"878 1180 CURVE",
"368 1180 LINE",
"368 0 LINE",
"818 0 LINE SMOOTH"
);
},
{
closed = 0;
nodes = (
"118 1400 LINE",
"368 1400 LINE",
"368 1280 LINE",
"368 -400 LINE"
);
},
{
closed = 0;
nodes = (
"938 120 LINE SMOOTH",
"938 52 OFFCURVE",
"990 0 OFFCURVE",
"1056 0 CURVE SMOOTH {name = instroke_raise;}",
"1206 0 LINE"
);
}
);
width = 1206;
}
);
leftKerningGroup = D;
rightKerningGroup = Thorn;
unicode = 00DE;
},
{
glyphname = Q;
lastChange = "2021-04-29 02:47:43 +0000";
layers = (
{
anchors = (
{
name = bottom;
position = "{530, 0}";
},
{
name = top;
position = "{530, 1400}";
}
);
layerId = m003;
paths = (
{
closed = 0;
nodes = (
"210 716 LINE",
"210 1280 LINE SMOOTH",
"210 1360 OFFCURVE",
"250 1400 OFFCURVE",
"330 1400 CURVE SMOOTH",
"720 1400 LINE SMOOTH",
"800 1400 OFFCURVE",
"844 1360 OFFCURVE",
"840 1280 CURVE SMOOTH",
"774 120 LINE SMOOTH",
"770 40 OFFCURVE",
"734 0 OFFCURVE",
"654 0 CURVE SMOOTH",
"376 0 LINE"
);
},
{
closed = 0;
nodes = (
"770 -400 LINE",
"624 -400 LINE SMOOTH",
"544 -400 OFFCURVE",
"502 -360 OFFCURVE",
"504 -280 CURVE SMOOTH",
"510 0 LINE"
);
},
{
closed = 0;
nodes = (
"774 120 LINE",
"774 52 OFFCURVE",
"826 0 OFFCURVE",
"892 0 CURVE SMOOTH {name = instroke_raise;}",
"1042 0 LINE"
);
},
{
closed = 1;
nodes = (
"508 120 LINE",
"508 240 LINE SMOOTH",
"508 320 OFFCURVE",
"468 360 OFFCURVE",
"388 360 CURVE SMOOTH",
"330 360 LINE SMOOTH",
"250 360 OFFCURVE",
"210 320 OFFCURVE",
"210 240 CURVE SMOOTH",
"210 120 LINE SMOOTH",
"210 40 OFFCURVE",
"250 0 OFFCURVE",
"330 0 CURVE SMOOTH",
"508 0 LINE"
);
}
);
width = 1042;
},
{
anchors = (
{
name = bottom;
position = "{530, 0}";
},
{
name = top;
position = "{530, 1400}";
}
);
layerId = m002;
paths = (
{
closed = 0;
nodes = (
"210 716 LINE",
"210 1280 LINE SMOOTH",
"210 1360 OFFCURVE",
"250 1400 OFFCURVE",
"330 1400 CURVE SMOOTH",
"720 1400 LINE SMOOTH",
"800 1400 OFFCURVE",
"844 1360 OFFCURVE",
"840 1280 CURVE SMOOTH",
"774 120 LINE SMOOTH",
"770 40 OFFCURVE",
"734 0 OFFCURVE",
"654 0 CURVE SMOOTH",
"376 0 LINE"
);
},
{
closed = 0;
nodes = (
"770 -400 LINE",
"624 -400 LINE SMOOTH",
"544 -400 OFFCURVE",
"502 -360 OFFCURVE",
"504 -280 CURVE SMOOTH",
"510 0 LINE"
);
},
{
closed = 0;
nodes = (
"774 120 LINE",
"774 52 OFFCURVE",
"826 0 OFFCURVE",
"892 0 CURVE SMOOTH {name = instroke_raise;}",
"1042 0 LINE"
);
},
{
closed = 1;
nodes = (
"508 120 LINE",
"508 240 LINE SMOOTH",
"508 320 OFFCURVE",
"468 360 OFFCURVE",
"388 360 CURVE SMOOTH",
"330 360 LINE SMOOTH",
"250 360 OFFCURVE",
"210 320 OFFCURVE",
"210 240 CURVE SMOOTH",
"210 120 LINE SMOOTH",
"210 40 OFFCURVE",
"250 0 OFFCURVE",
"330 0 CURVE SMOOTH",
"508 0 LINE"
);
}
);
width = 1042;
},
{
anchors = (
{
name = bottom;
position = "{530, 0}";
},
{
name = top;
position = "{530, 1400}";
}
);
layerId = m004;
paths = (
{
closed = 0;
nodes = (
"210 716 LINE",
"210 1280 LINE SMOOTH",
"210 1360 OFFCURVE",
"250 1400 OFFCURVE",
"330 1400 CURVE SMOOTH",
"720 1400 LINE SMOOTH",
"800 1400 OFFCURVE",
"844 1360 OFFCURVE",
"840 1280 CURVE SMOOTH",
"774 120 LINE SMOOTH",
"770 40 OFFCURVE",
"734 0 OFFCURVE",
"654 0 CURVE SMOOTH",
"376 0 LINE"
);
},
{
closed = 0;
nodes = (
"770 -400 LINE",
"624 -400 LINE SMOOTH",
"544 -400 OFFCURVE",
"502 -360 OFFCURVE",
"504 -280 CURVE SMOOTH",
"510 0 LINE"
);
},
{
closed = 0;
nodes = (
"774 120 LINE",
"774 52 OFFCURVE",
"826 0 OFFCURVE",
"892 0 CURVE SMOOTH {name = instroke_raise;}",
"1042 0 LINE"
);
},
{
closed = 1;
nodes = (
"508 120 LINE",
"508 240 LINE SMOOTH",
"508 320 OFFCURVE",
"468 360 OFFCURVE",
"388 360 CURVE SMOOTH",
"330 360 LINE SMOOTH",
"250 360 OFFCURVE",
"210 320 OFFCURVE",
"210 240 CURVE SMOOTH",
"210 120 LINE SMOOTH",
"210 40 OFFCURVE",
"250 0 OFFCURVE",
"330 0 CURVE SMOOTH",
"508 0 LINE"
);
}
);
width = 1042;
},
{
anchors = (
{
name = bottom;
position = "{530, 0}";
},
{
name = top;
position = "{530, 1400}";
}
);
layerId = m005;
paths = (
{
closed = 0;
nodes = (
"210 716 LINE",
"210 1280 LINE SMOOTH",
"210 1360 OFFCURVE",
"250 1400 OFFCURVE",
"330 1400 CURVE SMOOTH",
"720 1400 LINE SMOOTH",
"800 1400 OFFCURVE",
"844 1360 OFFCURVE",
"840 1280 CURVE SMOOTH",
"774 120 LINE SMOOTH",
"770 40 OFFCURVE",
"734 0 OFFCURVE",
"654 0 CURVE SMOOTH",
"376 0 LINE"
);
},
{
closed = 0;
nodes = (
"770 -400 LINE",
"624 -400 LINE SMOOTH",
"544 -400 OFFCURVE",
"502 -360 OFFCURVE",
"504 -280 CURVE SMOOTH",
"510 0 LINE"
);
},
{
closed = 0;
nodes = (
"774 120 LINE",
"774 52 OFFCURVE",
"826 0 OFFCURVE",
"892 0 CURVE SMOOTH {name = instroke_raise;}",
"1042 0 LINE"
);
},
{
closed = 1;
nodes = (
"508 120 LINE",
"508 240 LINE SMOOTH",
"508 320 OFFCURVE",
"468 360 OFFCURVE",
"388 360 CURVE SMOOTH",
"330 360 LINE SMOOTH",
"250 360 OFFCURVE",
"210 320 OFFCURVE",
"210 240 CURVE SMOOTH",
"210 120 LINE SMOOTH",
"210 40 OFFCURVE",
"250 0 OFFCURVE",
"330 0 CURVE SMOOTH",
"508 0 LINE"
);
}
);
width = 1042;
},
{
anchors = (
{
name = bottom;
position = "{530, 0}";
},
{
name = top;
position = "{530, 1400}";
}
);
layerId = m006;
paths = (
{
closed = 0;
nodes = (
"210 716 LINE",
"210 1280 LINE SMOOTH",
"210 1360 OFFCURVE",
"250 1400 OFFCURVE",
"330 1400 CURVE SMOOTH",
"720 1400 LINE SMOOTH",
"800 1400 OFFCURVE",
"844 1360 OFFCURVE",
"840 1280 CURVE SMOOTH",
"774 120 LINE SMOOTH",
"770 40 OFFCURVE",
"734 0 OFFCURVE",
"654 0 CURVE SMOOTH",
"376 0 LINE"
);
},
{
closed = 0;
nodes = (
"770 -400 LINE",
"624 -400 LINE SMOOTH",
"544 -400 OFFCURVE",
"502 -360 OFFCURVE",
"504 -280 CURVE SMOOTH",
"510 0 LINE"
);
},
{
closed = 0;
nodes = (
"774 120 LINE",
"774 52 OFFCURVE",
"826 0 OFFCURVE",
"892 0 CURVE SMOOTH {name = instroke_raise;}",
"1042 0 LINE"
);
},
{
closed = 1;
nodes = (
"508 120 LINE",
"508 240 LINE SMOOTH",
"508 320 OFFCURVE",
"468 360 OFFCURVE",
"388 360 CURVE SMOOTH",
"330 360 LINE SMOOTH",
"250 360 OFFCURVE",
"210 320 OFFCURVE",
"210 240 CURVE SMOOTH",
"210 120 LINE SMOOTH",
"210 40 OFFCURVE",
"250 0 OFFCURVE",
"330 0 CURVE SMOOTH",
"508 0 LINE"
);
}
);
width = 1042;
},
{
anchors = (
{
name = bottom;
position = "{530, 0}";
},
{
name = top;
position = "{530, 1400}";
}
);
layerId = m007;
paths = (
{
closed = 0;
nodes = (
"210 716 LINE",
"210 1280 LINE SMOOTH",
"210 1360 OFFCURVE",
"250 1400 OFFCURVE",
"330 1400 CURVE SMOOTH",
"720 1400 LINE SMOOTH",
"800 1400 OFFCURVE",
"844 1360 OFFCURVE",
"840 1280 CURVE SMOOTH",
"774 120 LINE SMOOTH",
"770 40 OFFCURVE",
"734 0 OFFCURVE",
"654 0 CURVE SMOOTH",
"376 0 LINE"
);
},
{
closed = 0;
nodes = (
"770 -400 LINE",
"624 -400 LINE SMOOTH",
"544 -400 OFFCURVE",
"502 -360 OFFCURVE",
"504 -280 CURVE SMOOTH",
"510 0 LINE"
);
},
{
closed = 0;
nodes = (
"774 120 LINE",
"774 52 OFFCURVE",
"826 0 OFFCURVE",
"892 0 CURVE SMOOTH {name = instroke_raise;}",
"1042 0 LINE"
);
},
{
closed = 1;
nodes = (
"508 120 LINE",
"508 240 LINE SMOOTH",
"508 320 OFFCURVE",
"468 360 OFFCURVE",
"388 360 CURVE SMOOTH",
"330 360 LINE SMOOTH",
"250 360 OFFCURVE",
"210 320 OFFCURVE",
"210 240 CURVE SMOOTH",
"210 120 LINE SMOOTH",
"210 40 OFFCURVE",
"250 0 OFFCURVE",
"330 0 CURVE SMOOTH",
"508 0 LINE"
);
}
);
width = 1042;
},
{
anchors = (
{
name = bottom;
position = "{530, 0}";
},
{
name = top;
position = "{530, 1400}";
}
);
layerId = m008;
paths = (
{
closed = 0;
nodes = (
"210 716 LINE",
"210 1280 LINE SMOOTH",
"210 1360 OFFCURVE",
"250 1400 OFFCURVE",
"330 1400 CURVE SMOOTH",
"720 1400 LINE SMOOTH",
"800 1400 OFFCURVE",
"844 1360 OFFCURVE",
"840 1280 CURVE SMOOTH",
"774 120 LINE SMOOTH",
"770 40 OFFCURVE",
"734 0 OFFCURVE",
"654 0 CURVE SMOOTH",
"376 0 LINE"
);
},
{
closed = 0;
nodes = (
"770 -400 LINE",
"624 -400 LINE SMOOTH",
"544 -400 OFFCURVE",
"502 -360 OFFCURVE",
"504 -280 CURVE SMOOTH",
"510 0 LINE"
);
},
{
closed = 0;
nodes = (
"774 120 LINE",
"774 52 OFFCURVE",
"826 0 OFFCURVE",
"892 0 CURVE SMOOTH {name = instroke_raise;}",
"1042 0 LINE"
);
},
{
closed = 1;
nodes = (
"508 120 LINE",
"508 240 LINE SMOOTH",
"508 320 OFFCURVE",
"468 360 OFFCURVE",
"388 360 CURVE SMOOTH",
"330 360 LINE SMOOTH",
"250 360 OFFCURVE",
"210 320 OFFCURVE",
"210 240 CURVE SMOOTH",
"210 120 LINE SMOOTH",
"210 40 OFFCURVE",
"250 0 OFFCURVE",
"330 0 CURVE SMOOTH",
"508 0 LINE"
);
}
);
width = 1042;
}
);
leftKerningGroup = Q;
rightKerningGroup = D;
unicode = 0051;
},
{
glyphname = R;
lastChange = "2021-04-29 02:47:43 +0000";
layers = (
{
anchors = (
{
name = bottom;
position = "{663, -185}";
},
{
name = top;
position = "{592, 1400}";
}
);
layerId = m003;
paths = (
{
closed = 0;
nodes = (
"794 380 LINE",
"868 1280 LINE SMOOTH",
"875 1360 OFFCURVE",
"828 1400 OFFCURVE",
"748 1400 CURVE",
"68 1400 LINE"
);
},
{
closed = 0;
nodes = (
"968 -240 LINE",
"968 260 LINE SMOOTH",
"968 340 OFFCURVE",
"928 380 OFFCURVE",
"848 380 CURVE SMOOTH",
"368 380 LINE",
"368 -240 LINE"
);
},
{
closed = 0;
nodes = (
"968 120 LINE",
"968 52 OFFCURVE",
"1020 0 OFFCURVE",
"1086 0 CURVE SMOOTH {name = instroke_raise;}",
"1216 0 LINE"
);
},
{
closed = 0;
nodes = (
"368 1400 LINE",
"368 380 LINE"
);
}
);
width = 1216;
},
{
anchors = (
{
name = bottom;
position = "{663, -185}";
},
{
name = top;
position = "{592, 1400}";
}
);
layerId = m002;
paths = (
{
closed = 0;
nodes = (
"794 380 LINE",
"868 1280 LINE SMOOTH",
"875 1360 OFFCURVE",
"828 1400 OFFCURVE",
"748 1400 CURVE",
"68 1400 LINE"
);
},
{
closed = 0;
nodes = (
"968 -240 LINE",
"968 260 LINE SMOOTH",
"968 340 OFFCURVE",
"928 380 OFFCURVE",
"848 380 CURVE SMOOTH",
"368 380 LINE",
"368 -240 LINE"
);
},
{
closed = 0;
nodes = (
"968 120 LINE",
"968 52 OFFCURVE",
"1020 0 OFFCURVE",
"1086 0 CURVE SMOOTH {name = instroke_raise;}",
"1216 0 LINE"
);
},
{
closed = 0;
nodes = (
"368 1400 LINE",
"368 380 LINE"
);
}
);
width = 1216;
},
{
anchors = (
{
name = bottom;
position = "{663, -185}";
},
{
name = top;
position = "{592, 1400}";
}
);
layerId = m004;
paths = (
{
closed = 0;
nodes = (
"794 380 LINE",
"868 1280 LINE SMOOTH",
"875 1360 OFFCURVE",
"828 1400 OFFCURVE",
"748 1400 CURVE",
"68 1400 LINE"
);
},
{
closed = 0;
nodes = (
"968 -240 LINE",
"968 260 LINE SMOOTH",
"968 340 OFFCURVE",
"928 380 OFFCURVE",
"848 380 CURVE SMOOTH",
"368 380 LINE",
"368 -240 LINE"
);
},
{
closed = 0;
nodes = (
"968 120 LINE",
"968 52 OFFCURVE",
"1020 0 OFFCURVE",
"1086 0 CURVE SMOOTH {name = instroke_raise;}",
"1216 0 LINE"
);
},
{
closed = 0;
nodes = (
"368 1400 LINE",
"368 380 LINE"
);
}
);
width = 1216;
},
{
anchors = (
{
name = bottom;
position = "{663, -185}";
},
{
name = top;
position = "{592, 1400}";
}
);
layerId = m005;
paths = (
{
closed = 0;
nodes = (
"794 380 LINE",
"868 1280 LINE SMOOTH",
"875 1360 OFFCURVE",
"828 1400 OFFCURVE",
"748 1400 CURVE",
"68 1400 LINE"
);
},
{
closed = 0;
nodes = (
"968 -240 LINE",
"968 260 LINE SMOOTH",
"968 340 OFFCURVE",
"928 380 OFFCURVE",
"848 380 CURVE SMOOTH",
"368 380 LINE",
"368 -240 LINE"
);
},
{
closed = 0;
nodes = (
"968 120 LINE",
"968 52 OFFCURVE",
"1020 0 OFFCURVE",
"1086 0 CURVE SMOOTH {name = instroke_raise;}",
"1216 0 LINE"
);
},
{
closed = 0;
nodes = (
"368 1400 LINE",
"368 380 LINE"
);
}
);
width = 1216;
},
{
anchors = (
{
name = bottom;
position = "{663, -185}";
},
{
name = top;
position = "{592, 1400}";
}
);
layerId = m006;
paths = (
{
closed = 0;
nodes = (
"794 380 LINE",
"868 1280 LINE SMOOTH",
"875 1360 OFFCURVE",
"828 1400 OFFCURVE",
"748 1400 CURVE",
"68 1400 LINE"
);
},
{
closed = 0;
nodes = (
"968 -240 LINE",
"968 260 LINE SMOOTH",
"968 340 OFFCURVE",
"928 380 OFFCURVE",
"848 380 CURVE SMOOTH",
"368 380 LINE",
"368 -240 LINE"
);
},
{
closed = 0;
nodes = (
"968 120 LINE",
"968 52 OFFCURVE",
"1020 0 OFFCURVE",
"1086 0 CURVE SMOOTH {name = instroke_raise;}",
"1216 0 LINE"
);
},
{
closed = 0;
nodes = (
"368 1400 LINE",
"368 380 LINE"
);
}
);
width = 1216;
},
{
anchors = (
{
name = bottom;
position = "{663, -185}";
},
{
name = top;
position = "{592, 1400}";
}
);
layerId = m007;
paths = (
{
closed = 0;
nodes = (
"794 380 LINE",
"868 1280 LINE SMOOTH",
"875 1360 OFFCURVE",
"828 1400 OFFCURVE",
"748 1400 CURVE",
"68 1400 LINE"
);
},
{
closed = 0;
nodes = (
"968 -240 LINE",
"968 260 LINE SMOOTH",
"968 340 OFFCURVE",
"928 380 OFFCURVE",
"848 380 CURVE SMOOTH",
"368 380 LINE",
"368 -240 LINE"
);
},
{
closed = 0;
nodes = (
"968 120 LINE",
"968 52 OFFCURVE",
"1020 0 OFFCURVE",
"1086 0 CURVE SMOOTH {name = instroke_raise;}",
"1216 0 LINE"
);
},
{
closed = 0;
nodes = (
"368 1400 LINE",
"368 380 LINE"
);
}
);
width = 1216;
},
{
anchors = (
{
name = bottom;
position = "{663, -185}";
},
{
name = top;
position = "{592, 1400}";
}
);
layerId = m008;
paths = (
{
closed = 0;
nodes = (
"794 380 LINE",
"868 1280 LINE SMOOTH",
"875 1360 OFFCURVE",
"828 1400 OFFCURVE",
"748 1400 CURVE",
"68 1400 LINE"
);
},
{
closed = 0;
nodes = (
"968 -240 LINE",
"968 260 LINE SMOOTH",
"968 340 OFFCURVE",
"928 380 OFFCURVE",
"848 380 CURVE SMOOTH",
"368 380 LINE",
"368 -240 LINE"
);
},
{
closed = 0;
nodes = (
"968 120 LINE",
"968 52 OFFCURVE",
"1020 0 OFFCURVE",
"1086 0 CURVE SMOOTH {name = instroke_raise;}",
"1216 0 LINE"
);
},
{
closed = 0;
nodes = (
"368 1400 LINE",
"368 380 LINE"
);
}
);
width = 1216;
}
);
leftKerningGroup = D;
rightKerningGroup = R;
unicode = 0052;
},
{
glyphname = S;
lastChange = "2021-04-29 02:47:43 +0000";
layers = (
{
anchors = (
{
name = bottom;
position = "{510, -240}";
},
{
name = top;
position = "{524, 1400}";
}
);
layerId = m003;
paths = (
{
closed = 0;
nodes = (
"750 740 LINE",
"790 1280 LINE SMOOTH",
"796 1360 OFFCURVE",
"750 1400 OFFCURVE",
"670 1400 CURVE SMOOTH",
"370 1400 LINE SMOOTH",
"290 1400 OFFCURVE",
"250 1360 OFFCURVE",
"250 1280 CURVE SMOOTH",
"250 360 LINE SMOOTH",
"250 280 OFFCURVE",
"290 240 OFFCURVE",
"370 240 CURVE SMOOTH",
"650 240 LINE",
"730 240 OFFCURVE",
"770 200 OFFCURVE",
"770 120 CURVE",
"770 -120 LINE SMOOTH",
"770 -200 OFFCURVE",
"730 -240 OFFCURVE",
"650 -240 CURVE SMOOTH",
"370 -240 LINE SMOOTH",
"290 -240 OFFCURVE",
"250 -200 OFFCURVE",
"250 -120 CURVE SMOOTH"
);
},
{
closed = 0;
nodes = (
"770 120 LINE SMOOTH",
"770 52 OFFCURVE",
"822 0 OFFCURVE",
"888 0 CURVE SMOOTH {name = instroke_raise;}",
"998 0 LINE"
);
}
);
width = 998;
},
{
anchors = (
{
name = bottom;
position = "{510, -240}";
},
{
name = top;
position = "{524, 1400}";
}
);
layerId = m002;
paths = (
{
closed = 0;
nodes = (
"750 740 LINE",
"790 1280 LINE SMOOTH",
"796 1360 OFFCURVE",
"750 1400 OFFCURVE",
"670 1400 CURVE SMOOTH",
"370 1400 LINE SMOOTH",
"290 1400 OFFCURVE",
"250 1360 OFFCURVE",
"250 1280 CURVE SMOOTH",
"250 360 LINE SMOOTH",
"250 280 OFFCURVE",
"290 240 OFFCURVE",
"370 240 CURVE SMOOTH",
"650 240 LINE",
"730 240 OFFCURVE",
"770 200 OFFCURVE",
"770 120 CURVE",
"770 -120 LINE SMOOTH",
"770 -200 OFFCURVE",
"730 -240 OFFCURVE",
"650 -240 CURVE SMOOTH",
"370 -240 LINE SMOOTH",
"290 -240 OFFCURVE",
"250 -200 OFFCURVE",
"250 -120 CURVE SMOOTH"
);
},
{
closed = 0;
nodes = (
"770 120 LINE SMOOTH",
"770 52 OFFCURVE",
"822 0 OFFCURVE",
"888 0 CURVE SMOOTH {name = instroke_raise;}",
"998 0 LINE"
);
}
);
width = 998;
},
{
anchors = (
{
name = bottom;
position = "{510, -240}";
},
{
name = top;
position = "{524, 1400}";
}
);
layerId = m004;
paths = (
{
closed = 0;
nodes = (
"750 740 LINE",
"790 1280 LINE SMOOTH",
"796 1360 OFFCURVE",
"750 1400 OFFCURVE",
"670 1400 CURVE SMOOTH",
"370 1400 LINE SMOOTH",
"290 1400 OFFCURVE",
"250 1360 OFFCURVE",
"250 1280 CURVE SMOOTH",
"250 360 LINE SMOOTH",
"250 280 OFFCURVE",
"290 240 OFFCURVE",
"370 240 CURVE SMOOTH",
"650 240 LINE",
"730 240 OFFCURVE",
"770 200 OFFCURVE",
"770 120 CURVE",
"770 -120 LINE SMOOTH",
"770 -200 OFFCURVE",
"730 -240 OFFCURVE",
"650 -240 CURVE SMOOTH",
"370 -240 LINE SMOOTH",
"290 -240 OFFCURVE",
"250 -200 OFFCURVE",
"250 -120 CURVE SMOOTH"
);
},
{
closed = 0;
nodes = (
"770 120 LINE SMOOTH",
"770 52 OFFCURVE",
"822 0 OFFCURVE",
"888 0 CURVE SMOOTH {name = instroke_raise;}",
"998 0 LINE"
);
}
);
width = 998;
},
{
anchors = (
{
name = bottom;
position = "{510, -240}";
},
{
name = top;
position = "{524, 1400}";
}
);
layerId = m005;
paths = (
{
closed = 0;
nodes = (
"750 740 LINE",
"790 1280 LINE SMOOTH",
"796 1360 OFFCURVE",
"750 1400 OFFCURVE",
"670 1400 CURVE SMOOTH",
"370 1400 LINE SMOOTH",
"290 1400 OFFCURVE",
"250 1360 OFFCURVE",
"250 1280 CURVE SMOOTH",
"250 360 LINE SMOOTH",
"250 280 OFFCURVE",
"290 240 OFFCURVE",
"370 240 CURVE SMOOTH",
"650 240 LINE",
"730 240 OFFCURVE",
"770 200 OFFCURVE",
"770 120 CURVE",
"770 -120 LINE SMOOTH",
"770 -200 OFFCURVE",
"730 -240 OFFCURVE",
"650 -240 CURVE SMOOTH",
"370 -240 LINE SMOOTH",
"290 -240 OFFCURVE",
"250 -200 OFFCURVE",
"250 -120 CURVE SMOOTH"
);
},
{
closed = 0;
nodes = (
"770 120 LINE SMOOTH",
"770 52 OFFCURVE",
"822 0 OFFCURVE",
"888 0 CURVE SMOOTH {name = instroke_raise;}",
"998 0 LINE"
);
}
);
width = 998;
},
{
anchors = (
{
name = bottom;
position = "{510, -240}";
},
{
name = top;
position = "{524, 1400}";
}
);
layerId = m006;
paths = (
{
closed = 0;
nodes = (
"750 740 LINE",
"790 1280 LINE SMOOTH",
"796 1360 OFFCURVE",
"750 1400 OFFCURVE",
"670 1400 CURVE SMOOTH",
"370 1400 LINE SMOOTH",
"290 1400 OFFCURVE",
"250 1360 OFFCURVE",
"250 1280 CURVE SMOOTH",
"250 360 LINE SMOOTH",
"250 280 OFFCURVE",
"290 240 OFFCURVE",
"370 240 CURVE SMOOTH",
"650 240 LINE",
"730 240 OFFCURVE",
"770 200 OFFCURVE",
"770 120 CURVE",
"770 -120 LINE SMOOTH",
"770 -200 OFFCURVE",
"730 -240 OFFCURVE",
"650 -240 CURVE SMOOTH",
"370 -240 LINE SMOOTH",
"290 -240 OFFCURVE",
"250 -200 OFFCURVE",
"250 -120 CURVE SMOOTH"
);
},
{
closed = 0;
nodes = (
"770 120 LINE SMOOTH",
"770 52 OFFCURVE",
"822 0 OFFCURVE",
"888 0 CURVE SMOOTH {name = instroke_raise;}",
"998 0 LINE"
);
}
);
width = 998;
},
{
anchors = (
{
name = bottom;
position = "{510, -240}";
},
{
name = top;
position = "{524, 1400}";
}
);
layerId = m007;
paths = (
{
closed = 0;
nodes = (
"750 740 LINE",
"790 1280 LINE SMOOTH",
"796 1360 OFFCURVE",
"750 1400 OFFCURVE",
"670 1400 CURVE SMOOTH",
"370 1400 LINE SMOOTH",
"290 1400 OFFCURVE",
"250 1360 OFFCURVE",
"250 1280 CURVE SMOOTH",
"250 360 LINE SMOOTH",
"250 280 OFFCURVE",
"290 240 OFFCURVE",
"370 240 CURVE SMOOTH",
"650 240 LINE",
"730 240 OFFCURVE",
"770 200 OFFCURVE",
"770 120 CURVE",
"770 -120 LINE SMOOTH",
"770 -200 OFFCURVE",
"730 -240 OFFCURVE",
"650 -240 CURVE SMOOTH",
"370 -240 LINE SMOOTH",
"290 -240 OFFCURVE",
"250 -200 OFFCURVE",
"250 -120 CURVE SMOOTH"
);
},
{
closed = 0;
nodes = (
"770 120 LINE SMOOTH",
"770 52 OFFCURVE",
"822 0 OFFCURVE",
"888 0 CURVE SMOOTH {name = instroke_raise;}",
"998 0 LINE"
);
}
);
width = 998;
},
{
anchors = (
{
name = bottom;
position = "{510, -240}";
},
{
name = top;
position = "{524, 1400}";
}
);
layerId = m008;
paths = (
{
closed = 0;
nodes = (
"750 740 LINE",
"790 1280 LINE SMOOTH",
"796 1360 OFFCURVE",
"750 1400 OFFCURVE",
"670 1400 CURVE SMOOTH",
"370 1400 LINE SMOOTH",
"290 1400 OFFCURVE",
"250 1360 OFFCURVE",
"250 1280 CURVE SMOOTH",
"250 360 LINE SMOOTH",
"250 280 OFFCURVE",
"290 240 OFFCURVE",
"370 240 CURVE SMOOTH",
"650 240 LINE",
"730 240 OFFCURVE",
"770 200 OFFCURVE",
"770 120 CURVE",
"770 -120 LINE SMOOTH",
"770 -200 OFFCURVE",
"730 -240 OFFCURVE",
"650 -240 CURVE SMOOTH",
"370 -240 LINE SMOOTH",
"290 -240 OFFCURVE",
"250 -200 OFFCURVE",
"250 -120 CURVE SMOOTH"
);
},
{
closed = 0;
nodes = (
"770 120 LINE SMOOTH",
"770 52 OFFCURVE",
"822 0 OFFCURVE",
"888 0 CURVE SMOOTH {name = instroke_raise;}",
"998 0 LINE"
);
}
);
width = 998;
}
);
leftKerningGroup = S;
rightKerningGroup = S;
unicode = 0053;
},
{
glyphname = T;
lastChange = "2021-04-29 02:47:43 +0000";
layers = (
{
anchors = (
{
name = bottom;
position = "{550, -240}";
},
{
name = center;
position = "{550, 700}";
},
{
name = top;
position = "{550, 1400}";
}
);
layerId = m003;
paths = (
{
closed = 0;
nodes = (
"410 -240 LINE",
"650 -240 LINE"
);
},
{
closed = 0;
nodes = (
"1030 1400 LINE",
"490 1400 LINE",
"270 1400 LINE SMOOTH",
"190 1400 OFFCURVE",
"150 1360 OFFCURVE",
"150 1280 CURVE SMOOTH",
"150 980 LINE SMOOTH"
);
},
{
closed = 0;
nodes = (
"650 -240 LINE",
"730 -240 OFFCURVE",
"770 -200 OFFCURVE",
"770 -120 CURVE SMOOTH",
"770 1280 LINE SMOOTH",
"770 1360 OFFCURVE",
"810 1400 OFFCURVE",
"890 1400 CURVE"
);
}
);
width = 1150;
},
{
anchors = (
{
name = bottom;
position = "{550, -240}";
},
{
name = center;
position = "{550, 700}";
},
{
name = top;
position = "{550, 1400}";
}
);
layerId = m002;
paths = (
{
closed = 0;
nodes = (
"410 -240 LINE",
"650 -240 LINE"
);
},
{
closed = 0;
nodes = (
"1030 1400 LINE",
"490 1400 LINE",
"270 1400 LINE SMOOTH",
"190 1400 OFFCURVE",
"150 1360 OFFCURVE",
"150 1280 CURVE SMOOTH",
"150 980 LINE SMOOTH"
);
},
{
closed = 0;
nodes = (
"650 -240 LINE",
"730 -240 OFFCURVE",
"770 -200 OFFCURVE",
"770 -120 CURVE SMOOTH",
"770 1280 LINE SMOOTH",
"770 1360 OFFCURVE",
"810 1400 OFFCURVE",
"890 1400 CURVE"
);
}
);
width = 1150;
},
{
anchors = (
{
name = bottom;
position = "{550, -240}";
},
{
name = center;
position = "{550, 700}";
},
{
name = top;
position = "{550, 1400}";
}
);
layerId = m004;
paths = (
{
closed = 0;
nodes = (
"410 -240 LINE",
"650 -240 LINE"
);
},
{
closed = 0;
nodes = (
"1030 1400 LINE",
"490 1400 LINE",
"270 1400 LINE SMOOTH",
"190 1400 OFFCURVE",
"150 1360 OFFCURVE",
"150 1280 CURVE SMOOTH",
"150 980 LINE SMOOTH"
);
},
{
closed = 0;
nodes = (
"650 -240 LINE",
"730 -240 OFFCURVE",
"770 -200 OFFCURVE",
"770 -120 CURVE SMOOTH",
"770 1280 LINE SMOOTH",
"770 1360 OFFCURVE",
"810 1400 OFFCURVE",
"890 1400 CURVE"
);
}
);
width = 1150;
},
{
anchors = (
{
name = bottom;
position = "{550, -240}";
},
{
name = center;
position = "{550, 700}";
},
{
name = top;
position = "{550, 1400}";
}
);
layerId = m005;
paths = (
{
closed = 0;
nodes = (
"410 -240 LINE",
"650 -240 LINE"
);
},
{
closed = 0;
nodes = (
"1030 1400 LINE",
"490 1400 LINE",
"270 1400 LINE SMOOTH",
"190 1400 OFFCURVE",
"150 1360 OFFCURVE",
"150 1280 CURVE SMOOTH",
"150 980 LINE SMOOTH"
);
},
{
closed = 0;
nodes = (
"650 -240 LINE",
"730 -240 OFFCURVE",
"770 -200 OFFCURVE",
"770 -120 CURVE SMOOTH",
"770 1280 LINE SMOOTH",
"770 1360 OFFCURVE",
"810 1400 OFFCURVE",
"890 1400 CURVE"
);
}
);
width = 1150;
},
{
anchors = (
{
name = bottom;
position = "{550, -240}";
},
{
name = center;
position = "{550, 700}";
},
{
name = top;
position = "{550, 1400}";
}
);
layerId = m006;
paths = (
{
closed = 0;
nodes = (
"410 -240 LINE",
"650 -240 LINE"
);
},
{
closed = 0;
nodes = (
"1030 1400 LINE",
"490 1400 LINE",
"270 1400 LINE SMOOTH",
"190 1400 OFFCURVE",
"150 1360 OFFCURVE",
"150 1280 CURVE SMOOTH",
"150 980 LINE SMOOTH"
);
},
{
closed = 0;
nodes = (
"650 -240 LINE",
"730 -240 OFFCURVE",
"770 -200 OFFCURVE",
"770 -120 CURVE SMOOTH",
"770 1280 LINE SMOOTH",
"770 1360 OFFCURVE",
"810 1400 OFFCURVE",
"890 1400 CURVE"
);
}
);
width = 1150;
},
{
anchors = (
{
name = bottom;
position = "{550, -240}";
},
{
name = center;
position = "{550, 700}";
},
{
name = top;
position = "{550, 1400}";
}
);
layerId = m007;
paths = (
{
closed = 0;
nodes = (
"410 -240 LINE",
"650 -240 LINE"
);
},
{
closed = 0;
nodes = (
"1030 1400 LINE",
"490 1400 LINE",
"270 1400 LINE SMOOTH",
"190 1400 OFFCURVE",
"150 1360 OFFCURVE",
"150 1280 CURVE SMOOTH",
"150 980 LINE SMOOTH"
);
},
{
closed = 0;
nodes = (
"650 -240 LINE",
"730 -240 OFFCURVE",
"770 -200 OFFCURVE",
"770 -120 CURVE SMOOTH",
"770 1280 LINE SMOOTH",
"770 1360 OFFCURVE",
"810 1400 OFFCURVE",
"890 1400 CURVE"
);
}
);
width = 1150;
},
{
anchors = (
{
name = bottom;
position = "{550, -240}";
},
{
name = center;
position = "{550, 700}";
},
{
name = top;
position = "{550, 1400}";
}
);
layerId = m008;
paths = (
{
closed = 0;
nodes = (
"410 -240 LINE",
"650 -240 LINE"
);
},
{
closed = 0;
nodes = (
"1030 1400 LINE",
"490 1400 LINE",
"270 1400 LINE SMOOTH",
"190 1400 OFFCURVE",
"150 1360 OFFCURVE",
"150 1280 CURVE SMOOTH",
"150 980 LINE SMOOTH"
);
},
{
closed = 0;
nodes = (
"650 -240 LINE",
"730 -240 OFFCURVE",
"770 -200 OFFCURVE",
"770 -120 CURVE SMOOTH",
"770 1280 LINE SMOOTH",
"770 1360 OFFCURVE",
"810 1400 OFFCURVE",
"890 1400 CURVE"
);
}
);
width = 1150;
}
);
leftKerningGroup = T;
rightKerningGroup = T;
unicode = 0054;
},
{
glyphname = Tbar;
lastChange = "2021-04-29 02:47:43 +0000";
layers = (
{
components = (
{
name = T;
}
);
layerId = m003;
paths = (
{
closed = 0;
nodes = (
"430 600 LINE",
"1030 600 LINE"
);
}
);
width = 1150;
},
{
components = (
{
name = T;
}
);
layerId = m002;
paths = (
{
closed = 0;
nodes = (
"430 600 LINE",
"1030 600 LINE"
);
}
);
width = 1150;
},
{
components = (
{
name = T;
}
);
layerId = m004;
paths = (
{
closed = 0;
nodes = (
"430 600 LINE",
"1030 600 LINE"
);
}
);
width = 1150;
},
{
components = (
{
name = T;
}
);
layerId = m005;
paths = (
{
closed = 0;
nodes = (
"430 600 LINE",
"1030 600 LINE"
);
}
);
width = 1150;
},
{
components = (
{
name = T;
}
);
layerId = m006;
paths = (
{
closed = 0;
nodes = (
"430 600 LINE",
"1030 600 LINE"
);
}
);
width = 1150;
},
{
components = (
{
name = T;
}
);
layerId = m007;
paths = (
{
closed = 0;
nodes = (
"430 600 LINE",
"1030 600 LINE"
);
}
);
width = 1150;
},
{
components = (
{
name = T;
}
);
layerId = m008;
paths = (
{
closed = 0;
nodes = (
"430 600 LINE",
"1030 600 LINE"
);
}
);
width = 1150;
}
);
unicode = 0166;
},
{
glyphname = U;
lastChange = "2021-04-29 02:47:43 +0000";
layers = (
{
anchors = (
{
name = bottom;
position = "{706, -240}";
},
{
name = ogonek;
position = "{1046, -240}";
},
{
name = top;
position = "{684, 1400}";
},
{
name = topright;
position = "{988, 1400}";
}
);
layerId = m003;
paths = (
{
closed = 0;
nodes = (
"68 1400 LINE",
"308 1400 LINE SMOOTH",
"384 1400 OFFCURVE",
"428 1362 OFFCURVE",
"428 1280 CURVE SMOOTH",
"428 -120 LINE SMOOTH",
"428 -200 OFFCURVE",
"468 -240 OFFCURVE",
"548 -240 CURVE SMOOTH",
"868 -240 LINE SMOOTH",
"948 -240 OFFCURVE",
"988 -200 OFFCURVE",
"988 -120 CURVE SMOOTH",
"988 1400 LINE SMOOTH"
);
},
{
closed = 0;
nodes = (
"988 120 LINE SMOOTH",
"988 52 OFFCURVE",
"1040 0 OFFCURVE",
"1106 0 CURVE SMOOTH {name = instroke_raise;}",
"1236 0 LINE"
);
}
);
width = 1236;
},
{
anchors = (
{
name = bottom;
position = "{706, -240}";
},
{
name = ogonek;
position = "{1046, -240}";
},
{
name = top;
position = "{684, 1400}";
},
{
name = topright;
position = "{988, 1400}";
}
);
layerId = m002;
paths = (
{
closed = 0;
nodes = (
"68 1400 LINE",
"308 1400 LINE SMOOTH",
"384 1400 OFFCURVE",
"428 1362 OFFCURVE",
"428 1280 CURVE SMOOTH",
"428 -120 LINE SMOOTH",
"428 -200 OFFCURVE",
"468 -240 OFFCURVE",
"548 -240 CURVE SMOOTH",
"868 -240 LINE SMOOTH",
"948 -240 OFFCURVE",
"988 -200 OFFCURVE",
"988 -120 CURVE SMOOTH",
"988 1400 LINE SMOOTH"
);
},
{
closed = 0;
nodes = (
"988 120 LINE SMOOTH",
"988 52 OFFCURVE",
"1040 0 OFFCURVE",
"1106 0 CURVE SMOOTH {name = instroke_raise;}",
"1236 0 LINE"
);
}
);
width = 1236;
},
{
anchors = (
{
name = bottom;
position = "{706, -240}";
},
{
name = ogonek;
position = "{1046, -240}";
},
{
name = top;
position = "{684, 1400}";
},
{
name = topright;
position = "{988, 1400}";
}
);
layerId = m004;
paths = (
{
closed = 0;
nodes = (
"68 1400 LINE",
"308 1400 LINE SMOOTH",
"384 1400 OFFCURVE",
"428 1362 OFFCURVE",
"428 1280 CURVE SMOOTH",
"428 -120 LINE SMOOTH",
"428 -200 OFFCURVE",
"468 -240 OFFCURVE",
"548 -240 CURVE SMOOTH",
"868 -240 LINE SMOOTH",
"948 -240 OFFCURVE",
"988 -200 OFFCURVE",
"988 -120 CURVE SMOOTH",
"988 1400 LINE SMOOTH"
);
},
{
closed = 0;
nodes = (
"988 120 LINE SMOOTH",
"988 52 OFFCURVE",
"1040 0 OFFCURVE",
"1106 0 CURVE SMOOTH {name = instroke_raise;}",
"1236 0 LINE"
);
}
);
width = 1236;
},
{
anchors = (
{
name = bottom;
position = "{706, -240}";
},
{
name = ogonek;
position = "{1046, -240}";
},
{
name = top;
position = "{684, 1400}";
},
{
name = topright;
position = "{988, 1400}";
}
);
layerId = m005;
paths = (
{
closed = 0;
nodes = (
"68 1400 LINE",
"308 1400 LINE SMOOTH",
"384 1400 OFFCURVE",
"428 1362 OFFCURVE",
"428 1280 CURVE SMOOTH",
"428 -120 LINE SMOOTH",
"428 -200 OFFCURVE",
"468 -240 OFFCURVE",
"548 -240 CURVE SMOOTH",
"868 -240 LINE SMOOTH",
"948 -240 OFFCURVE",
"988 -200 OFFCURVE",
"988 -120 CURVE SMOOTH",
"988 1400 LINE SMOOTH"
);
},
{
closed = 0;
nodes = (
"988 120 LINE SMOOTH",
"988 52 OFFCURVE",
"1040 0 OFFCURVE",
"1106 0 CURVE SMOOTH {name = instroke_raise;}",
"1236 0 LINE"
);
}
);
width = 1236;
},
{
anchors = (
{
name = bottom;
position = "{706, -240}";
},
{
name = ogonek;
position = "{1046, -240}";
},
{
name = top;
position = "{684, 1400}";
},
{
name = topright;
position = "{988, 1400}";
}
);
layerId = m006;
paths = (
{
closed = 0;
nodes = (
"68 1400 LINE",
"308 1400 LINE SMOOTH",
"384 1400 OFFCURVE",
"428 1362 OFFCURVE",
"428 1280 CURVE SMOOTH",
"428 -120 LINE SMOOTH",
"428 -200 OFFCURVE",
"468 -240 OFFCURVE",
"548 -240 CURVE SMOOTH",
"868 -240 LINE SMOOTH",
"948 -240 OFFCURVE",
"988 -200 OFFCURVE",
"988 -120 CURVE SMOOTH",
"988 1400 LINE SMOOTH"
);
},
{
closed = 0;
nodes = (
"988 120 LINE SMOOTH",
"988 52 OFFCURVE",
"1040 0 OFFCURVE",
"1106 0 CURVE SMOOTH {name = instroke_raise;}",
"1236 0 LINE"
);
}
);
width = 1236;
},
{
anchors = (
{
name = bottom;
position = "{706, -240}";
},
{
name = ogonek;
position = "{1046, -240}";
},
{
name = top;
position = "{684, 1400}";
},
{
name = topright;
position = "{988, 1400}";
}
);
layerId = m007;
paths = (
{
closed = 0;
nodes = (
"68 1400 LINE",
"308 1400 LINE SMOOTH",
"384 1400 OFFCURVE",
"428 1362 OFFCURVE",
"428 1280 CURVE SMOOTH",
"428 -120 LINE SMOOTH",
"428 -200 OFFCURVE",
"468 -240 OFFCURVE",
"548 -240 CURVE SMOOTH",
"868 -240 LINE SMOOTH",
"948 -240 OFFCURVE",
"988 -200 OFFCURVE",
"988 -120 CURVE SMOOTH",
"988 1400 LINE SMOOTH"
);
},
{
closed = 0;
nodes = (
"988 120 LINE SMOOTH",
"988 52 OFFCURVE",
"1040 0 OFFCURVE",
"1106 0 CURVE SMOOTH {name = instroke_raise;}",
"1236 0 LINE"
);
}
);
width = 1236;
},
{
anchors = (
{
name = bottom;
position = "{706, -240}";
},
{
name = ogonek;
position = "{1046, -240}";
},
{
name = top;
position = "{684, 1400}";
},
{
name = topright;
position = "{988, 1400}";
}
);
layerId = m008;
paths = (
{
closed = 0;
nodes = (
"68 1400 LINE",
"308 1400 LINE SMOOTH",
"384 1400 OFFCURVE",
"428 1362 OFFCURVE",
"428 1280 CURVE SMOOTH",
"428 -120 LINE SMOOTH",
"428 -200 OFFCURVE",
"468 -240 OFFCURVE",
"548 -240 CURVE SMOOTH",
"868 -240 LINE SMOOTH",
"948 -240 OFFCURVE",
"988 -200 OFFCURVE",
"988 -120 CURVE SMOOTH",
"988 1400 LINE SMOOTH"
);
},
{
closed = 0;
nodes = (
"988 120 LINE SMOOTH",
"988 52 OFFCURVE",
"1040 0 OFFCURVE",
"1106 0 CURVE SMOOTH {name = instroke_raise;}",
"1236 0 LINE"
);
}
);
width = 1236;
}
);
leftKerningGroup = U;
rightKerningGroup = H;
unicode = 0055;
},
{
glyphname = V;
lastChange = "2021-04-29 02:47:43 +0000";
layers = (
{
anchors = (
{
name = bottom;
position = "{594, 0}";
},
{
name = top;
position = "{594, 1400}";
}
);
layerId = m003;
paths = (
{
closed = 0;
nodes = (
"68 1400 LINE",
"356 1400 LINE"
);
},
{
closed = 0;
nodes = (
"992 120 LINE",
"992 44 OFFCURVE",
"1034 0 OFFCURVE",
"1110 0 CURVE SMOOTH {name = instroke_raise;}",
"1260 0 LINE"
);
},
{
closed = 0;
nodes = (
"348 1400 LINE",
"424 1400 OFFCURVE",
"468 1356 OFFCURVE",
"468 1280 CURVE SMOOTH",
"468 -120 LINE SMOOTH",
"468 -200 OFFCURVE",
"508 -240 OFFCURVE",
"588 -240 CURVE SMOOTH",
"844 -240 LINE",
"924 -240 OFFCURVE",
"954 -200 OFFCURVE",
"964 -120 CURVE SMOOTH",
"1112 1178 LINE SMOOTH",
"1130 1328 OFFCURVE",
"1076 1400 OFFCURVE",
"946 1400 CURVE SMOOTH",
"826 1400 LINE"
);
}
);
width = 1260;
},
{
anchors = (
{
name = bottom;
position = "{594, 0}";
},
{
name = top;
position = "{594, 1400}";
}
);
layerId = m002;
paths = (
{
closed = 0;
nodes = (
"68 1400 LINE",
"356 1400 LINE"
);
},
{
closed = 0;
nodes = (
"992 120 LINE",
"992 44 OFFCURVE",
"1034 0 OFFCURVE",
"1110 0 CURVE SMOOTH {name = instroke_raise;}",
"1260 0 LINE"
);
},
{
closed = 0;
nodes = (
"348 1400 LINE",
"424 1400 OFFCURVE",
"468 1356 OFFCURVE",
"468 1280 CURVE SMOOTH",
"468 -120 LINE SMOOTH",
"468 -200 OFFCURVE",
"508 -240 OFFCURVE",
"588 -240 CURVE SMOOTH",
"844 -240 LINE",
"924 -240 OFFCURVE",
"954 -200 OFFCURVE",
"964 -120 CURVE SMOOTH",
"1112 1178 LINE SMOOTH",
"1130 1328 OFFCURVE",
"1076 1400 OFFCURVE",
"946 1400 CURVE SMOOTH",
"826 1400 LINE"
);
}
);
width = 1260;
},
{
anchors = (
{
name = bottom;
position = "{594, 0}";
},
{
name = top;
position = "{594, 1400}";
}
);
layerId = m004;
paths = (
{
closed = 0;
nodes = (
"68 1400 LINE",
"356 1400 LINE"
);
},
{
closed = 0;
nodes = (
"992 120 LINE",
"992 44 OFFCURVE",
"1034 0 OFFCURVE",
"1110 0 CURVE SMOOTH {name = instroke_raise;}",
"1260 0 LINE"
);
},
{
closed = 0;
nodes = (
"348 1400 LINE",
"424 1400 OFFCURVE",
"468 1356 OFFCURVE",
"468 1280 CURVE SMOOTH",
"468 -120 LINE SMOOTH",
"468 -200 OFFCURVE",
"508 -240 OFFCURVE",
"588 -240 CURVE SMOOTH",
"844 -240 LINE",
"924 -240 OFFCURVE",
"954 -200 OFFCURVE",
"964 -120 CURVE SMOOTH",
"1112 1178 LINE SMOOTH",
"1130 1328 OFFCURVE",
"1076 1400 OFFCURVE",
"946 1400 CURVE SMOOTH",
"826 1400 LINE"
);
}
);
width = 1260;
},
{
anchors = (
{
name = bottom;
position = "{594, 0}";
},
{
name = top;
position = "{594, 1400}";
}
);
layerId = m005;
paths = (
{
closed = 0;
nodes = (
"68 1400 LINE",
"356 1400 LINE"
);
},
{
closed = 0;
nodes = (
"992 120 LINE",
"992 44 OFFCURVE",
"1034 0 OFFCURVE",
"1110 0 CURVE SMOOTH {name = instroke_raise;}",
"1260 0 LINE"
);
},
{
closed = 0;
nodes = (
"348 1400 LINE",
"424 1400 OFFCURVE",
"468 1356 OFFCURVE",
"468 1280 CURVE SMOOTH",
"468 -120 LINE SMOOTH",
"468 -200 OFFCURVE",
"508 -240 OFFCURVE",
"588 -240 CURVE SMOOTH",
"844 -240 LINE",
"924 -240 OFFCURVE",
"954 -200 OFFCURVE",
"964 -120 CURVE SMOOTH",
"1112 1178 LINE SMOOTH",
"1130 1328 OFFCURVE",
"1076 1400 OFFCURVE",
"946 1400 CURVE SMOOTH",
"826 1400 LINE"
);
}
);
width = 1260;
},
{
anchors = (
{
name = bottom;
position = "{594, 0}";
},
{
name = top;
position = "{594, 1400}";
}
);
layerId = m006;
paths = (
{
closed = 0;
nodes = (
"68 1400 LINE",
"356 1400 LINE"
);
},
{
closed = 0;
nodes = (
"992 120 LINE",
"992 44 OFFCURVE",
"1034 0 OFFCURVE",
"1110 0 CURVE SMOOTH {name = instroke_raise;}",
"1260 0 LINE"
);
},
{
closed = 0;
nodes = (
"348 1400 LINE",
"424 1400 OFFCURVE",
"468 1356 OFFCURVE",
"468 1280 CURVE SMOOTH",
"468 -120 LINE SMOOTH",
"468 -200 OFFCURVE",
"508 -240 OFFCURVE",
"588 -240 CURVE SMOOTH",
"844 -240 LINE",
"924 -240 OFFCURVE",
"954 -200 OFFCURVE",
"964 -120 CURVE SMOOTH",
"1112 1178 LINE SMOOTH",
"1130 1328 OFFCURVE",
"1076 1400 OFFCURVE",
"946 1400 CURVE SMOOTH",
"826 1400 LINE"
);
}
);
width = 1260;
},
{
anchors = (
{
name = bottom;
position = "{594, 0}";
},
{
name = top;
position = "{594, 1400}";
}
);
layerId = m007;
paths = (
{
closed = 0;
nodes = (
"68 1400 LINE",
"356 1400 LINE"
);
},
{
closed = 0;
nodes = (
"992 120 LINE",
"992 44 OFFCURVE",
"1034 0 OFFCURVE",
"1110 0 CURVE SMOOTH {name = instroke_raise;}",
"1260 0 LINE"
);
},
{
closed = 0;
nodes = (
"348 1400 LINE",
"424 1400 OFFCURVE",
"468 1356 OFFCURVE",
"468 1280 CURVE SMOOTH",
"468 -120 LINE SMOOTH",
"468 -200 OFFCURVE",
"508 -240 OFFCURVE",
"588 -240 CURVE SMOOTH",
"844 -240 LINE",
"924 -240 OFFCURVE",
"954 -200 OFFCURVE",
"964 -120 CURVE SMOOTH",
"1112 1178 LINE SMOOTH",
"1130 1328 OFFCURVE",
"1076 1400 OFFCURVE",
"946 1400 CURVE SMOOTH",
"826 1400 LINE"
);
}
);
width = 1260;
},
{
anchors = (
{
name = bottom;
position = "{594, 0}";
},
{
name = top;
position = "{594, 1400}";
}
);
layerId = m008;
paths = (
{
closed = 0;
nodes = (
"68 1400 LINE",
"356 1400 LINE"
);
},
{
closed = 0;
nodes = (
"992 120 LINE",
"992 44 OFFCURVE",
"1034 0 OFFCURVE",
"1110 0 CURVE SMOOTH {name = instroke_raise;}",
"1260 0 LINE"
);
},
{
closed = 0;
nodes = (
"348 1400 LINE",
"424 1400 OFFCURVE",
"468 1356 OFFCURVE",
"468 1280 CURVE SMOOTH",
"468 -120 LINE SMOOTH",
"468 -200 OFFCURVE",
"508 -240 OFFCURVE",
"588 -240 CURVE SMOOTH",
"844 -240 LINE",
"924 -240 OFFCURVE",
"954 -200 OFFCURVE",
"964 -120 CURVE SMOOTH",
"1112 1178 LINE SMOOTH",
"1130 1328 OFFCURVE",
"1076 1400 OFFCURVE",
"946 1400 CURVE SMOOTH",
"826 1400 LINE"
);
}
);
width = 1260;
}
);
leftKerningGroup = V;
rightKerningGroup = D;
unicode = 0056;
},
{
glyphname = W;
lastChange = "2021-04-29 02:47:43 +0000";
layers = (
{
anchors = (
{
name = bottom;
position = "{852, 0}";
},
{
name = top;
position = "{988, 1400}";
}
);
background = {
paths = (
{
closed = 0;
nodes = (
"68 1400 LINE",
"348 1400 LINE SMOOTH",
"424 1400 OFFCURVE",
"468 1356 OFFCURVE",
"468 1280 CURVE SMOOTH",
"468 -120 LINE SMOOTH",
"468 -200 OFFCURVE",
"508 -240 OFFCURVE",
"588 -240 CURVE SMOOTH",
"868 -240 LINE SMOOTH",
"948 -240 OFFCURVE",
"988 -200 OFFCURVE",
"988 -120 CURVE SMOOTH",
"988 1400 LINE"
);
},
{
closed = 0;
nodes = (
"988 -120 LINE",
"988 -200 OFFCURVE",
"1028 -240 OFFCURVE",
"1108 -240 CURVE SMOOTH",
"1368 -240 LINE",
"1448 -240 OFFCURVE",
"1482 -200 OFFCURVE",
"1488 -120 CURVE SMOOTH",
"1588 1280 LINE SMOOTH",
"1594 1356 OFFCURVE",
"1550 1400 OFFCURVE",
"1468 1400 CURVE SMOOTH",
"1388 1400 LINE SMOOTH"
);
},
{
closed = 0;
nodes = (
"1506 120 LINE SMOOTH",
"1506 44 OFFCURVE",
"1548 0 OFFCURVE",
"1624 0 CURVE SMOOTH {name = instroke_raise;}",
"1774 0 LINE"
);
}
);
};
layerId = m003;
paths = (
{
closed = 0;
nodes = (
"68 1400 LINE",
"348 1400 LINE SMOOTH",
"424 1400 OFFCURVE",
"468 1356 OFFCURVE",
"468 1280 CURVE SMOOTH",
"468 -120 LINE SMOOTH",
"468 -200 OFFCURVE",
"508 -240 OFFCURVE",
"588 -240 CURVE SMOOTH",
"868 -240 LINE SMOOTH",
"948 -240 OFFCURVE",
"988 -200 OFFCURVE",
"988 -120 CURVE SMOOTH",
"988 1400 LINE"
);
},
{
closed = 0;
nodes = (
"988 -120 LINE",
"988 -200 OFFCURVE",
"1028 -240 OFFCURVE",
"1108 -240 CURVE SMOOTH",
"1358 -240 LINE",
"1438 -240 OFFCURVE",
"1468 -200 OFFCURVE",
"1478 -120 CURVE SMOOTH",
"1626 1178 LINE SMOOTH",
"1644 1328 OFFCURVE",
"1590 1400 OFFCURVE",
"1460 1400 CURVE SMOOTH",
"1340 1400 LINE"
);
},
{
closed = 0;
nodes = (
"1506 120 LINE",
"1506 44 OFFCURVE",
"1548 0 OFFCURVE",
"1624 0 CURVE SMOOTH {name = instroke_raise;}",
"1774 0 LINE"
);
}
);
width = 1774;
},
{
anchors = (
{
name = bottom;
position = "{852, 0}";
},
{
name = top;
position = "{988, 1400}";
}
);
background = {
paths = (
{
closed = 0;
nodes = (
"68 1400 LINE",
"348 1400 LINE SMOOTH",
"424 1400 OFFCURVE",
"468 1356 OFFCURVE",
"468 1280 CURVE SMOOTH",
"468 -120 LINE SMOOTH",
"468 -200 OFFCURVE",
"508 -240 OFFCURVE",
"588 -240 CURVE SMOOTH",
"868 -240 LINE SMOOTH",
"948 -240 OFFCURVE",
"988 -200 OFFCURVE",
"988 -120 CURVE SMOOTH",
"988 1400 LINE"
);
},
{
closed = 0;
nodes = (
"988 -120 LINE",
"988 -200 OFFCURVE",
"1028 -240 OFFCURVE",
"1108 -240 CURVE SMOOTH",
"1368 -240 LINE",
"1448 -240 OFFCURVE",
"1482 -200 OFFCURVE",
"1488 -120 CURVE SMOOTH",
"1588 1280 LINE SMOOTH",
"1594 1356 OFFCURVE",
"1550 1400 OFFCURVE",
"1468 1400 CURVE SMOOTH",
"1388 1400 LINE SMOOTH"
);
},
{
closed = 0;
nodes = (
"1506 120 LINE SMOOTH",
"1506 44 OFFCURVE",
"1548 0 OFFCURVE",
"1624 0 CURVE SMOOTH {name = instroke_raise;}",
"1774 0 LINE"
);
}
);
};
layerId = m002;
paths = (
{
closed = 0;
nodes = (
"68 1400 LINE",
"348 1400 LINE SMOOTH",
"424 1400 OFFCURVE",
"468 1356 OFFCURVE",
"468 1280 CURVE SMOOTH",
"468 -120 LINE SMOOTH",
"468 -200 OFFCURVE",
"508 -240 OFFCURVE",
"588 -240 CURVE SMOOTH",
"868 -240 LINE SMOOTH",
"948 -240 OFFCURVE",
"988 -200 OFFCURVE",
"988 -120 CURVE SMOOTH",
"988 1400 LINE"
);
},
{
closed = 0;
nodes = (
"988 -120 LINE",
"988 -200 OFFCURVE",
"1028 -240 OFFCURVE",
"1108 -240 CURVE SMOOTH",
"1358 -240 LINE",
"1438 -240 OFFCURVE",
"1468 -200 OFFCURVE",
"1478 -120 CURVE SMOOTH",
"1626 1178 LINE SMOOTH",
"1644 1328 OFFCURVE",
"1590 1400 OFFCURVE",
"1460 1400 CURVE SMOOTH",
"1340 1400 LINE"
);
},
{
closed = 0;
nodes = (
"1506 120 LINE",
"1506 44 OFFCURVE",
"1548 0 OFFCURVE",
"1624 0 CURVE SMOOTH {name = instroke_raise;}",
"1774 0 LINE"
);
}
);
width = 1774;
},
{
anchors = (
{
name = bottom;
position = "{852, 0}";
},
{
name = top;
position = "{988, 1400}";
}
);
background = {
paths = (
{
closed = 0;
nodes = (
"68 1400 LINE",
"348 1400 LINE SMOOTH",
"424 1400 OFFCURVE",
"468 1356 OFFCURVE",
"468 1280 CURVE SMOOTH",
"468 -120 LINE SMOOTH",
"468 -200 OFFCURVE",
"508 -240 OFFCURVE",
"588 -240 CURVE SMOOTH",
"868 -240 LINE SMOOTH",
"948 -240 OFFCURVE",
"988 -200 OFFCURVE",
"988 -120 CURVE SMOOTH",
"988 1400 LINE"
);
},
{
closed = 0;
nodes = (
"988 -120 LINE",
"988 -200 OFFCURVE",
"1028 -240 OFFCURVE",
"1108 -240 CURVE SMOOTH",
"1368 -240 LINE",
"1448 -240 OFFCURVE",
"1482 -200 OFFCURVE",
"1488 -120 CURVE SMOOTH",
"1588 1280 LINE SMOOTH",
"1594 1356 OFFCURVE",
"1550 1400 OFFCURVE",
"1468 1400 CURVE SMOOTH",
"1388 1400 LINE SMOOTH"
);
},
{
closed = 0;
nodes = (
"1506 120 LINE SMOOTH",
"1506 44 OFFCURVE",
"1548 0 OFFCURVE",
"1624 0 CURVE SMOOTH {name = instroke_raise;}",
"1774 0 LINE"
);
}
);
};
layerId = m004;
paths = (
{
closed = 0;
nodes = (
"68 1400 LINE",
"348 1400 LINE SMOOTH",
"424 1400 OFFCURVE",
"468 1356 OFFCURVE",
"468 1280 CURVE SMOOTH",
"468 -120 LINE SMOOTH",
"468 -200 OFFCURVE",
"508 -240 OFFCURVE",
"588 -240 CURVE SMOOTH",
"868 -240 LINE SMOOTH",
"948 -240 OFFCURVE",
"988 -200 OFFCURVE",
"988 -120 CURVE SMOOTH",
"988 1400 LINE"
);
},
{
closed = 0;
nodes = (
"988 -120 LINE",
"988 -200 OFFCURVE",
"1028 -240 OFFCURVE",
"1108 -240 CURVE SMOOTH",
"1358 -240 LINE",
"1438 -240 OFFCURVE",
"1468 -200 OFFCURVE",
"1478 -120 CURVE SMOOTH",
"1626 1178 LINE SMOOTH",
"1644 1328 OFFCURVE",
"1590 1400 OFFCURVE",
"1460 1400 CURVE SMOOTH",
"1340 1400 LINE"
);
},
{
closed = 0;
nodes = (
"1506 120 LINE",
"1506 44 OFFCURVE",
"1548 0 OFFCURVE",
"1624 0 CURVE SMOOTH {name = instroke_raise;}",
"1774 0 LINE"
);
}
);
width = 1774;
},
{
anchors = (
{
name = bottom;
position = "{852, 0}";
},
{
name = top;
position = "{988, 1400}";
}
);
background = {
paths = (
{
closed = 0;
nodes = (
"68 1400 LINE",
"348 1400 LINE SMOOTH",
"424 1400 OFFCURVE",
"468 1356 OFFCURVE",
"468 1280 CURVE SMOOTH",
"468 -120 LINE SMOOTH",
"468 -200 OFFCURVE",
"508 -240 OFFCURVE",
"588 -240 CURVE SMOOTH",
"868 -240 LINE SMOOTH",
"948 -240 OFFCURVE",
"988 -200 OFFCURVE",
"988 -120 CURVE SMOOTH",
"988 1400 LINE"
);
},
{
closed = 0;
nodes = (
"988 -120 LINE",
"988 -200 OFFCURVE",
"1028 -240 OFFCURVE",
"1108 -240 CURVE SMOOTH",
"1368 -240 LINE",
"1448 -240 OFFCURVE",
"1482 -200 OFFCURVE",
"1488 -120 CURVE SMOOTH",
"1588 1280 LINE SMOOTH",
"1594 1356 OFFCURVE",
"1550 1400 OFFCURVE",
"1468 1400 CURVE SMOOTH",
"1388 1400 LINE SMOOTH"
);
},
{
closed = 0;
nodes = (
"1506 120 LINE SMOOTH",
"1506 44 OFFCURVE",
"1548 0 OFFCURVE",
"1624 0 CURVE SMOOTH {name = instroke_raise;}",
"1774 0 LINE"
);
}
);
};
layerId = m005;
paths = (
{
closed = 0;
nodes = (
"68 1400 LINE",
"348 1400 LINE SMOOTH",
"424 1400 OFFCURVE",
"468 1356 OFFCURVE",
"468 1280 CURVE SMOOTH",
"468 -120 LINE SMOOTH",
"468 -200 OFFCURVE",
"508 -240 OFFCURVE",
"588 -240 CURVE SMOOTH",
"868 -240 LINE SMOOTH",
"948 -240 OFFCURVE",
"988 -200 OFFCURVE",
"988 -120 CURVE SMOOTH",
"988 1400 LINE"
);
},
{
closed = 0;
nodes = (
"988 -120 LINE",
"988 -200 OFFCURVE",
"1028 -240 OFFCURVE",
"1108 -240 CURVE SMOOTH",
"1358 -240 LINE",
"1438 -240 OFFCURVE",
"1468 -200 OFFCURVE",
"1478 -120 CURVE SMOOTH",
"1626 1178 LINE SMOOTH",
"1644 1328 OFFCURVE",
"1590 1400 OFFCURVE",
"1460 1400 CURVE SMOOTH",
"1340 1400 LINE"
);
},
{
closed = 0;
nodes = (
"1506 120 LINE",
"1506 44 OFFCURVE",
"1548 0 OFFCURVE",
"1624 0 CURVE SMOOTH {name = instroke_raise;}",
"1774 0 LINE"
);
}
);
width = 1774;
},
{
anchors = (
{
name = bottom;
position = "{852, 0}";
},
{
name = top;
position = "{988, 1400}";
}
);
background = {
paths = (
{
closed = 0;
nodes = (
"68 1400 LINE",
"348 1400 LINE SMOOTH",
"424 1400 OFFCURVE",
"468 1356 OFFCURVE",
"468 1280 CURVE SMOOTH",
"468 -120 LINE SMOOTH",
"468 -200 OFFCURVE",
"508 -240 OFFCURVE",
"588 -240 CURVE SMOOTH",
"868 -240 LINE SMOOTH",
"948 -240 OFFCURVE",
"988 -200 OFFCURVE",
"988 -120 CURVE SMOOTH",
"988 1400 LINE"
);
},
{
closed = 0;
nodes = (
"988 -120 LINE",
"988 -200 OFFCURVE",
"1028 -240 OFFCURVE",
"1108 -240 CURVE SMOOTH",
"1368 -240 LINE",
"1448 -240 OFFCURVE",
"1482 -200 OFFCURVE",
"1488 -120 CURVE SMOOTH",
"1588 1280 LINE SMOOTH",
"1594 1356 OFFCURVE",
"1550 1400 OFFCURVE",
"1468 1400 CURVE SMOOTH",
"1388 1400 LINE SMOOTH"
);
},
{
closed = 0;
nodes = (
"1506 120 LINE SMOOTH",
"1506 44 OFFCURVE",
"1548 0 OFFCURVE",
"1624 0 CURVE SMOOTH {name = instroke_raise;}",
"1774 0 LINE"
);
}
);
};
layerId = m006;
paths = (
{
closed = 0;
nodes = (
"68 1400 LINE",
"348 1400 LINE SMOOTH",
"424 1400 OFFCURVE",
"468 1356 OFFCURVE",
"468 1280 CURVE SMOOTH",
"468 -120 LINE SMOOTH",
"468 -200 OFFCURVE",
"508 -240 OFFCURVE",
"588 -240 CURVE SMOOTH",
"868 -240 LINE SMOOTH",
"948 -240 OFFCURVE",
"988 -200 OFFCURVE",
"988 -120 CURVE SMOOTH",
"988 1400 LINE"
);
},
{
closed = 0;
nodes = (
"988 -120 LINE",
"988 -200 OFFCURVE",
"1028 -240 OFFCURVE",
"1108 -240 CURVE SMOOTH",
"1358 -240 LINE",
"1438 -240 OFFCURVE",
"1468 -200 OFFCURVE",
"1478 -120 CURVE SMOOTH",
"1626 1178 LINE SMOOTH",
"1644 1328 OFFCURVE",
"1590 1400 OFFCURVE",
"1460 1400 CURVE SMOOTH",
"1340 1400 LINE"
);
},
{
closed = 0;
nodes = (
"1506 120 LINE",
"1506 44 OFFCURVE",
"1548 0 OFFCURVE",
"1624 0 CURVE SMOOTH {name = instroke_raise;}",
"1774 0 LINE"
);
}
);
width = 1774;
},
{
anchors = (
{
name = bottom;
position = "{852, 0}";
},
{
name = top;
position = "{988, 1400}";
}
);
background = {
paths = (
{
closed = 0;
nodes = (
"68 1400 LINE",
"348 1400 LINE SMOOTH",
"424 1400 OFFCURVE",
"468 1356 OFFCURVE",
"468 1280 CURVE SMOOTH",
"468 -120 LINE SMOOTH",
"468 -200 OFFCURVE",
"508 -240 OFFCURVE",
"588 -240 CURVE SMOOTH",
"868 -240 LINE SMOOTH",
"948 -240 OFFCURVE",
"988 -200 OFFCURVE",
"988 -120 CURVE SMOOTH",
"988 1400 LINE"
);
},
{
closed = 0;
nodes = (
"988 -120 LINE",
"988 -200 OFFCURVE",
"1028 -240 OFFCURVE",
"1108 -240 CURVE SMOOTH",
"1368 -240 LINE",
"1448 -240 OFFCURVE",
"1482 -200 OFFCURVE",
"1488 -120 CURVE SMOOTH",
"1588 1280 LINE SMOOTH",
"1594 1356 OFFCURVE",
"1550 1400 OFFCURVE",
"1468 1400 CURVE SMOOTH",
"1388 1400 LINE SMOOTH"
);
},
{
closed = 0;
nodes = (
"1506 120 LINE SMOOTH",
"1506 44 OFFCURVE",
"1548 0 OFFCURVE",
"1624 0 CURVE SMOOTH {name = instroke_raise;}",
"1774 0 LINE"
);
}
);
};
layerId = m007;
paths = (
{
closed = 0;
nodes = (
"68 1400 LINE",
"348 1400 LINE SMOOTH",
"424 1400 OFFCURVE",
"468 1356 OFFCURVE",
"468 1280 CURVE SMOOTH",
"468 -120 LINE SMOOTH",
"468 -200 OFFCURVE",
"508 -240 OFFCURVE",
"588 -240 CURVE SMOOTH",
"868 -240 LINE SMOOTH",
"948 -240 OFFCURVE",
"988 -200 OFFCURVE",
"988 -120 CURVE SMOOTH",
"988 1400 LINE"
);
},
{
closed = 0;
nodes = (
"988 -120 LINE",
"988 -200 OFFCURVE",
"1028 -240 OFFCURVE",
"1108 -240 CURVE SMOOTH",
"1358 -240 LINE",
"1438 -240 OFFCURVE",
"1468 -200 OFFCURVE",
"1478 -120 CURVE SMOOTH",
"1626 1178 LINE SMOOTH",
"1644 1328 OFFCURVE",
"1590 1400 OFFCURVE",
"1460 1400 CURVE SMOOTH",
"1340 1400 LINE"
);
},
{
closed = 0;
nodes = (
"1506 120 LINE",
"1506 44 OFFCURVE",
"1548 0 OFFCURVE",
"1624 0 CURVE SMOOTH {name = instroke_raise;}",
"1774 0 LINE"
);
}
);
width = 1774;
},
{
anchors = (
{
name = bottom;
position = "{852, 0}";
},
{
name = top;
position = "{988, 1400}";
}
);
background = {
paths = (
{
closed = 0;
nodes = (
"68 1400 LINE",
"348 1400 LINE SMOOTH",
"424 1400 OFFCURVE",
"468 1356 OFFCURVE",
"468 1280 CURVE SMOOTH",
"468 -120 LINE SMOOTH",
"468 -200 OFFCURVE",
"508 -240 OFFCURVE",
"588 -240 CURVE SMOOTH",
"868 -240 LINE SMOOTH",
"948 -240 OFFCURVE",
"988 -200 OFFCURVE",
"988 -120 CURVE SMOOTH",
"988 1400 LINE"
);
},
{
closed = 0;
nodes = (
"988 -120 LINE",
"988 -200 OFFCURVE",
"1028 -240 OFFCURVE",
"1108 -240 CURVE SMOOTH",
"1368 -240 LINE",
"1448 -240 OFFCURVE",
"1482 -200 OFFCURVE",
"1488 -120 CURVE SMOOTH",
"1588 1280 LINE SMOOTH",
"1594 1356 OFFCURVE",
"1550 1400 OFFCURVE",
"1468 1400 CURVE SMOOTH",
"1388 1400 LINE SMOOTH"
);
},
{
closed = 0;
nodes = (
"1506 120 LINE SMOOTH",
"1506 44 OFFCURVE",
"1548 0 OFFCURVE",
"1624 0 CURVE SMOOTH {name = instroke_raise;}",
"1774 0 LINE"
);
}
);
};
layerId = m008;
paths = (
{
closed = 0;
nodes = (
"68 1400 LINE",
"348 1400 LINE SMOOTH",
"424 1400 OFFCURVE",
"468 1356 OFFCURVE",
"468 1280 CURVE SMOOTH",
"468 -120 LINE SMOOTH",
"468 -200 OFFCURVE",
"508 -240 OFFCURVE",
"588 -240 CURVE SMOOTH",
"868 -240 LINE SMOOTH",
"948 -240 OFFCURVE",
"988 -200 OFFCURVE",
"988 -120 CURVE SMOOTH",
"988 1400 LINE"
);
},
{
closed = 0;
nodes = (
"988 -120 LINE",
"988 -200 OFFCURVE",
"1028 -240 OFFCURVE",
"1108 -240 CURVE SMOOTH",
"1358 -240 LINE",
"1438 -240 OFFCURVE",
"1468 -200 OFFCURVE",
"1478 -120 CURVE SMOOTH",
"1626 1178 LINE SMOOTH",
"1644 1328 OFFCURVE",
"1590 1400 OFFCURVE",
"1460 1400 CURVE SMOOTH",
"1340 1400 LINE"
);
},
{
closed = 0;
nodes = (
"1506 120 LINE",
"1506 44 OFFCURVE",
"1548 0 OFFCURVE",
"1624 0 CURVE SMOOTH {name = instroke_raise;}",
"1774 0 LINE"
);
}
);
width = 1774;
}
);
leftKerningGroup = V;
rightKerningGroup = D;
unicode = 0057;
},
{
glyphname = X;
lastChange = "2021-04-29 02:47:43 +0000";
layers = (
{
anchors = (
{
name = bottom;
position = "{694, 0}";
},
{
name = top;
position = "{606, 1400}";
}
);
layerId = m003;
paths = (
{
closed = 0;
nodes = (
"426 -240 LINE",
"426 500 LINE SMOOTH",
"426 580 OFFCURVE",
"466 620 OFFCURVE",
"546 620 CURVE SMOOTH",
"866 620 LINE",
"946 620 OFFCURVE",
"986 580 OFFCURVE",
"986 500 CURVE SMOOTH",
"986 120 LINE SMOOTH",
"986 52 OFFCURVE",
"1038 0 OFFCURVE",
"1104 0 CURVE SMOOTH {name = instroke_raise;}",
"1254 0 LINE"
);
},
{
closed = 0;
nodes = (
"866 620 LINE",
"960 1400 LINE"
);
},
{
closed = 0;
nodes = (
"866 620 LINE",
"960 1400 LINE"
);
},
{
closed = 0;
nodes = (
"68 1400 LINE",
"356 1400 LINE"
);
},
{
closed = 0;
nodes = (
"348 1400 LINE",
"424 1400 OFFCURVE",
"459 1356 OFFCURVE",
"468 1280 CURVE SMOOTH",
"546 620 LINE"
);
},
{
closed = 0;
nodes = (
"986 -240 LINE",
"986 280 LINE SMOOTH"
);
}
);
userData = {
com.typemytype.robofont.layerData = {
background = {
anchors = (
);
components = (
);
contours = (
{
points = (
{
segmentType = curve;
smooth = 1;
x = 470;
y = 250;
},
{
segmentType = line;
smooth = 1;
x = 470;
y = 60;
},
{
smooth = 0;
x = 470;
y = 7;
},
{
smooth = 0;
x = 497;
y = -20;
},
{
segmentType = curve;
smooth = 1;
x = 550;
y = -20;
},
{
segmentType = line;
smooth = 0;
x = 700;
y = -20;
},
{
segmentType = line;
smooth = 0;
x = 700;
y = 20;
},
{
segmentType = line;
smooth = 1;
x = 550;
y = 20;
},
{
smooth = 0;
x = 523;
y = 20;
},
{
smooth = 0;
x = 510;
y = 33;
},
{
segmentType = curve;
smooth = 0;
x = 510;
y = 60;
},
{
segmentType = line;
smooth = 1;
x = 510;
y = 250;
},
{
smooth = 0;
x = 513;
y = 303;
},
{
smooth = 0;
x = 483;
y = 330;
},
{
segmentType = curve;
smooth = 1;
x = 430;
y = 330;
},
{
segmentType = line;
smooth = 0;
x = 405;
y = 330;
},
{
segmentType = line;
smooth = 0;
x = 450;
y = 720;
},
{
segmentType = line;
smooth = 0;
x = 410;
y = 720;
},
{
segmentType = line;
smooth = 0;
x = 365;
y = 330;
},
{
segmentType = line;
smooth = 0;
x = 210;
y = 330;
},
{
segmentType = line;
smooth = 0;
x = 210;
y = 720;
},
{
segmentType = line;
smooth = 0;
x = 170;
y = 720;
},
{
segmentType = line;
smooth = 0;
x = 170;
y = -20;
},
{
segmentType = line;
smooth = 1;
x = 210;
y = -20;
},
{
segmentType = line;
smooth = 0;
x = 210;
y = 293;
},
{
segmentType = line;
smooth = 0;
x = 211;
y = 290;
},
{
segmentType = line;
smooth = 1;
x = 430;
y = 290;
},
{
smooth = 0;
x = 455;
y = 290;
},
{
smooth = 0;
x = 470;
y = 277;
}
);
}
);
lib = {
};
name = K;
unicodes = (
);
width = 680;
};
line = {
anchors = (
);
components = (
{
baseGlyph = underscore;
transformation = (
1,
0,
0,
1,
30,
0
);
}
);
contours = (
);
lib = {
};
name = K;
unicodes = (
);
width = 680;
};
};
};
width = 1254;
},
{
anchors = (
{
name = bottom;
position = "{694, 0}";
},
{
name = top;
position = "{606, 1400}";
}
);
layerId = m002;
paths = (
{
closed = 0;
nodes = (
"426 -240 LINE",
"426 500 LINE SMOOTH",
"426 580 OFFCURVE",
"466 620 OFFCURVE",
"546 620 CURVE SMOOTH",
"866 620 LINE",
"946 620 OFFCURVE",
"986 580 OFFCURVE",
"986 500 CURVE SMOOTH",
"986 120 LINE SMOOTH",
"986 52 OFFCURVE",
"1038 0 OFFCURVE",
"1104 0 CURVE SMOOTH {name = instroke_raise;}",
"1254 0 LINE"
);
},
{
closed = 0;
nodes = (
"866 620 LINE",
"960 1400 LINE"
);
},
{
closed = 0;
nodes = (
"866 620 LINE",
"960 1400 LINE"
);
},
{
closed = 0;
nodes = (
"68 1400 LINE",
"356 1400 LINE"
);
},
{
closed = 0;
nodes = (
"348 1400 LINE",
"424 1400 OFFCURVE",
"459 1356 OFFCURVE",
"468 1280 CURVE SMOOTH",
"546 620 LINE"
);
},
{
closed = 0;
nodes = (
"986 -240 LINE",
"986 280 LINE SMOOTH"
);
}
);
userData = {
com.typemytype.robofont.layerData = {
background = {
anchors = (
);
components = (
);
contours = (
{
points = (
{
segmentType = curve;
smooth = 1;
x = 470;
y = 250;
},
{
segmentType = line;
smooth = 1;
x = 470;
y = 60;
},
{
smooth = 0;
x = 470;
y = 7;
},
{
smooth = 0;
x = 497;
y = -20;
},
{
segmentType = curve;
smooth = 1;
x = 550;
y = -20;
},
{
segmentType = line;
smooth = 0;
x = 700;
y = -20;
},
{
segmentType = line;
smooth = 0;
x = 700;
y = 20;
},
{
segmentType = line;
smooth = 1;
x = 550;
y = 20;
},
{
smooth = 0;
x = 523;
y = 20;
},
{
smooth = 0;
x = 510;
y = 33;
},
{
segmentType = curve;
smooth = 0;
x = 510;
y = 60;
},
{
segmentType = line;
smooth = 1;
x = 510;
y = 250;
},
{
smooth = 0;
x = 513;
y = 303;
},
{
smooth = 0;
x = 483;
y = 330;
},
{
segmentType = curve;
smooth = 1;
x = 430;
y = 330;
},
{
segmentType = line;
smooth = 0;
x = 405;
y = 330;
},
{
segmentType = line;
smooth = 0;
x = 450;
y = 720;
},
{
segmentType = line;
smooth = 0;
x = 410;
y = 720;
},
{
segmentType = line;
smooth = 0;
x = 365;
y = 330;
},
{
segmentType = line;
smooth = 0;
x = 210;
y = 330;
},
{
segmentType = line;
smooth = 0;
x = 210;
y = 720;
},
{
segmentType = line;
smooth = 0;
x = 170;
y = 720;
},
{
segmentType = line;
smooth = 0;
x = 170;
y = -20;
},
{
segmentType = line;
smooth = 1;
x = 210;
y = -20;
},
{
segmentType = line;
smooth = 0;
x = 210;
y = 293;
},
{
segmentType = line;
smooth = 0;
x = 211;
y = 290;
},
{
segmentType = line;
smooth = 1;
x = 430;
y = 290;
},
{
smooth = 0;
x = 455;
y = 290;
},
{
smooth = 0;
x = 470;
y = 277;
}
);
}
);
lib = {
};
name = K;
unicodes = (
);
width = 680;
};
line = {
anchors = (
);
components = (
{
baseGlyph = underscore;
transformation = (
1,
0,
0,
1,
30,
0
);
}
);
contours = (
);
lib = {
};
name = K;
unicodes = (
);
width = 680;
};
};
};
width = 1254;
},
{
anchors = (
{
name = bottom;
position = "{694, 0}";
},
{
name = top;
position = "{606, 1400}";
}
);
layerId = m004;
paths = (
{
closed = 0;
nodes = (
"426 -240 LINE",
"426 500 LINE SMOOTH",
"426 580 OFFCURVE",
"466 620 OFFCURVE",
"546 620 CURVE SMOOTH",
"866 620 LINE",
"946 620 OFFCURVE",
"986 580 OFFCURVE",
"986 500 CURVE SMOOTH",
"986 120 LINE SMOOTH",
"986 52 OFFCURVE",
"1038 0 OFFCURVE",
"1104 0 CURVE SMOOTH {name = instroke_raise;}",
"1254 0 LINE"
);
},
{
closed = 0;
nodes = (
"866 620 LINE",
"960 1400 LINE"
);
},
{
closed = 0;
nodes = (
"866 620 LINE",
"960 1400 LINE"
);
},
{
closed = 0;
nodes = (
"68 1400 LINE",
"356 1400 LINE"
);
},
{
closed = 0;
nodes = (
"348 1400 LINE",
"424 1400 OFFCURVE",
"459 1356 OFFCURVE",
"468 1280 CURVE SMOOTH",
"546 620 LINE"
);
},
{
closed = 0;
nodes = (
"986 -240 LINE",
"986 280 LINE SMOOTH"
);
}
);
userData = {
com.typemytype.robofont.layerData = {
background = {
anchors = (
);
components = (
);
contours = (
{
points = (
{
segmentType = curve;
smooth = 1;
x = 470;
y = 250;
},
{
segmentType = line;
smooth = 1;
x = 470;
y = 60;
},
{
smooth = 0;
x = 470;
y = 7;
},
{
smooth = 0;
x = 497;
y = -20;
},
{
segmentType = curve;
smooth = 1;
x = 550;
y = -20;
},
{
segmentType = line;
smooth = 0;
x = 700;
y = -20;
},
{
segmentType = line;
smooth = 0;
x = 700;
y = 20;
},
{
segmentType = line;
smooth = 1;
x = 550;
y = 20;
},
{
smooth = 0;
x = 523;
y = 20;
},
{
smooth = 0;
x = 510;
y = 33;
},
{
segmentType = curve;
smooth = 0;
x = 510;
y = 60;
},
{
segmentType = line;
smooth = 1;
x = 510;
y = 250;
},
{
smooth = 0;
x = 513;
y = 303;
},
{
smooth = 0;
x = 483;
y = 330;
},
{
segmentType = curve;
smooth = 1;
x = 430;
y = 330;
},
{
segmentType = line;
smooth = 0;
x = 405;
y = 330;
},
{
segmentType = line;
smooth = 0;
x = 450;
y = 720;
},
{
segmentType = line;
smooth = 0;
x = 410;
y = 720;
},
{
segmentType = line;
smooth = 0;
x = 365;
y = 330;
},
{
segmentType = line;
smooth = 0;
x = 210;
y = 330;
},
{
segmentType = line;
smooth = 0;
x = 210;
y = 720;
},
{
segmentType = line;
smooth = 0;
x = 170;
y = 720;
},
{
segmentType = line;
smooth = 0;
x = 170;
y = -20;
},
{
segmentType = line;
smooth = 1;
x = 210;
y = -20;
},
{
segmentType = line;
smooth = 0;
x = 210;
y = 293;
},
{
segmentType = line;
smooth = 0;
x = 211;
y = 290;
},
{
segmentType = line;
smooth = 1;
x = 430;
y = 290;
},
{
smooth = 0;
x = 455;
y = 290;
},
{
smooth = 0;
x = 470;
y = 277;
}
);
}
);
lib = {
};
name = K;
unicodes = (
);
width = 680;
};
line = {
anchors = (
);
components = (
{
baseGlyph = underscore;
transformation = (
1,
0,
0,
1,
30,
0
);
}
);
contours = (
);
lib = {
};
name = K;
unicodes = (
);
width = 680;
};
};
};
width = 1254;
},
{
anchors = (
{
name = bottom;
position = "{694, 0}";
},
{
name = top;
position = "{606, 1400}";
}
);
layerId = m005;
paths = (
{
closed = 0;
nodes = (
"426 -240 LINE",
"426 500 LINE SMOOTH",
"426 580 OFFCURVE",
"466 620 OFFCURVE",
"546 620 CURVE SMOOTH",
"866 620 LINE",
"946 620 OFFCURVE",
"986 580 OFFCURVE",
"986 500 CURVE SMOOTH",
"986 120 LINE SMOOTH",
"986 52 OFFCURVE",
"1038 0 OFFCURVE",
"1104 0 CURVE SMOOTH {name = instroke_raise;}",
"1254 0 LINE"
);
},
{
closed = 0;
nodes = (
"866 620 LINE",
"960 1400 LINE"
);
},
{
closed = 0;
nodes = (
"866 620 LINE",
"960 1400 LINE"
);
},
{
closed = 0;
nodes = (
"68 1400 LINE",
"356 1400 LINE"
);
},
{
closed = 0;
nodes = (
"348 1400 LINE",
"424 1400 OFFCURVE",
"459 1356 OFFCURVE",
"468 1280 CURVE SMOOTH",
"546 620 LINE"
);
},
{
closed = 0;
nodes = (
"986 -240 LINE",
"986 280 LINE SMOOTH"
);
}
);
userData = {
com.typemytype.robofont.layerData = {
background = {
anchors = (
);
components = (
);
contours = (
{
points = (
{
segmentType = curve;
smooth = 1;
x = 470;
y = 250;
},
{
segmentType = line;
smooth = 1;
x = 470;
y = 60;
},
{
smooth = 0;
x = 470;
y = 7;
},
{
smooth = 0;
x = 497;
y = -20;
},
{
segmentType = curve;
smooth = 1;
x = 550;
y = -20;
},
{
segmentType = line;
smooth = 0;
x = 700;
y = -20;
},
{
segmentType = line;
smooth = 0;
x = 700;
y = 20;
},
{
segmentType = line;
smooth = 1;
x = 550;
y = 20;
},
{
smooth = 0;
x = 523;
y = 20;
},
{
smooth = 0;
x = 510;
y = 33;
},
{
segmentType = curve;
smooth = 0;
x = 510;
y = 60;
},
{
segmentType = line;
smooth = 1;
x = 510;
y = 250;
},
{
smooth = 0;
x = 513;
y = 303;
},
{
smooth = 0;
x = 483;
y = 330;
},
{
segmentType = curve;
smooth = 1;
x = 430;
y = 330;
},
{
segmentType = line;
smooth = 0;
x = 405;
y = 330;
},
{
segmentType = line;
smooth = 0;
x = 450;
y = 720;
},
{
segmentType = line;
smooth = 0;
x = 410;
y = 720;
},
{
segmentType = line;
smooth = 0;
x = 365;
y = 330;
},
{
segmentType = line;
smooth = 0;
x = 210;
y = 330;
},
{
segmentType = line;
smooth = 0;
x = 210;
y = 720;
},
{
segmentType = line;
smooth = 0;
x = 170;
y = 720;
},
{
segmentType = line;
smooth = 0;
x = 170;
y = -20;
},
{
segmentType = line;
smooth = 1;
x = 210;
y = -20;
},
{
segmentType = line;
smooth = 0;
x = 210;
y = 293;
},
{
segmentType = line;
smooth = 0;
x = 211;
y = 290;
},
{
segmentType = line;
smooth = 1;
x = 430;
y = 290;
},
{
smooth = 0;
x = 455;
y = 290;
},
{
smooth = 0;
x = 470;
y = 277;
}
);
}
);
lib = {
};
name = K;
unicodes = (
);
width = 680;
};
line = {
anchors = (
);
components = (
{
baseGlyph = underscore;
transformation = (
1,
0,
0,
1,
30,
0
);
}
);
contours = (
);
lib = {
};
name = K;
unicodes = (
);
width = 680;
};
};
};
width = 1254;
},
{
anchors = (
{
name = bottom;
position = "{694, 0}";
},
{
name = top;
position = "{606, 1400}";
}
);
layerId = m006;
paths = (
{
closed = 0;
nodes = (
"426 -240 LINE",
"426 500 LINE SMOOTH",
"426 580 OFFCURVE",
"466 620 OFFCURVE",
"546 620 CURVE SMOOTH",
"866 620 LINE",
"946 620 OFFCURVE",
"986 580 OFFCURVE",
"986 500 CURVE SMOOTH",
"986 120 LINE SMOOTH",
"986 52 OFFCURVE",
"1038 0 OFFCURVE",
"1104 0 CURVE SMOOTH {name = instroke_raise;}",
"1254 0 LINE"
);
},
{
closed = 0;
nodes = (
"866 620 LINE",
"960 1400 LINE"
);
},
{
closed = 0;
nodes = (
"866 620 LINE",
"960 1400 LINE"
);
},
{
closed = 0;
nodes = (
"68 1400 LINE",
"356 1400 LINE"
);
},
{
closed = 0;
nodes = (
"348 1400 LINE",
"424 1400 OFFCURVE",
"459 1356 OFFCURVE",
"468 1280 CURVE SMOOTH",
"546 620 LINE"
);
},
{
closed = 0;
nodes = (
"986 -240 LINE",
"986 280 LINE SMOOTH"
);
}
);
userData = {
com.typemytype.robofont.layerData = {
background = {
anchors = (
);
components = (
);
contours = (
{
points = (
{
segmentType = curve;
smooth = 1;
x = 470;
y = 250;
},
{
segmentType = line;
smooth = 1;
x = 470;
y = 60;
},
{
smooth = 0;
x = 470;
y = 7;
},
{
smooth = 0;
x = 497;
y = -20;
},
{
segmentType = curve;
smooth = 1;
x = 550;
y = -20;
},
{
segmentType = line;
smooth = 0;
x = 700;
y = -20;
},
{
segmentType = line;
smooth = 0;
x = 700;
y = 20;
},
{
segmentType = line;
smooth = 1;
x = 550;
y = 20;
},
{
smooth = 0;
x = 523;
y = 20;
},
{
smooth = 0;
x = 510;
y = 33;
},
{
segmentType = curve;
smooth = 0;
x = 510;
y = 60;
},
{
segmentType = line;
smooth = 1;
x = 510;
y = 250;
},
{
smooth = 0;
x = 513;
y = 303;
},
{
smooth = 0;
x = 483;
y = 330;
},
{
segmentType = curve;
smooth = 1;
x = 430;
y = 330;
},
{
segmentType = line;
smooth = 0;
x = 405;
y = 330;
},
{
segmentType = line;
smooth = 0;
x = 450;
y = 720;
},
{
segmentType = line;
smooth = 0;
x = 410;
y = 720;
},
{
segmentType = line;
smooth = 0;
x = 365;
y = 330;
},
{
segmentType = line;
smooth = 0;
x = 210;
y = 330;
},
{
segmentType = line;
smooth = 0;
x = 210;
y = 720;
},
{
segmentType = line;
smooth = 0;
x = 170;
y = 720;
},
{
segmentType = line;
smooth = 0;
x = 170;
y = -20;
},
{
segmentType = line;
smooth = 1;
x = 210;
y = -20;
},
{
segmentType = line;
smooth = 0;
x = 210;
y = 293;
},
{
segmentType = line;
smooth = 0;
x = 211;
y = 290;
},
{
segmentType = line;
smooth = 1;
x = 430;
y = 290;
},
{
smooth = 0;
x = 455;
y = 290;
},
{
smooth = 0;
x = 470;
y = 277;
}
);
}
);
lib = {
};
name = K;
unicodes = (
);
width = 680;
};
line = {
anchors = (
);
components = (
{
baseGlyph = underscore;
transformation = (
1,
0,
0,
1,
30,
0
);
}
);
contours = (
);
lib = {
};
name = K;
unicodes = (
);
width = 680;
};
};
};
width = 1254;
},
{
anchors = (
{
name = bottom;
position = "{694, 0}";
},
{
name = top;
position = "{606, 1400}";
}
);
layerId = m007;
paths = (
{
closed = 0;
nodes = (
"426 -240 LINE",
"426 500 LINE SMOOTH",
"426 580 OFFCURVE",
"466 620 OFFCURVE",
"546 620 CURVE SMOOTH",
"866 620 LINE",
"946 620 OFFCURVE",
"986 580 OFFCURVE",
"986 500 CURVE SMOOTH",
"986 120 LINE SMOOTH",
"986 52 OFFCURVE",
"1038 0 OFFCURVE",
"1104 0 CURVE SMOOTH {name = instroke_raise;}",
"1254 0 LINE"
);
},
{
closed = 0;
nodes = (
"866 620 LINE",
"960 1400 LINE"
);
},
{
closed = 0;
nodes = (
"866 620 LINE",
"960 1400 LINE"
);
},
{
closed = 0;
nodes = (
"68 1400 LINE",
"356 1400 LINE"
);
},
{
closed = 0;
nodes = (
"348 1400 LINE",
"424 1400 OFFCURVE",
"459 1356 OFFCURVE",
"468 1280 CURVE SMOOTH",
"546 620 LINE"
);
},
{
closed = 0;
nodes = (
"986 -240 LINE",
"986 280 LINE SMOOTH"
);
}
);
userData = {
com.typemytype.robofont.layerData = {
background = {
anchors = (
);
components = (
);
contours = (
{
points = (
{
segmentType = curve;
smooth = 1;
x = 470;
y = 250;
},
{
segmentType = line;
smooth = 1;
x = 470;
y = 60;
},
{
smooth = 0;
x = 470;
y = 7;
},
{
smooth = 0;
x = 497;
y = -20;
},
{
segmentType = curve;
smooth = 1;
x = 550;
y = -20;
},
{
segmentType = line;
smooth = 0;
x = 700;
y = -20;
},
{
segmentType = line;
smooth = 0;
x = 700;
y = 20;
},
{
segmentType = line;
smooth = 1;
x = 550;
y = 20;
},
{
smooth = 0;
x = 523;
y = 20;
},
{
smooth = 0;
x = 510;
y = 33;
},
{
segmentType = curve;
smooth = 0;
x = 510;
y = 60;
},
{
segmentType = line;
smooth = 1;
x = 510;
y = 250;
},
{
smooth = 0;
x = 513;
y = 303;
},
{
smooth = 0;
x = 483;
y = 330;
},
{
segmentType = curve;
smooth = 1;
x = 430;
y = 330;
},
{
segmentType = line;
smooth = 0;
x = 405;
y = 330;
},
{
segmentType = line;
smooth = 0;
x = 450;
y = 720;
},
{
segmentType = line;
smooth = 0;
x = 410;
y = 720;
},
{
segmentType = line;
smooth = 0;
x = 365;
y = 330;
},
{
segmentType = line;
smooth = 0;
x = 210;
y = 330;
},
{
segmentType = line;
smooth = 0;
x = 210;
y = 720;
},
{
segmentType = line;
smooth = 0;
x = 170;
y = 720;
},
{
segmentType = line;
smooth = 0;
x = 170;
y = -20;
},
{
segmentType = line;
smooth = 1;
x = 210;
y = -20;
},
{
segmentType = line;
smooth = 0;
x = 210;
y = 293;
},
{
segmentType = line;
smooth = 0;
x = 211;
y = 290;
},
{
segmentType = line;
smooth = 1;
x = 430;
y = 290;
},
{
smooth = 0;
x = 455;
y = 290;
},
{
smooth = 0;
x = 470;
y = 277;
}
);
}
);
lib = {
};
name = K;
unicodes = (
);
width = 680;
};
line = {
anchors = (
);
components = (
{
baseGlyph = underscore;
transformation = (
1,
0,
0,
1,
30,
0
);
}
);
contours = (
);
lib = {
};
name = K;
unicodes = (
);
width = 680;
};
};
};
width = 1254;
},
{
anchors = (
{
name = bottom;
position = "{694, 0}";
},
{
name = top;
position = "{606, 1400}";
}
);
layerId = m008;
paths = (
{
closed = 0;
nodes = (
"426 -240 LINE",
"426 500 LINE SMOOTH",
"426 580 OFFCURVE",
"466 620 OFFCURVE",
"546 620 CURVE SMOOTH",
"866 620 LINE",
"946 620 OFFCURVE",
"986 580 OFFCURVE",
"986 500 CURVE SMOOTH",
"986 120 LINE SMOOTH",
"986 52 OFFCURVE",
"1038 0 OFFCURVE",
"1104 0 CURVE SMOOTH {name = instroke_raise;}",
"1254 0 LINE"
);
},
{
closed = 0;
nodes = (
"866 620 LINE",
"960 1400 LINE"
);
},
{
closed = 0;
nodes = (
"866 620 LINE",
"960 1400 LINE"
);
},
{
closed = 0;
nodes = (
"68 1400 LINE",
"356 1400 LINE"
);
},
{
closed = 0;
nodes = (
"348 1400 LINE",
"424 1400 OFFCURVE",
"459 1356 OFFCURVE",
"468 1280 CURVE SMOOTH",
"546 620 LINE"
);
},
{
closed = 0;
nodes = (
"986 -240 LINE",
"986 280 LINE SMOOTH"
);
}
);
userData = {
com.typemytype.robofont.layerData = {
background = {
anchors = (
);
components = (
);
contours = (
{
points = (
{
segmentType = curve;
smooth = 1;
x = 470;
y = 250;
},
{
segmentType = line;
smooth = 1;
x = 470;
y = 60;
},
{
smooth = 0;
x = 470;
y = 7;
},
{
smooth = 0;
x = 497;
y = -20;
},
{
segmentType = curve;
smooth = 1;
x = 550;
y = -20;
},
{
segmentType = line;
smooth = 0;
x = 700;
y = -20;
},
{
segmentType = line;
smooth = 0;
x = 700;
y = 20;
},
{
segmentType = line;
smooth = 1;
x = 550;
y = 20;
},
{
smooth = 0;
x = 523;
y = 20;
},
{
smooth = 0;
x = 510;
y = 33;
},
{
segmentType = curve;
smooth = 0;
x = 510;
y = 60;
},
{
segmentType = line;
smooth = 1;
x = 510;
y = 250;
},
{
smooth = 0;
x = 513;
y = 303;
},
{
smooth = 0;
x = 483;
y = 330;
},
{
segmentType = curve;
smooth = 1;
x = 430;
y = 330;
},
{
segmentType = line;
smooth = 0;
x = 405;
y = 330;
},
{
segmentType = line;
smooth = 0;
x = 450;
y = 720;
},
{
segmentType = line;
smooth = 0;
x = 410;
y = 720;
},
{
segmentType = line;
smooth = 0;
x = 365;
y = 330;
},
{
segmentType = line;
smooth = 0;
x = 210;
y = 330;
},
{
segmentType = line;
smooth = 0;
x = 210;
y = 720;
},
{
segmentType = line;
smooth = 0;
x = 170;
y = 720;
},
{
segmentType = line;
smooth = 0;
x = 170;
y = -20;
},
{
segmentType = line;
smooth = 1;
x = 210;
y = -20;
},
{
segmentType = line;
smooth = 0;
x = 210;
y = 293;
},
{
segmentType = line;
smooth = 0;
x = 211;
y = 290;
},
{
segmentType = line;
smooth = 1;
x = 430;
y = 290;
},
{
smooth = 0;
x = 455;
y = 290;
},
{
smooth = 0;
x = 470;
y = 277;
}
);
}
);
lib = {
};
name = K;
unicodes = (
);
width = 680;
};
line = {
anchors = (
);
components = (
{
baseGlyph = underscore;
transformation = (
1,
0,
0,
1,
30,
0
);
}
);
contours = (
);
lib = {
};
name = K;
unicodes = (
);
width = 680;
};
};
};
width = 1254;
}
);
leftKerningGroup = X;
rightKerningGroup = K;
unicode = 0058;
},
{
glyphname = Y;
lastChange = "2021-04-29 02:47:43 +0000";
layers = (
{
anchors = (
{
name = bottom;
position = "{1002, -60}";
},
{
name = top;
position = "{602, 1400}";
},
{
name = topleft;
position = "{8, 1400}";
}
);
layerId = m003;
paths = (
{
closed = 0;
nodes = (
"68 1400 LINE",
"68 1400 OFFCURVE",
"384 1400 OFFCURVE",
"384 1400 CURVE",
"318 400 LINE SMOOTH",
"312 320 OFFCURVE",
"358 280 OFFCURVE",
"438 280 CURVE",
"848 280 LINE",
"848 1400 LINE"
);
},
{
closed = 0;
nodes = (
"402 -240 LINE",
"728 -240 LINE SMOOTH",
"808 -240 OFFCURVE",
"848 -200 OFFCURVE",
"848 -120 CURVE SMOOTH",
"848 280 LINE"
);
},
{
closed = 0;
nodes = (
"848 120 LINE SMOOTH",
"848 52 OFFCURVE",
"900 0 OFFCURVE",
"966 0 CURVE SMOOTH {name = instroke_raise;}",
"1116 0 LINE"
);
}
);
width = 1116;
},
{
anchors = (
{
name = bottom;
position = "{1002, -60}";
},
{
name = top;
position = "{602, 1400}";
},
{
name = topleft;
position = "{8, 1400}";
}
);
layerId = m002;
paths = (
{
closed = 0;
nodes = (
"68 1400 LINE",
"68 1400 OFFCURVE",
"384 1400 OFFCURVE",
"384 1400 CURVE",
"318 400 LINE SMOOTH",
"312 320 OFFCURVE",
"358 280 OFFCURVE",
"438 280 CURVE",
"848 280 LINE",
"848 1400 LINE"
);
},
{
closed = 0;
nodes = (
"402 -240 LINE",
"728 -240 LINE SMOOTH",
"808 -240 OFFCURVE",
"848 -200 OFFCURVE",
"848 -120 CURVE SMOOTH",
"848 280 LINE"
);
},
{
closed = 0;
nodes = (
"848 120 LINE SMOOTH",
"848 52 OFFCURVE",
"900 0 OFFCURVE",
"966 0 CURVE SMOOTH {name = instroke_raise;}",
"1116 0 LINE"
);
}
);
width = 1116;
},
{
anchors = (
{
name = bottom;
position = "{1002, -60}";
},
{
name = top;
position = "{602, 1400}";
},
{
name = topleft;
position = "{8, 1400}";
}
);
layerId = m004;
paths = (
{
closed = 0;
nodes = (
"68 1400 LINE",
"68 1400 OFFCURVE",
"384 1400 OFFCURVE",
"384 1400 CURVE",
"318 400 LINE SMOOTH",
"312 320 OFFCURVE",
"358 280 OFFCURVE",
"438 280 CURVE",
"848 280 LINE",
"848 1400 LINE"
);
},
{
closed = 0;
nodes = (
"402 -240 LINE",
"728 -240 LINE SMOOTH",
"808 -240 OFFCURVE",
"848 -200 OFFCURVE",
"848 -120 CURVE SMOOTH",
"848 280 LINE"
);
},
{
closed = 0;
nodes = (
"848 120 LINE SMOOTH",
"848 52 OFFCURVE",
"900 0 OFFCURVE",
"966 0 CURVE SMOOTH {name = instroke_raise;}",
"1116 0 LINE"
);
}
);
width = 1116;
},
{
anchors = (
{
name = bottom;
position = "{1002, -60}";
},
{
name = top;
position = "{602, 1400}";
},
{
name = topleft;
position = "{8, 1400}";
}
);
layerId = m005;
paths = (
{
closed = 0;
nodes = (
"68 1400 LINE",
"68 1400 OFFCURVE",
"384 1400 OFFCURVE",
"384 1400 CURVE",
"318 400 LINE SMOOTH",
"312 320 OFFCURVE",
"358 280 OFFCURVE",
"438 280 CURVE",
"848 280 LINE",
"848 1400 LINE"
);
},
{
closed = 0;
nodes = (
"402 -240 LINE",
"728 -240 LINE SMOOTH",
"808 -240 OFFCURVE",
"848 -200 OFFCURVE",
"848 -120 CURVE SMOOTH",
"848 280 LINE"
);
},
{
closed = 0;
nodes = (
"848 120 LINE SMOOTH",
"848 52 OFFCURVE",
"900 0 OFFCURVE",
"966 0 CURVE SMOOTH {name = instroke_raise;}",
"1116 0 LINE"
);
}
);
width = 1116;
},
{
anchors = (
{
name = bottom;
position = "{1002, -60}";
},
{
name = top;
position = "{602, 1400}";
},
{
name = topleft;
position = "{8, 1400}";
}
);
layerId = m006;
paths = (
{
closed = 0;
nodes = (
"68 1400 LINE",
"68 1400 OFFCURVE",
"384 1400 OFFCURVE",
"384 1400 CURVE",
"318 400 LINE SMOOTH",
"312 320 OFFCURVE",
"358 280 OFFCURVE",
"438 280 CURVE",
"848 280 LINE",
"848 1400 LINE"
);
},
{
closed = 0;
nodes = (
"402 -240 LINE",
"728 -240 LINE SMOOTH",
"808 -240 OFFCURVE",
"848 -200 OFFCURVE",
"848 -120 CURVE SMOOTH",
"848 280 LINE"
);
},
{
closed = 0;
nodes = (
"848 120 LINE SMOOTH",
"848 52 OFFCURVE",
"900 0 OFFCURVE",
"966 0 CURVE SMOOTH {name = instroke_raise;}",
"1116 0 LINE"
);
}
);
width = 1116;
},
{
anchors = (
{
name = bottom;
position = "{1002, -60}";
},
{
name = top;
position = "{602, 1400}";
},
{
name = topleft;
position = "{8, 1400}";
}
);
layerId = m007;
paths = (
{
closed = 0;
nodes = (
"68 1400 LINE",
"68 1400 OFFCURVE",
"384 1400 OFFCURVE",
"384 1400 CURVE",
"318 400 LINE SMOOTH",
"312 320 OFFCURVE",
"358 280 OFFCURVE",
"438 280 CURVE",
"848 280 LINE",
"848 1400 LINE"
);
},
{
closed = 0;
nodes = (
"402 -240 LINE",
"728 -240 LINE SMOOTH",
"808 -240 OFFCURVE",
"848 -200 OFFCURVE",
"848 -120 CURVE SMOOTH",
"848 280 LINE"
);
},
{
closed = 0;
nodes = (
"848 120 LINE SMOOTH",
"848 52 OFFCURVE",
"900 0 OFFCURVE",
"966 0 CURVE SMOOTH {name = instroke_raise;}",
"1116 0 LINE"
);
}
);
width = 1116;
},
{
anchors = (
{
name = bottom;
position = "{1002, -60}";
},
{
name = top;
position = "{602, 1400}";
},
{
name = topleft;
position = "{8, 1400}";
}
);
layerId = m008;
paths = (
{
closed = 0;
nodes = (
"68 1400 LINE",
"68 1400 OFFCURVE",
"384 1400 OFFCURVE",
"384 1400 CURVE",
"318 400 LINE SMOOTH",
"312 320 OFFCURVE",
"358 280 OFFCURVE",
"438 280 CURVE",
"848 280 LINE",
"848 1400 LINE"
);
},
{
closed = 0;
nodes = (
"402 -240 LINE",
"728 -240 LINE SMOOTH",
"808 -240 OFFCURVE",
"848 -200 OFFCURVE",
"848 -120 CURVE SMOOTH",
"848 280 LINE"
);
},
{
closed = 0;
nodes = (
"848 120 LINE SMOOTH",
"848 52 OFFCURVE",
"900 0 OFFCURVE",
"966 0 CURVE SMOOTH {name = instroke_raise;}",
"1116 0 LINE"
);
}
);
width = 1116;
}
);
leftKerningGroup = Y;
rightKerningGroup = H;
unicode = 0059;
},
{
glyphname = Z;
lastChange = "2021-04-29 02:47:43 +0000";
layers = (
{
anchors = (
{
name = bottom;
position = "{522, 0}";
},
{
name = center;
position = "{522, 700}";
},
{
name = top;
position = "{433, 1400}";
}
);
layerId = m003;
paths = (
{
closed = 0;
nodes = (
"784 -500 LINE",
"850 480 LINE SMOOTH",
"855 560 OFFCURVE",
"810 600 OFFCURVE",
"730 600 CURVE SMOOTH",
"730 600 OFFCURVE",
"580 600 OFFCURVE",
"580 600 CURVE",
"670 1280 LINE SMOOTH",
"681 1360 OFFCURVE",
"630 1400 OFFCURVE",
"550 1400 CURVE SMOOTH",
"310 1400 LINE SMOOTH",
"230 1400 OFFCURVE",
"190 1362 OFFCURVE",
"190 1280 CURVE SMOOTH",
"190 400 LINE SMOOTH"
);
},
{
closed = 0;
nodes = (
"826 120 LINE SMOOTH",
"826 44 OFFCURVE",
"868 0 OFFCURVE",
"944 0 CURVE SMOOTH {name = instroke_raise;}",
"1054 0 LINE"
);
}
);
width = 1054;
},
{
anchors = (
{
name = bottom;
position = "{522, 0}";
},
{
name = center;
position = "{522, 700}";
},
{
name = top;
position = "{433, 1400}";
}
);
layerId = m002;
paths = (
{
closed = 0;
nodes = (
"784 -500 LINE",
"850 480 LINE SMOOTH",
"855 560 OFFCURVE",
"810 600 OFFCURVE",
"730 600 CURVE SMOOTH",
"730 600 OFFCURVE",
"580 600 OFFCURVE",
"580 600 CURVE",
"670 1280 LINE SMOOTH",
"681 1360 OFFCURVE",
"630 1400 OFFCURVE",
"550 1400 CURVE SMOOTH",
"310 1400 LINE SMOOTH",
"230 1400 OFFCURVE",
"190 1362 OFFCURVE",
"190 1280 CURVE SMOOTH",
"190 400 LINE SMOOTH"
);
},
{
closed = 0;
nodes = (
"826 120 LINE SMOOTH",
"826 44 OFFCURVE",
"868 0 OFFCURVE",
"944 0 CURVE SMOOTH {name = instroke_raise;}",
"1054 0 LINE"
);
}
);
width = 1054;
},
{
anchors = (
{
name = bottom;
position = "{522, 0}";
},
{
name = center;
position = "{522, 700}";
},
{
name = top;
position = "{433, 1400}";
}
);
layerId = m004;
paths = (
{
closed = 0;
nodes = (
"784 -500 LINE",
"850 480 LINE SMOOTH",
"855 560 OFFCURVE",
"810 600 OFFCURVE",
"730 600 CURVE SMOOTH",
"730 600 OFFCURVE",
"580 600 OFFCURVE",
"580 600 CURVE",
"670 1280 LINE SMOOTH",
"681 1360 OFFCURVE",
"630 1400 OFFCURVE",
"550 1400 CURVE SMOOTH",
"310 1400 LINE SMOOTH",
"230 1400 OFFCURVE",
"190 1362 OFFCURVE",
"190 1280 CURVE SMOOTH",
"190 400 LINE SMOOTH"
);
},
{
closed = 0;
nodes = (
"826 120 LINE SMOOTH",
"826 44 OFFCURVE",
"868 0 OFFCURVE",
"944 0 CURVE SMOOTH {name = instroke_raise;}",
"1054 0 LINE"
);
}
);
width = 1054;
},
{
anchors = (
{
name = bottom;
position = "{522, 0}";
},
{
name = center;
position = "{522, 700}";
},
{
name = top;
position = "{433, 1400}";
}
);
layerId = m005;
paths = (
{
closed = 0;
nodes = (
"784 -500 LINE",
"850 480 LINE SMOOTH",
"855 560 OFFCURVE",
"810 600 OFFCURVE",
"730 600 CURVE SMOOTH",
"730 600 OFFCURVE",
"580 600 OFFCURVE",
"580 600 CURVE",
"670 1280 LINE SMOOTH",
"681 1360 OFFCURVE",
"630 1400 OFFCURVE",
"550 1400 CURVE SMOOTH",
"310 1400 LINE SMOOTH",
"230 1400 OFFCURVE",
"190 1362 OFFCURVE",
"190 1280 CURVE SMOOTH",
"190 400 LINE SMOOTH"
);
},
{
closed = 0;
nodes = (
"826 120 LINE SMOOTH",
"826 44 OFFCURVE",
"868 0 OFFCURVE",
"944 0 CURVE SMOOTH {name = instroke_raise;}",
"1054 0 LINE"
);
}
);
width = 1054;
},
{
anchors = (
{
name = bottom;
position = "{522, 0}";
},
{
name = center;
position = "{522, 700}";
},
{
name = top;
position = "{433, 1400}";
}
);
layerId = m006;
paths = (
{
closed = 0;
nodes = (
"784 -500 LINE",
"850 480 LINE SMOOTH",
"855 560 OFFCURVE",
"810 600 OFFCURVE",
"730 600 CURVE SMOOTH",
"730 600 OFFCURVE",
"580 600 OFFCURVE",
"580 600 CURVE",
"670 1280 LINE SMOOTH",
"681 1360 OFFCURVE",
"630 1400 OFFCURVE",
"550 1400 CURVE SMOOTH",
"310 1400 LINE SMOOTH",
"230 1400 OFFCURVE",
"190 1362 OFFCURVE",
"190 1280 CURVE SMOOTH",
"190 400 LINE SMOOTH"
);
},
{
closed = 0;
nodes = (
"826 120 LINE SMOOTH",
"826 44 OFFCURVE",
"868 0 OFFCURVE",
"944 0 CURVE SMOOTH {name = instroke_raise;}",
"1054 0 LINE"
);
}
);
width = 1054;
},
{
anchors = (
{
name = bottom;
position = "{522, 0}";
},
{
name = center;
position = "{522, 700}";
},
{
name = top;
position = "{433, 1400}";
}
);
layerId = m007;
paths = (
{
closed = 0;
nodes = (
"784 -500 LINE",
"850 480 LINE SMOOTH",
"855 560 OFFCURVE",
"810 600 OFFCURVE",
"730 600 CURVE SMOOTH",
"730 600 OFFCURVE",
"580 600 OFFCURVE",
"580 600 CURVE",
"670 1280 LINE SMOOTH",
"681 1360 OFFCURVE",
"630 1400 OFFCURVE",
"550 1400 CURVE SMOOTH",
"310 1400 LINE SMOOTH",
"230 1400 OFFCURVE",
"190 1362 OFFCURVE",
"190 1280 CURVE SMOOTH",
"190 400 LINE SMOOTH"
);
},
{
closed = 0;
nodes = (
"826 120 LINE SMOOTH",
"826 44 OFFCURVE",
"868 0 OFFCURVE",
"944 0 CURVE SMOOTH {name = instroke_raise;}",
"1054 0 LINE"
);
}
);
width = 1054;
},
{
anchors = (
{
name = bottom;
position = "{522, 0}";
},
{
name = center;
position = "{522, 700}";
},
{
name = top;
position = "{433, 1400}";
}
);
layerId = m008;
paths = (
{
closed = 0;
nodes = (
"784 -500 LINE",
"850 480 LINE SMOOTH",
"855 560 OFFCURVE",
"810 600 OFFCURVE",
"730 600 CURVE SMOOTH",
"730 600 OFFCURVE",
"580 600 OFFCURVE",
"580 600 CURVE",
"670 1280 LINE SMOOTH",
"681 1360 OFFCURVE",
"630 1400 OFFCURVE",
"550 1400 CURVE SMOOTH",
"310 1400 LINE SMOOTH",
"230 1400 OFFCURVE",
"190 1362 OFFCURVE",
"190 1280 CURVE SMOOTH",
"190 400 LINE SMOOTH"
);
},
{
closed = 0;
nodes = (
"826 120 LINE SMOOTH",
"826 44 OFFCURVE",
"868 0 OFFCURVE",
"944 0 CURVE SMOOTH {name = instroke_raise;}",
"1054 0 LINE"
);
}
);
width = 1054;
}
);
leftKerningGroup = Z;
rightKerningGroup = Z;
unicode = 005A;
},
